<svg id="圖層_1" data-name="圖層 1" xmlns="http://www.w3.org/2000/svg" viewBox="0 0 581.23 452.58"><defs><style>.cls-1,.cls-5{fill:#fff;}.cls-1{stroke:#c8c8c9;stroke-miterlimit:10;stroke-width:1.23px;}.cls-2{fill:#878788;}.cls-3{fill:#d7836e;}.cls-4{fill:#eac17e;}</style></defs><rect class="cls-1" x="0.61" y="0.61" width="580" height="451.36" rx="38.13"/><path class="cls-2" d="M94.47,128.53a1.15,1.15,0,0,1,.84.35,1.09,1.09,0,0,1,.34.82,1.18,1.18,0,0,1-.34.85,1.12,1.12,0,0,1-.84.36H84.9a1.12,1.12,0,0,1-.84-.36,1.18,1.18,0,0,1-.34-.85,1.09,1.09,0,0,1,.34-.82,1.15,1.15,0,0,1,.84-.35Zm-1.72,12.94a1.81,1.81,0,0,1,1.84,1.84V149a1.83,1.83,0,0,1-.53,1.3,1.77,1.77,0,0,1-1.31.55H87.87q-.15,0-.15.12a1.21,1.21,0,0,1-.35.86,1.12,1.12,0,0,1-.84.36h-.09a1.3,1.3,0,0,1-1.29-1.28v-7.63A1.77,1.77,0,0,1,85.7,142a1.83,1.83,0,0,1,1.3-.53Zm.65-8.59a1.16,1.16,0,0,1,0,2.31H86.34a1.16,1.16,0,0,1,0-2.31Zm-7.06,6.59a1.14,1.14,0,0,1-.81-.34,1.13,1.13,0,0,1-.34-.83,1.12,1.12,0,0,1,.34-.83,1.1,1.1,0,0,1,.81-.34H93.4a1.16,1.16,0,0,1,1.16,1.17,1.13,1.13,0,0,1-.34.83,1.15,1.15,0,0,1-.82.34Zm7-15.16a1.2,1.2,0,0,1,1.16,1.17,1.09,1.09,0,0,1-.35.82,1.13,1.13,0,0,1-.81.33H86.5a1.18,1.18,0,0,1-.85-.33,1.08,1.08,0,0,1-.34-.82,1.11,1.11,0,0,1,.34-.82,1.15,1.15,0,0,1,.85-.35ZM92,144.09c0-.16-.07-.25-.22-.25H87.94c-.15,0-.22.09-.22.25v4.13c0,.17.07.25.22.25h3.87c.15,0,.22-.08.22-.25Zm13.62-11.5c0,.15.09.22.25.22h6a1.06,1.06,0,0,1,.78.32,1,1,0,0,1,.31.76,1.13,1.13,0,0,1-.31.78,1,1,0,0,1-.78.33H96.69a1,1,0,0,1-.79-.33,1.13,1.13,0,0,1-.31-.78,1,1,0,0,1,.31-.76,1.07,1.07,0,0,1,.79-.32h5.93a.19.19,0,0,0,.22-.22v-1.31a.2.2,0,0,0-.22-.22h-4.4a1.06,1.06,0,0,1-1-1,1,1,0,0,1,.31-.74,1,1,0,0,1,.72-.31h4.4a.19.19,0,0,0,.22-.22v-1.16c0-.14-.07-.21-.22-.21H97.44a1.07,1.07,0,0,1-.77-.32,1,1,0,0,1-.33-.76,1.13,1.13,0,0,1,1.1-1.11h5.18a.2.2,0,0,0,.22-.22v-.31a1.33,1.33,0,0,1,.42-1,1.42,1.42,0,0,1,1-.41,1.38,1.38,0,0,1,1.39,1.41V125a.2.2,0,0,0,.22.22h5.44a1,1,0,0,1,.75.33,1.07,1.07,0,0,1,.31.78,1.08,1.08,0,0,1-1.06,1.08H105.9c-.16,0-.25.07-.25.21v1.16c0,.15.09.22.25.22h4.94a1,1,0,0,1,.74.31,1.08,1.08,0,0,1,0,1.47,1,1,0,0,1-.74.31H105.9c-.16,0-.25.08-.25.22Zm3.72,4a1.86,1.86,0,0,1,1.85,1.85v11.22a3.76,3.76,0,0,1-.27,1.59,1.84,1.84,0,0,1-.92.88,10.63,10.63,0,0,1-3.13.37h0a1.46,1.46,0,0,1-.93-.34,2,2,0,0,1-.6-.88,1,1,0,0,1,.11-.8.75.75,0,0,1,.67-.35h1.75a1,1,0,0,0,.43-.13.5.5,0,0,0,.1-.37v-2.72c0-.17-.07-.25-.21-.25h-7.32c-.14,0-.22.08-.22.25v4.28a1.37,1.37,0,0,1-1.39,1.37,1.28,1.28,0,0,1-1-.4,1.33,1.33,0,0,1-.4-1V138.44a1.84,1.84,0,0,1,1.85-1.85Zm-1,2.41c0-.15-.07-.22-.21-.22h-7.32a.2.2,0,0,0-.22.22v1.44c0,.16.08.25.22.25h7.32c.14,0,.21-.09.21-.25Zm-7.75,5.38c0,.16.08.25.22.25h7.32c.14,0,.21-.09.21-.25v-1.44c0-.17-.07-.25-.21-.25h-7.32c-.14,0-.22.08-.22.25Z"/><path class="cls-2" d="M125.74,128.88c0,.14.07.21.22.21h4.91a1.69,1.69,0,0,1,1.28.57,1.65,1.65,0,0,1,.53,1.25q0,7.77-.5,14.62c-.19,2.65-.51,4.31-1,5a3.18,3.18,0,0,1-1,1,4.23,4.23,0,0,1-1.3.42,13.25,13.25,0,0,1-2,.12h-.22a1.61,1.61,0,0,1-1.12-.45,2.23,2.23,0,0,1-.69-1.14,1,1,0,0,1,.14-.94,1,1,0,0,1,.83-.44l1.65,0a1.78,1.78,0,0,0,.64-.1,1,1,0,0,0,.46-.44c.33-.41.57-1.79.73-4.14s.31-6.41.45-12.2a.22.22,0,0,0-.25-.25h-3.68c-.15,0-.23.08-.25.25a64.48,64.48,0,0,1-1.24,11.22,20.73,20.73,0,0,1-3.39,8,1.11,1.11,0,0,1-.94.47,1.36,1.36,0,0,1-1-.44,1.53,1.53,0,0,1-.53-1v-.19a1.78,1.78,0,0,1,.28-.94,17.91,17.91,0,0,0,2.91-7,61.08,61.08,0,0,0,1-10c0-.17-.07-.25-.22-.25h-2.37a1.43,1.43,0,0,1-1-.42,1.33,1.33,0,0,1-.44-1,1.39,1.39,0,0,1,.44-1,1.41,1.41,0,0,1,1-.44h2.43a.22.22,0,0,0,.25-.21v-3.72a1.5,1.5,0,0,1,1.49-1.47,1.43,1.43,0,0,1,1,.44,1.4,1.4,0,0,1,.43,1Q125.77,127.31,125.74,128.88Zm9.22,0a1.83,1.83,0,0,1,.53-1.32,1.8,1.8,0,0,1,1.31-.53h7.41a1.83,1.83,0,0,1,1.3.53,1.8,1.8,0,0,1,.54,1.32v21.4a1.47,1.47,0,0,1-1.5,1.5,1.45,1.45,0,0,1-1.06-.43,1.48,1.48,0,0,1-.44-1.07V150c0-.15-.08-.22-.25-.22H138a.2.2,0,0,0-.22.22v.66a1.34,1.34,0,0,1-.42,1,1.4,1.4,0,0,1-1,.4,1.35,1.35,0,0,1-1-.4,1.37,1.37,0,0,1-.41-1Zm2.84,17.78c0,.16.08.25.22.25h4.78a.22.22,0,0,0,.25-.25V130.16c0-.15-.08-.22-.25-.22H138a.2.2,0,0,0-.22.22Z"/><path class="cls-2" d="M158.64,125.91a1.5,1.5,0,0,1,.44-1.1,1.49,1.49,0,0,1,1.09-.43h7.16a1.79,1.79,0,0,1,1.3.53,1.86,1.86,0,0,1,.57,1.31q.63,14.84,11.44,22.09a1.33,1.33,0,0,1,.56,1.16,1.46,1.46,0,0,1-.37,1,2.3,2.3,0,0,1-1.25.69,1.87,1.87,0,0,1-.34,0,1.75,1.75,0,0,1-1-.32,26.72,26.72,0,0,1-10.72-15.65s0,0-.07,0-.06,0-.06,0q-3.25,10.41-10.69,15.65a2.09,2.09,0,0,1-1.18.38,1,1,0,0,1-.25,0,2.58,2.58,0,0,1-1.41-.63,1.22,1.22,0,0,1-.44-1,1.19,1.19,0,0,1,.6-1.06q7.88-4.93,10.65-16.15a1.6,1.6,0,0,1,.69-1,1.43,1.43,0,0,1,.84-.28,1.29,1.29,0,0,1,.29,0,.14.14,0,0,0,.1,0,.13.13,0,0,0,0-.11c-.19-1.25-.32-2.37-.4-3.37,0-.15-.09-.22-.25-.22h-5.85a1.44,1.44,0,0,1-1.06-.44A1.46,1.46,0,0,1,158.64,125.91Z"/><path class="cls-2" d="M200.16,150.09a1.84,1.84,0,0,1-1.84-1.84V128.38a1.86,1.86,0,0,1,1.84-1.85h10.53a1.51,1.51,0,0,1,1.11.45,1.54,1.54,0,0,1,.45,1.11,1.51,1.51,0,0,1-.45,1.11,1.48,1.48,0,0,1-1.11.46h-8.4c-.17,0-.25.07-.25.22V136a.22.22,0,0,0,.25.25h6.81a1.55,1.55,0,0,1,1.12.45,1.55,1.55,0,0,1,0,2.22,1.55,1.55,0,0,1-1.12.45h-6.81c-.17,0-.25.08-.25.22v7.16a.22.22,0,0,0,.25.25H211a1.54,1.54,0,0,1,1.11.45,1.59,1.59,0,0,1,0,2.22,1.54,1.54,0,0,1-1.11.45Z"/><path class="cls-2" d="M225.15,150.5a8,8,0,0,1-6-2.45,9.26,9.26,0,0,1-2.38-6.74,10.69,10.69,0,0,1,.7-3.9,8.19,8.19,0,0,1,1.91-2.94,8.76,8.76,0,0,1,2.78-1.8,8.89,8.89,0,0,1,3.33-.64,7.34,7.34,0,0,1,3.94,1.13,1.25,1.25,0,0,1,.59,1,.66.66,0,0,1,0,.21,1.36,1.36,0,0,1-.34.91,1.4,1.4,0,0,1-1,.56h-.25a2,2,0,0,1-.91-.22,4.08,4.08,0,0,0-1.93-.5,4.52,4.52,0,0,0-3.64,1.72,6.84,6.84,0,0,0-1.43,4.5,6.92,6.92,0,0,0,1.38,4.49,4.41,4.41,0,0,0,3.59,1.7,5.16,5.16,0,0,0,2.66-.78,1.49,1.49,0,0,1,.78-.22l.28,0a1.34,1.34,0,0,1,.88.6,1.53,1.53,0,0,1,.25.84,1.49,1.49,0,0,1,0,.28,1.29,1.29,0,0,1-.63.94A8.48,8.48,0,0,1,225.15,150.5Z"/><path class="cls-2" d="M238.45,149.56a1.83,1.83,0,0,1-3.13-1.28V126.41a1.83,1.83,0,0,1,3.66,0v4.93l-.13,3.25a.11.11,0,0,0,.07.1.06.06,0,0,0,.09,0,12.6,12.6,0,0,1,2.63-1.93,6.12,6.12,0,0,1,2.9-.7q5.42,0,5.41,7v9.22a1.79,1.79,0,0,1-.53,1.31,1.76,1.76,0,0,1-1.3.53,1.78,1.78,0,0,1-1.31-.53,1.73,1.73,0,0,1-.55-1.31v-8.78a5.79,5.79,0,0,0-.7-3.27,2.62,2.62,0,0,0-2.27-1,4.05,4.05,0,0,0-2,.51,11.61,11.61,0,0,0-2.12,1.71.58.58,0,0,0-.16.4v10.44A1.75,1.75,0,0,1,238.45,149.56Z"/><path class="cls-2" d="M266.14,149.88a8.09,8.09,0,0,1-3.13.62,8.11,8.11,0,0,1-5.78-2.39,8.32,8.32,0,0,1-1.83-2.91,10.77,10.77,0,0,1-.68-3.89,10.9,10.9,0,0,1,.68-3.9,8.46,8.46,0,0,1,1.83-2.94,8.26,8.26,0,0,1,2.64-1.8A8.05,8.05,0,0,1,263,132a7.93,7.93,0,0,1,3.13.64,8.48,8.48,0,0,1,2.64,1.8,8.33,8.33,0,0,1,1.84,2.94,10.69,10.69,0,0,1,.69,3.9,10.56,10.56,0,0,1-.69,3.89,8.2,8.2,0,0,1-1.84,2.91A8.39,8.39,0,0,1,266.14,149.88ZM263,147.5a3.86,3.86,0,0,0,3.31-1.69,8.93,8.93,0,0,0,0-9,3.86,3.86,0,0,0-3.31-1.71,3.79,3.79,0,0,0-3.25,1.71,8.93,8.93,0,0,0,0,9A3.8,3.8,0,0,0,263,147.5Z"/><path class="cls-2" d="M283.42,150.5a11.52,11.52,0,0,1-7.09-2.34,1.44,1.44,0,0,1-.63-1.25,1.6,1.6,0,0,1,.44-1.13,1.5,1.5,0,0,1,1.13-.56h.12a2,2,0,0,1,1.13.34,8.32,8.32,0,0,0,5,1.72,5.3,5.3,0,0,0,3.29-.9,3.13,3.13,0,0,0,1-3.57,4.81,4.81,0,0,0-.47-.83,3.54,3.54,0,0,0-.86-.7c-.41-.25-.74-.43-1-.55l-1.25-.54-3.28-1.41c-3.19-1.35-4.78-3.42-4.78-6.19A5.85,5.85,0,0,1,278.3,128a8.28,8.28,0,0,1,5.56-1.86,9.88,9.88,0,0,1,6,2,1.36,1.36,0,0,1,.56,1.16,1.54,1.54,0,0,1-1.4,1.56l-.19,0a1.6,1.6,0,0,1-1-.31,7.21,7.21,0,0,0-4-1.19,4.64,4.64,0,0,0-2.89.83,2.67,2.67,0,0,0-1.08,2.24,2.45,2.45,0,0,0,.24,1.06,3.2,3.2,0,0,0,.53.83,3.47,3.47,0,0,0,.89.65c.39.22.72.39,1,.52s.65.28,1.17.47l3.22,1.37a9.61,9.61,0,0,1,3.57,2.49,5.84,5.84,0,0,1,1.25,3.89,6.2,6.2,0,0,1-2.27,4.89A9,9,0,0,1,283.42,150.5Z"/><path class="cls-2" d="M304,150.5a8.25,8.25,0,0,1-6.15-2.47,9.11,9.11,0,0,1-2.44-6.72,10.76,10.76,0,0,1,.67-3.84,8.55,8.55,0,0,1,1.8-2.95,8.19,8.19,0,0,1,2.56-1.83,7.12,7.12,0,0,1,3-.66,6.51,6.51,0,0,1,5.31,2.27,9.28,9.28,0,0,1,1.88,6.11v0a1.76,1.76,0,0,1-.63,1.28,2,2,0,0,1-1.4.53h-9.35c-.14,0-.21.08-.18.25a5.75,5.75,0,0,0,1.7,3.77,5.23,5.23,0,0,0,3.7,1.36,7.32,7.32,0,0,0,3-.66,1.34,1.34,0,0,1,.63-.16,1,1,0,0,1,.37.07,1.36,1.36,0,0,1,.82.62,1.52,1.52,0,0,1,.15.66,2.31,2.31,0,0,1,0,.37,1.17,1.17,0,0,1-.66.78A10.22,10.22,0,0,1,304,150.5Zm-5-11a.17.17,0,0,0,.19.19h8a.19.19,0,0,0,.22-.22,5.35,5.35,0,0,0-1.06-3.37,3.54,3.54,0,0,0-2.88-1.19,4,4,0,0,0-2.9,1.19A4.64,4.64,0,0,0,299,139.53Z"/><path class="cls-2" d="M322.84,150.5a8.27,8.27,0,0,1-6.16-2.47,9.11,9.11,0,0,1-2.44-6.72,11,11,0,0,1,.67-3.84,8.55,8.55,0,0,1,1.8-2.95,8.19,8.19,0,0,1,2.56-1.83,7.12,7.12,0,0,1,3-.66,6.53,6.53,0,0,1,5.32,2.27,9.27,9.27,0,0,1,1.87,6.11v0a1.78,1.78,0,0,1-.62,1.28,2.08,2.08,0,0,1-1.41.53h-9.34c-.15,0-.21.08-.19.25a5.75,5.75,0,0,0,1.7,3.77,5.23,5.23,0,0,0,3.7,1.36,7.33,7.33,0,0,0,3-.66,1.27,1.27,0,0,1,.62-.16,1,1,0,0,1,.38.07,1.36,1.36,0,0,1,.81.62,1.52,1.52,0,0,1,.15.66,2.31,2.31,0,0,1,0,.37,1.18,1.18,0,0,1-.65.78A10.25,10.25,0,0,1,322.84,150.5Zm-5-11c0,.13.06.19.18.19h8a.19.19,0,0,0,.22-.22,5.29,5.29,0,0,0-1.06-3.37,3.52,3.52,0,0,0-2.87-1.19,4.05,4.05,0,0,0-2.91,1.19A4.67,4.67,0,0,0,317.87,139.53Z"/><path class="cls-2" d="M340.45,150.5a6.49,6.49,0,0,1-5.31-2.42,10.42,10.42,0,0,1-2-6.77,9.86,9.86,0,0,1,2.23-6.7,6.84,6.84,0,0,1,5.33-2.58,6,6,0,0,1,2.39.45,9.2,9.2,0,0,1,2.17,1.4s0,0,.1,0,.06,0,.06-.11l-.16-2.65v-4.69a1.73,1.73,0,0,1,.55-1.31,1.79,1.79,0,0,1,1.31-.54,1.77,1.77,0,0,1,1.3.54,1.79,1.79,0,0,1,.53,1.31v22.15a1.48,1.48,0,0,1-.44,1.07,1.43,1.43,0,0,1-1.06.43,1.76,1.76,0,0,1-1.16-.42,1.67,1.67,0,0,1-.59-1.08l-.06-.43s0,0-.07,0a.12.12,0,0,0-.09,0A7,7,0,0,1,340.45,150.5Zm.84-3a5.19,5.19,0,0,0,3.85-2,.56.56,0,0,0,.15-.41v-8.15a.54.54,0,0,0-.15-.38,5.69,5.69,0,0,0-3.72-1.43,3.83,3.83,0,0,0-3.16,1.67,7.15,7.15,0,0,0-1.28,4.45,8,8,0,0,0,1.12,4.61A3.68,3.68,0,0,0,341.29,147.47Z"/><path class="cls-2" d="M371.63,125.59a.22.22,0,0,0,.25.25h9.81a1.8,1.8,0,0,1,1.3.54,1.77,1.77,0,0,1,.55,1.31v3.94a1.5,1.5,0,1,1-3,0v-2.75c0-.15-.09-.22-.25-.22H359.82c-.17,0-.25.07-.25.22v2.81a1.35,1.35,0,0,1-.43,1,1.4,1.4,0,0,1-1,.43,1.42,1.42,0,0,1-1-.43,1.38,1.38,0,0,1-.42-1v-4a1.83,1.83,0,0,1,1.84-1.85h9.72a.22.22,0,0,0,.25-.25v-.68a1.54,1.54,0,0,1,.46-1.13,1.49,1.49,0,0,1,1.11-.47,1.6,1.6,0,0,1,1.59,1.6Zm-6.91,14.13c-.14,0-.22.08-.22.25v2.16a.19.19,0,0,0,.22.21h14a1.88,1.88,0,0,1,1.85,1.85v6.72a1.5,1.5,0,0,1-1.5,1.5h-.44a1,1,0,0,1-.74-.32,1.05,1.05,0,0,1-.29-.75c0-.08-.05-.12-.16-.12H364.66a.14.14,0,0,0-.16.16,1.23,1.23,0,0,1-1.18,1.18H363a1.39,1.39,0,0,1-1-.43,1.5,1.5,0,0,1-.42-1.07V133.13a1.81,1.81,0,0,1,1.84-1.85h13.5a1.81,1.81,0,0,1,1.84,1.85v4.75a1.76,1.76,0,0,1-.53,1.31,1.79,1.79,0,0,1-1.31.53Zm11-5.66a.2.2,0,0,0-.22-.22H364.72a.2.2,0,0,0-.22.22v2.88a.2.2,0,0,0,.22.22H375.5a.2.2,0,0,0,.22-.22Zm1.88,11.16a.22.22,0,0,0-.25-.25H364.72c-.14,0-.22.08-.22.25v3.12c0,.17.08.25.22.25h12.63a.22.22,0,0,0,.25-.25Z"/><path class="cls-2" d="M418.36,128.27a1.36,1.36,0,0,1,.42,1,1.43,1.43,0,0,1-1.44,1.42H403.28a.19.19,0,0,0-.22.22c-.1,1.62-.23,3.06-.37,4.31,0,.14.05.22.21.22h10.38a1.62,1.62,0,0,1,1.25.53,1.69,1.69,0,0,1,.47,1.19,50.73,50.73,0,0,1-1,9.31,8.69,8.69,0,0,1-1.5,4.09,3.31,3.31,0,0,1-1.27.91,5.83,5.83,0,0,1-1.73.31c-.48,0-1.11.06-1.88.06l-2,0a1.72,1.72,0,0,1-1.14-.47,2.68,2.68,0,0,1-.74-1.12.92.92,0,0,1,.08-.88.79.79,0,0,1,.76-.37c1.23.06,2.49.09,3.79.09a2.38,2.38,0,0,0,1.53-.43q1.3-1.12,1.93-10.16c0-.15-.08-.22-.25-.22H402.4a.29.29,0,0,0-.31.22,22.16,22.16,0,0,1-3.25,7.87,16.16,16.16,0,0,1-5.37,4.94,1.68,1.68,0,0,1-.82.22,1.7,1.7,0,0,1-.46-.06,2.31,2.31,0,0,1-1.13-.75,1.16,1.16,0,0,1-.31-.81v-.19a1.06,1.06,0,0,1,.56-.85,16.78,16.78,0,0,0,4.25-3.48,12.83,12.83,0,0,0,1.74-2.69,23.91,23.91,0,0,0,1.15-2.81,19.51,19.51,0,0,0,.7-3.05c.19-1.16.32-2.17.38-3s.16-1.75.22-2.87a.2.2,0,0,0-.22-.22h-7.81a1.43,1.43,0,0,1-1.44-1.42,1.45,1.45,0,0,1,1.44-1.43h10.93c.15,0,.22-.08.22-.25v-3.68a1.48,1.48,0,0,1,.44-1.07,1.46,1.46,0,0,1,1.08-.43,1.47,1.47,0,0,1,1.51,1.5v3.68a.22.22,0,0,0,.25.25h11.19A1.36,1.36,0,0,1,418.36,128.27Z"/><path class="cls-2" d="M437.45,150.09a1.86,1.86,0,0,1-1.84-1.84V128.38a1.75,1.75,0,0,1,.55-1.3,1.73,1.73,0,0,1,1.29-.55h0a1.74,1.74,0,0,1,1.31.55,1.81,1.81,0,0,1,.53,1.3v18.34a.22.22,0,0,0,.25.25h8.12a1.57,1.57,0,0,1,1.13.45,1.55,1.55,0,0,1,0,2.22,1.57,1.57,0,0,1-1.13.45Z"/><path class="cls-2" d="M457.43,128.58a2.45,2.45,0,0,1-1.69.61,2.37,2.37,0,0,1-1.67-.61,2,2,0,0,1-.66-1.55,2.07,2.07,0,0,1,.66-1.58,2.37,2.37,0,0,1,1.67-.61,2.45,2.45,0,0,1,1.69.61,2.08,2.08,0,0,1,.67,1.58A2,2,0,0,1,457.43,128.58Zm-.39,21a1.83,1.83,0,0,1-3.13-1.28v-14a1.77,1.77,0,0,1,.53-1.28,1.86,1.86,0,0,1,2.6,0,1.77,1.77,0,0,1,.53,1.28v14A1.75,1.75,0,0,1,457,149.56Z"/><path class="cls-2" d="M467,149.56a1.83,1.83,0,0,1-3.12-1.28V134a1.43,1.43,0,0,1,.43-1.06,1.48,1.48,0,0,1,1.07-.44,1.71,1.71,0,0,1,1.14.42,1.57,1.57,0,0,1,.54,1.08l.1.88a.09.09,0,0,0,.08.06.09.09,0,0,0,.07,0,13,13,0,0,1,2.77-2.13,6.15,6.15,0,0,1,3-.75q5.4,0,5.4,7v9.22a1.79,1.79,0,0,1-.53,1.31,1.74,1.74,0,0,1-1.3.53,1.8,1.8,0,0,1-1.31-.53,1.77,1.77,0,0,1-.55-1.31v-8.78a5.79,5.79,0,0,0-.7-3.27,2.6,2.6,0,0,0-2.26-1,4.12,4.12,0,0,0-2,.51,11.61,11.61,0,0,0-2.12,1.71.64.64,0,0,0-.16.4v10.44A1.71,1.71,0,0,1,467,149.56Z"/><path class="cls-2" d="M492,150.5a8.29,8.29,0,0,1-6.16-2.47,9.15,9.15,0,0,1-2.44-6.72,10.77,10.77,0,0,1,.68-3.84,8.38,8.38,0,0,1,1.79-2.95,8.23,8.23,0,0,1,2.57-1.83,7.06,7.06,0,0,1,3-.66,6.51,6.51,0,0,1,5.31,2.27,9.27,9.27,0,0,1,1.87,6.11v0a1.78,1.78,0,0,1-.62,1.28,2.08,2.08,0,0,1-1.41.53H487.2c-.15,0-.21.08-.19.25a5.85,5.85,0,0,0,1.7,3.77,5.25,5.25,0,0,0,3.71,1.36,7.32,7.32,0,0,0,3-.66,1.3,1.3,0,0,1,.62-.16,1,1,0,0,1,.38.07,1.36,1.36,0,0,1,.81.62,1.53,1.53,0,0,1,.16.66,2.31,2.31,0,0,1,0,.37,1.23,1.23,0,0,1-.66.78A10.25,10.25,0,0,1,492,150.5Zm-5-11a.17.17,0,0,0,.19.19h8a.2.2,0,0,0,.22-.22,5.35,5.35,0,0,0-1.07-3.37,3.51,3.51,0,0,0-2.87-1.19,4.07,4.07,0,0,0-2.91,1.19A4.67,4.67,0,0,0,487,139.53Z"/><path class="cls-2" d="M138.7,194.53c0,.17.08.25.22.25H149a1.38,1.38,0,0,1,1,.41,1.3,1.3,0,0,1,.42,1,1.44,1.44,0,0,1-1.4,1.4H123.83a1.3,1.3,0,0,1-1-.42,1.38,1.38,0,0,1-.41-1,1.4,1.4,0,0,1,1.38-1.38h11.5c.15,0,.22-.08.22-.25v-3.94c0-.16-.07-.25-.22-.25h-7a.38.38,0,0,0-.34.22c-.59.92-1.16,1.76-1.72,2.53a1.69,1.69,0,0,1-1.1.66h-.31a1.87,1.87,0,0,1-.94-.25,1.15,1.15,0,0,1-.59-.91.57.57,0,0,1,0-.18,1.27,1.27,0,0,1,.31-.85,23.63,23.63,0,0,0,3.88-6.65,1.62,1.62,0,0,1,.81-.91,1.54,1.54,0,0,1,.81-.22,2.43,2.43,0,0,1,.38,0,1.49,1.49,0,0,1,.9.69,1.28,1.28,0,0,1,.07,1.09c-.25.63-.51,1.23-.79,1.82a.16.16,0,0,0,0,.15.15.15,0,0,0,.11.07h5.5a.2.2,0,0,0,.22-.22v-2.57a1.48,1.48,0,0,1,.47-1.11,1.54,1.54,0,0,1,1.11-.45,1.57,1.57,0,0,1,1.11.45,1.51,1.51,0,0,1,.46,1.11v2.57a.2.2,0,0,0,.22.22h7.88a1.37,1.37,0,0,1,1.37,1.37,1.25,1.25,0,0,1-.4.95,1.36,1.36,0,0,1-1,.39h-7.88c-.14,0-.22.09-.22.25Zm-9.89,17.85a1.46,1.46,0,0,1-1.06.43,1.48,1.48,0,0,1-1.06-.43,1.45,1.45,0,0,1-.45-1.07v-9.12a1.76,1.76,0,0,1,.54-1.31,1.8,1.8,0,0,1,1.3-.54h17a1.8,1.8,0,0,1,1.3.54,1.76,1.76,0,0,1,.54,1.31v9a1.52,1.52,0,0,1-.45,1.11,1.51,1.51,0,0,1-1.11.45h-.09a1.43,1.43,0,0,1-1.44-1.44c0-.12-.06-.18-.19-.18H129.45a.16.16,0,0,0-.18.18A1.42,1.42,0,0,1,128.81,212.38Zm15-9.07c0-.14-.08-.22-.25-.22H129.49a.2.2,0,0,0-.22.22v4.82c0,.16.07.25.22.25h14.09a.22.22,0,0,0,.25-.25Z"/><path class="cls-2" d="M170.76,196.33a1.39,1.39,0,0,1,.41,1,1.4,1.4,0,0,1-1.41,1.39h-4.22c-.14,0-.23.08-.25.25-.12.79-.2,1.24-.22,1.34a.46.46,0,0,0,.13.41c1,1,2.65,2.8,5,5.41a1.87,1.87,0,0,1,.47,1.28,2,2,0,0,1-.41,1.22,1.18,1.18,0,0,1-.94.43h-.06a1.09,1.09,0,0,1-1-.5c-1.19-1.62-2.46-3.22-3.81-4.78a.15.15,0,0,0-.13-.05.18.18,0,0,0-.09.08,17.45,17.45,0,0,1-5.06,7.78,1.39,1.39,0,0,1-.91.35l-.22,0a1.6,1.6,0,0,1-1.06-.57,1.37,1.37,0,0,1-.38-1,1.42,1.42,0,0,1,.47-1.07A15.82,15.82,0,0,0,162.29,199c0-.17,0-.25-.22-.25h-4.43a1.36,1.36,0,0,1-1-.41,1.31,1.31,0,0,1-.41-1,1.35,1.35,0,0,1,.41-1,1.33,1.33,0,0,1,1-.42h4.62c.17,0,.25-.08.25-.22v-5.25a.22.22,0,0,0-.25-.25h-1.47a.29.29,0,0,0-.31.22,24.1,24.1,0,0,1-1.5,3.15,1.26,1.26,0,0,1-.91.6,1,1,0,0,1-.25,0,1.37,1.37,0,0,1-.81-.28,1.48,1.48,0,0,1-.62-.94,1.15,1.15,0,0,1,0-.31,1.44,1.44,0,0,1,.25-.78,25.59,25.59,0,0,0,2.66-7.19,1.33,1.33,0,0,1,.63-.91,1.41,1.41,0,0,1,.81-.25l.28,0a1.36,1.36,0,0,1,.94.6,1.41,1.41,0,0,1,.18,1.09c-.16.67-.33,1.31-.5,1.94a.12.12,0,0,0,0,.15.18.18,0,0,0,.15.07h7.1a1.38,1.38,0,0,1,1,.4,1.41,1.41,0,0,1,0,2,1.39,1.39,0,0,1-1,.41h-3.13a.22.22,0,0,0-.25.25v5.25c0,.14.08.22.25.22h4A1.33,1.33,0,0,1,170.76,196.33Zm1.34-8.49a1.78,1.78,0,0,1,.55-1.31A1.83,1.83,0,0,1,174,186h8a1.83,1.83,0,0,1,1.3.53,1.77,1.77,0,0,1,.54,1.31v22a1.47,1.47,0,0,1-1.5,1.5,1.45,1.45,0,0,1-1.06-.43,1.48,1.48,0,0,1-.44-1.07v-.31a.22.22,0,0,0-.25-.25h-5.34a.22.22,0,0,0-.25.25v.72a1.4,1.4,0,0,1-.42,1,1.44,1.44,0,0,1-2,0,1.41,1.41,0,0,1-.43-1ZM175,206.28c0,.15.08.22.25.22h5.34c.17,0,.25-.07.25-.22V189.06a.22.22,0,0,0-.25-.25h-5.34a.22.22,0,0,0-.25.25Z"/><path class="cls-3" d="M211.5,203.28a1.88,1.88,0,0,1-1.84-1.84V184.69a1.73,1.73,0,0,1,.55-1.31,1.76,1.76,0,0,1,1.29-.54h7a1.71,1.71,0,0,1,1.71,1.72,1.63,1.63,0,0,1-.5,1.22,1.66,1.66,0,0,1-1.21.5h-4.85a.22.22,0,0,0-.25.25v14.91a1.79,1.79,0,0,1-.53,1.29,1.73,1.73,0,0,1-1.31.55Z"/><path class="cls-3" d="M248.62,198.28a2.19,2.19,0,0,1,1.19-.9,2.07,2.07,0,0,1,.66-.1,1.91,1.91,0,0,1,.78.16,1.47,1.47,0,0,1,.9,1,1.39,1.39,0,0,1,.1.5,1.49,1.49,0,0,1-.25.81,30.28,30.28,0,0,1-4.22,5.28.3.3,0,0,0-.06.38q1.34,3.7,2.72,3.71c.54,0,.91-1.15,1.12-3.46a.81.81,0,0,1,.53-.75,1,1,0,0,1,.41-.1.89.89,0,0,1,.56.22l.13.09a3.26,3.26,0,0,1,1.09,1.19,2.23,2.23,0,0,1,.28,1.5,8.27,8.27,0,0,1-1.5,4.1,3.87,3.87,0,0,1-3,1.09c-2.14,0-4-1.62-5.4-4.84-.07-.15-.16-.17-.29-.07a31.3,31.3,0,0,1-4.12,2.88,2.12,2.12,0,0,1-1,.25,2,2,0,0,1-.47-.06,2.28,2.28,0,0,1-1.25-.82l-.19-.22a1.35,1.35,0,0,1-.34-.9,1.41,1.41,0,0,1,0-.28,1.23,1.23,0,0,1,.69-1,31.78,31.78,0,0,0,5.31-3.56.32.32,0,0,0,.13-.38,61.2,61.2,0,0,1-1.57-8.09.22.22,0,0,0-.25-.25h-6c-.14,0-.22.08-.22.25v3.15c0,.17.08.24.22.22l3-.56a1.73,1.73,0,0,1,.32,0,1.35,1.35,0,0,1,.9.34,1.5,1.5,0,0,1,.63,1.13v.15a2,2,0,0,1-.38,1.16,2.08,2.08,0,0,1-1.19.75l-3.28.66a.27.27,0,0,0-.22.28v5.25a5.87,5.87,0,0,1-.39,2.4,2.73,2.73,0,0,1-1.36,1.32,11.05,11.05,0,0,1-3.9.71h-.1a2,2,0,0,1-1.31-.5,2.73,2.73,0,0,1-.9-1.28c-.05-.12-.1-.25-.16-.37a1.67,1.67,0,0,1-.06-.44,1.11,1.11,0,0,1,.22-.66,1.06,1.06,0,0,1,.93-.53H229q.93,0,1.53,0a1,1,0,0,0,.61-.14.64.64,0,0,0,.17-.51V204c0-.17-.07-.23-.22-.19l-1.62.31-2.1.44a2.31,2.31,0,0,1-.37,0,1.88,1.88,0,0,1-1-.31,1.75,1.75,0,0,1-.82-1.16l-.06-.25a1.59,1.59,0,0,1-.06-.43,1.53,1.53,0,0,1,.28-.91,1.71,1.71,0,0,1,1.16-.75l4.59-.75a.28.28,0,0,0,.25-.28v-3.81a.22.22,0,0,0-.25-.25h-4a1.81,1.81,0,0,1-1.81-1.82,1.73,1.73,0,0,1,.53-1.28,1.75,1.75,0,0,1,1.28-.53h4c.17,0,.25-.07.25-.22v-3.18c0-.15-.08-.21-.25-.19l-3.19.47h-.25a1.84,1.84,0,0,1-1.06-.35,2,2,0,0,1-.81-1.09,1.42,1.42,0,0,1-.1-.47,1.38,1.38,0,0,1,.19-.69,1.23,1.23,0,0,1,.94-.65,90.46,90.46,0,0,0,9.25-1.91,2.45,2.45,0,0,1,.75-.12,2.94,2.94,0,0,1,.84.12,2.61,2.61,0,0,1,1.32.91l.28.34a1.2,1.2,0,0,1,.28.75,1.56,1.56,0,0,1-.06.41,1.17,1.17,0,0,1-.85.78c-1,.25-2,.5-3.22.75a.25.25,0,0,0-.22.28v3.84a.2.2,0,0,0,.22.22h5.69a.19.19,0,0,0,.22-.22q-.34-3.9-.34-6.75a1.69,1.69,0,0,1,.53-1.25,1.75,1.75,0,0,1,1.28-.53h.31a1.75,1.75,0,0,1,1.28.53,1.88,1.88,0,0,1,.56,1.32q0,3.27.32,6.68c0,.15.08.22.25.22h6.65a1.82,1.82,0,0,1,0,3.63h-6.28c-.14,0-.21.08-.19.25.23,1.75.51,3.39.85,4.93,0,0,0,.07.08.08a.09.09,0,0,0,.11,0A27.52,27.52,0,0,0,248.62,198.28Zm3.94-10.78a1.52,1.52,0,0,1,.38,1.34,1.74,1.74,0,0,1-.79,1.19l0,0a1.75,1.75,0,0,1-1,.32,2.33,2.33,0,0,1-.37,0,2,2,0,0,1-1.19-.75,27,27,0,0,0-2.25-2.56,1.36,1.36,0,0,1-.41-1,1.3,1.3,0,0,1,.6-1.15,2,2,0,0,1,1.25-.41h.15a2.16,2.16,0,0,1,1.32.59A30.32,30.32,0,0,1,252.56,187.5Z"/><path class="cls-3" d="M288.13,200.69a1.45,1.45,0,0,1,.46,1.08,1.5,1.5,0,0,1-.46,1.09,1.47,1.47,0,0,1-1.08.45h-4.37a.34.34,0,0,0-.34.22,14.77,14.77,0,0,1-2.69,3.72.14.14,0,0,0,0,.13.14.14,0,0,0,.08.09c2.25.62,4.28,1.24,6.09,1.84a1.26,1.26,0,0,1,.85.88.9.9,0,0,1,.09.4,1.29,1.29,0,0,1-.28.79l-.13.15a2.39,2.39,0,0,1-1.28.88,2.71,2.71,0,0,1-.68.09,2.22,2.22,0,0,1-.85-.16q-3.35-1.25-7.34-2.43a.61.61,0,0,0-.44,0q-4.31,2.06-12.53,2.81l-.22,0a2,2,0,0,1-1.19-.4,2.73,2.73,0,0,1-1-1.16,1.5,1.5,0,0,1-.09-.77,1.07,1.07,0,0,1,.34-.61,1.19,1.19,0,0,1,.69-.28,46.42,46.42,0,0,0,8.5-1.12.22.22,0,0,0,.05-.08s0-.05-.05-.05c-1.19-.29-2.12-.51-2.81-.65a.06.06,0,0,0-.09,0,.65.65,0,0,1-.82.25l-1.43-.44a1.24,1.24,0,0,1-.85-.84,1.35,1.35,0,0,1-.06-.41,1.15,1.15,0,0,1,.28-.75c.48-.65,1-1.31,1.44-2a.13.13,0,0,0,0-.12.1.1,0,0,0-.1-.07h-4.9a1.47,1.47,0,0,1-1.08-.45,1.5,1.5,0,0,1-.45-1.09,1.44,1.44,0,0,1,.45-1.08,1.5,1.5,0,0,1,1.08-.44h6.94a.4.4,0,0,0,.37-.22c.25-.42.59-1,1-1.65a.15.15,0,0,0,0-.13.12.12,0,0,0-.12-.06h-5.85a1.79,1.79,0,0,1-1.31-.53,1.83,1.83,0,0,1-.53-1.32v-5.28a1.79,1.79,0,0,1,.53-1.29,1.73,1.73,0,0,1,1.31-.55h4.85c.16,0,.25-.07.25-.22v-1.37c0-.15-.09-.22-.25-.22h-6.53a1.66,1.66,0,0,1-1.66-1.66,1.57,1.57,0,0,1,.48-1.16,1.65,1.65,0,0,1,1.18-.46h24.59a1.57,1.57,0,0,1,1.62,1.62,1.61,1.61,0,0,1-.46,1.17,1.54,1.54,0,0,1-1.16.49h-6.81a.19.19,0,0,0-.22.22V189a.19.19,0,0,0,.22.22H285a1.86,1.86,0,0,1,1.84,1.84v5.28a1.8,1.8,0,0,1-.54,1.32,1.83,1.83,0,0,1-1.3.53h-11a.36.36,0,0,0-.34.22c-.15.25-.49.79-1,1.62a.17.17,0,0,0,0,.14.11.11,0,0,0,.1.08h14.4A1.5,1.5,0,0,1,288.13,200.69Zm-22.89-8.44c-.17,0-.25.07-.25.22V195a.22.22,0,0,0,.25.25h2.88a.22.22,0,0,0,.25-.25v-2.5c0-.15-.09-.22-.25-.22Zm5.41,11.06a.45.45,0,0,0-.38.19l-.81,1.19c-.08.12,0,.21.09.25q2.7.56,5.5,1.28a.49.49,0,0,0,.41-.06,10.38,10.38,0,0,0,2.63-2.66.13.13,0,0,0,0-.12s-.06-.07-.1-.07Zm1.53-15.9c-.17,0-.25.07-.25.22V189c0,.15.08.22.25.22h3.16c.14,0,.21-.07.21-.22v-1.37c0-.15-.07-.22-.21-.22Zm-.25,7.56a.22.22,0,0,0,.25.25h3.16c.14,0,.21-.08.21-.25v-2.5c0-.15-.07-.22-.21-.22h-3.16c-.17,0-.25.07-.25.22Zm11.06-2.5c0-.15-.08-.22-.25-.22h-3.37a.19.19,0,0,0-.22.22V195c0,.17.07.25.22.25h3.37A.22.22,0,0,0,283,195Z"/><path class="cls-3" d="M298.45,194.53a1.56,1.56,0,0,1-1.12-.45,1.52,1.52,0,0,1-.47-1.14s0,0-.05-.05a.06.06,0,0,0-.07,0l-.57.59a1.28,1.28,0,0,1-.93.41H295a1.56,1.56,0,0,1-1.07-.66,2.07,2.07,0,0,1-.4-1.25,1.85,1.85,0,0,1,.53-1.34,23.11,23.11,0,0,0,4.19-6.22,2.17,2.17,0,0,1,.86-1,2.25,2.25,0,0,1,1.26-.38,4,4,0,0,1,2.69,1,37.4,37.4,0,0,1,3.78,3.63,2.12,2.12,0,0,1,.56,1.5,2.38,2.38,0,0,1-.47,1.46l-.21.32a1.2,1.2,0,0,1-1,.56,1.29,1.29,0,0,1-1.09-.56,30,30,0,0,0-3.47-3.88c-.12-.1-.22-.09-.28,0a31.7,31.7,0,0,1-2.69,4.13.1.1,0,0,0,0,.12.13.13,0,0,0,.13.07h5.09a1.48,1.48,0,0,1,1.11.46,1.59,1.59,0,0,1,.45,1.13,1.54,1.54,0,0,1-1.56,1.56Zm6.13,2.1a1.79,1.79,0,0,1,1.3.53,1.76,1.76,0,0,1,.54,1.31v7a6,6,0,0,1-.23,1.84,1.91,1.91,0,0,1-.89,1.07,4.67,4.67,0,0,1-2,.53h-.13a1.62,1.62,0,0,1-1.09-.41,2.18,2.18,0,0,1-.75-1.19,1.11,1.11,0,0,1-.06-.34,1.25,1.25,0,0,1,1.18-1.22h.32c.14,0,.24,0,.28-.08a.57.57,0,0,0,.06-.32v-5.22c0-.17-.07-.25-.22-.25H300.7a.22.22,0,0,0-.25.25v11a1.69,1.69,0,0,1-2.89,1.18,1.65,1.65,0,0,1-.48-1.18v-11a.22.22,0,0,0-.25-.25h-.78a1.53,1.53,0,0,1-1.16-.49,1.65,1.65,0,0,1,0-2.31,1.55,1.55,0,0,1,1.16-.48Zm4.91,11.06a2.81,2.81,0,0,1,1.46-.53l.19,0a2.33,2.33,0,0,1,1.28.37l0,0a1.33,1.33,0,0,1,.63,1.19,1.26,1.26,0,0,1-.5,1,25.6,25.6,0,0,1-4.19,2.53,2.25,2.25,0,0,1-1,.22,2.14,2.14,0,0,1-.5-.06,2.7,2.7,0,0,1-1.37-.75,1,1,0,0,1-.35-.78.89.89,0,0,1,0-.22,1.09,1.09,0,0,1,.66-.85A22,22,0,0,0,309.49,207.69Zm-1.69-16.28a1.81,1.81,0,0,1,1.84-1.85h2.6c.14,0,.22-.08.25-.25.08-.39.16-.93.25-1.62,0-.17-.05-.25-.19-.25H308.3a1.56,1.56,0,0,1-1.13-.47,1.58,1.58,0,0,1,0-2.25,1.56,1.56,0,0,1,1.13-.47h13a1.53,1.53,0,0,1,1.12.47,1.58,1.58,0,0,1,0,2.25,1.53,1.53,0,0,1-1.12.47h-4.16a.29.29,0,0,0-.31.22c-.17.58-.34,1.14-.53,1.68a.13.13,0,0,0,0,.14.15.15,0,0,0,.13.08h3.68a1.81,1.81,0,0,1,1.85,1.85v13.22a1.8,1.8,0,0,1-.53,1.31,1.83,1.83,0,0,1-1.32.53H309.64a1.79,1.79,0,0,1-1.31-.53,1.76,1.76,0,0,1-.53-1.31Zm10.34,3c.17,0,.25-.08.25-.22v-1.57c0-.14-.08-.21-.25-.21h-6.65c-.17,0-.25.07-.25.21v1.57c0,.14.08.22.25.22Zm0,4.65a.22.22,0,0,0,.25-.25v-1.56a.22.22,0,0,0-.25-.25h-6.65a.22.22,0,0,0-.25.25v1.56a.22.22,0,0,0,.25.25Zm0,4.66c.17,0,.25-.08.25-.22v-1.59c0-.15-.08-.22-.25-.22h-6.65c-.17,0-.25.07-.25.22v1.59c0,.14.08.22.25.22Zm-1.25,5.94a1.2,1.2,0,0,1-.47-1,1.11,1.11,0,0,1,.5-1,2.53,2.53,0,0,1,1.42-.44,2.42,2.42,0,0,1,1.4.44c1,.69,1.9,1.33,2.65,1.94a1.3,1.3,0,0,1,.5,1.06,1.45,1.45,0,0,1-.59,1.22h0a2,2,0,0,1-1.22.4.69.69,0,0,1-.22,0,2.32,2.32,0,0,1-1.38-.59C318.72,211.06,317.87,210.38,316.89,209.63Z"/><path class="cls-3" d="M353.23,187.06a13.25,13.25,0,0,1,2.53.19,1.53,1.53,0,0,1,.84.59,1.31,1.31,0,0,1,.28.82.57.57,0,0,1,0,.18q-1.07,9.28-4.34,15.29a.33.33,0,0,0,0,.4,18.29,18.29,0,0,0,4.06,4,1.54,1.54,0,0,1,.66,1.1v.18a1.49,1.49,0,0,1-.38,1,3.12,3.12,0,0,1-.25.35,2.22,2.22,0,0,1-1.25.75,1.19,1.19,0,0,1-.37.06,1.68,1.68,0,0,1-1-.34,19.4,19.4,0,0,1-3.84-3.69c-.11-.13-.2-.13-.28,0a23.42,23.42,0,0,1-4,3.72,1.66,1.66,0,0,1-1,.31,1.26,1.26,0,0,1-.38-.06,2,2,0,0,1-1.22-.78,12.41,12.41,0,0,0-.9-1.1.15.15,0,0,0-.11,0,.07.07,0,0,0-.05.07V211a1.73,1.73,0,0,1-.55,1.31,1.79,1.79,0,0,1-1.31.54,1.77,1.77,0,0,1-1.3-.54,1.79,1.79,0,0,1-.53-1.31v-3c0-.17-.08-.23-.25-.19q-3.46.6-8.31,1.35h-.31a1.87,1.87,0,0,1-1.07-.35,1.89,1.89,0,0,1-.78-1.18l0-.19a2.26,2.26,0,0,1,0-.35,1.65,1.65,0,0,1,1.5-1.68c.31,0,.6-.06.88-.1s.25-.1.25-.25V188.53c0-.14-.09-.22-.25-.22H330a1.77,1.77,0,0,1-1.24-3,1.69,1.69,0,0,1,1.24-.52h12.47a1.73,1.73,0,0,1,1.31.55,1.81,1.81,0,0,1,.53,1.3v.18a.22.22,0,0,0,.25.25Zm-14.66,1.47c0-.14-.08-.22-.25-.22h-4.06c-.17,0-.25.08-.25.22v2.56a.22.22,0,0,0,.25.25h4.06a.22.22,0,0,0,.25-.25Zm-4.31,6.25c-.17,0-.25.07-.25.22v2.72a.22.22,0,0,0,.25.25h4.06a.22.22,0,0,0,.25-.25V195c0-.15-.08-.22-.25-.22Zm0,6.56a.22.22,0,0,0-.25.25v3c0,.14.08.2.25.18l1.89-.25,2.17-.28a.25.25,0,0,0,.25-.28v-2.41a.22.22,0,0,0-.25-.25Zm8.22-13a.2.2,0,0,0-.22.22v20.6a.12.12,0,0,0,.06.1.11.11,0,0,0,.13,0,17.31,17.31,0,0,0,5.18-4.78.33.33,0,0,0,0-.41,42.76,42.76,0,0,1-3.82-10.65,3.37,3.37,0,0,1,0-.44,1.78,1.78,0,0,1,.28-.94,1.7,1.7,0,0,1,1.16-.81h0l.41,0a1.65,1.65,0,0,1,1,.31,1.77,1.77,0,0,1,.81,1.16,36.36,36.36,0,0,0,2.47,7.47.11.11,0,0,0,.11.06.13.13,0,0,0,.11-.06,37.73,37.73,0,0,0,2.59-9.1c0-.14,0-.22-.19-.22H345.2a1.78,1.78,0,0,1-1.3-.54,1.81,1.81,0,0,1-.55-1.3v-.44a.2.2,0,0,0-.22-.22Z"/><path class="cls-3" d="M371.66,189c-.15,0-.22.08-.22.25v1.72c0,.16.07.25.22.25h3.53a1.6,1.6,0,0,1,1.6,1.59,1.6,1.6,0,0,1-1.6,1.6h-.94v0a1,1,0,0,1,.64.53.86.86,0,0,1,0,.81c-.6,1.4-.91,2.1-.91,2.13a.19.19,0,0,0,0,.15.14.14,0,0,0,.13.06h.56a1.6,1.6,0,0,1,1.6,1.6,1.6,1.6,0,0,1-1.6,1.59h-3c-.15,0-.22.08-.22.25v2a.19.19,0,0,0,.22.22h2.69a1.61,1.61,0,0,1,0,3.22h-2.69a.19.19,0,0,0-.22.22V211a1.77,1.77,0,0,1-3,1.24,1.69,1.69,0,0,1-.52-1.24v-3.84a.19.19,0,0,0-.22-.22h-2.94a1.58,1.58,0,0,1-1.15-.47,1.62,1.62,0,0,1,0-2.28,1.58,1.58,0,0,1,1.15-.47h2.94a.19.19,0,0,0,.22-.22v-2c0-.17-.07-.25-.22-.25h-3.22a1.5,1.5,0,0,1-1.12-.47,1.53,1.53,0,0,1-.47-1.12,1.56,1.56,0,0,1,.47-1.13,1.54,1.54,0,0,1,1.12-.47h.6q.21,0,.18-.21a14,14,0,0,0-.65-2.22,1,1,0,0,1,.06-.78.85.85,0,0,1,.59-.47v0h-1.43a1.55,1.55,0,0,1-1.13-.47,1.56,1.56,0,0,1-.47-1.13,1.53,1.53,0,0,1,.47-1.12,1.51,1.51,0,0,1,1.13-.47h3.87c.15,0,.22-.09.22-.25v-1.72c0-.17-.07-.25-.22-.25h-2.78a1.51,1.51,0,0,1-1.11-.45,1.54,1.54,0,0,1-.45-1.11,1.55,1.55,0,0,1,1.56-1.57h2.78c.15,0,.22-.08.22-.25v-.78a1.65,1.65,0,0,1,.52-1.23,1.76,1.76,0,0,1,3,1.23v.78c0,.17.07.25.22.25H374a1.54,1.54,0,0,1,1.09.46,1.49,1.49,0,0,1,.47,1.11A1.57,1.57,0,0,1,374,189Zm.22,9.12h0s0,0,0,0a.84.84,0,0,1-.53-.43.76.76,0,0,1,0-.72c.31-.9.55-1.67.72-2.32,0,0,0-.08,0-.14a.15.15,0,0,0-.14-.07h-4.41a.11.11,0,0,0-.12.07.17.17,0,0,0,0,.14,18.49,18.49,0,0,1,.81,2.29.92.92,0,0,1-.11.73,1,1,0,0,1-.61.45v0Zm16.72-2.81a1.73,1.73,0,0,1,.47-.06,2,2,0,0,1,.65.12l.57.22a1.35,1.35,0,0,1,.76.61,1.3,1.3,0,0,1,.17,1,32.17,32.17,0,0,1-3,9.09.29.29,0,0,0,0,.37,16.93,16.93,0,0,0,2.72,2.38,1.43,1.43,0,0,1,.66,1.06v.22a1.54,1.54,0,0,1-.35,1l-.15.19a2.09,2.09,0,0,1-1.22.75,1.16,1.16,0,0,1-.34.06,1.7,1.7,0,0,1-1-.34,18.9,18.9,0,0,1-2.32-2.19.19.19,0,0,0-.31,0,17.5,17.5,0,0,1-1.91,2.09,1.68,1.68,0,0,1-1.09.41h-.22a2,2,0,0,1-1.28-.66c-.15-.14-.29-.29-.44-.44a.14.14,0,0,0-.11,0s0,0,0,.08a1.61,1.61,0,0,1-.5,1.2,1.67,1.67,0,0,1-1.19.48h-.06a1.67,1.67,0,0,1-1.21-.5,1.63,1.63,0,0,1-.51-1.21V186.19a1.76,1.76,0,0,1,.54-1.31,1.8,1.8,0,0,1,1.3-.54h9.66a1.76,1.76,0,0,1,1.31.54,1.79,1.79,0,0,1,.53,1.31v4.15a4.71,4.71,0,0,1-.34,2,2.17,2.17,0,0,1-1.25,1.07,9.73,9.73,0,0,1-3.56.53h-.07a2,2,0,0,1-1.25-.44,2.6,2.6,0,0,1-.84-1.19,1.59,1.59,0,0,1-.06-.43,1.11,1.11,0,0,1,.22-.66,1,1,0,0,1,.9-.47q1,0,2.1,0a1,1,0,0,0,.51-.14.43.43,0,0,0,.14-.36v-2.37a.22.22,0,0,0-.25-.25H381c-.15,0-.22.08-.22.25v7.15c0,.17.07.25.22.25h7.4A.38.38,0,0,0,388.6,195.28Zm-7.72,4.56s0,0,0,0a0,0,0,0,0,0,0v9.68c0,.07,0,.1.06.11a.17.17,0,0,0,.12,0,17.08,17.08,0,0,0,2.75-2.94.3.3,0,0,0,0-.38A33.19,33.19,0,0,1,380.88,199.84Zm6.53-1.31c0-.14,0-.22-.19-.22h-3.5a.16.16,0,0,0-.14.08.14.14,0,0,0,0,.14,23.57,23.57,0,0,0,2.09,4.56.09.09,0,0,0,.11,0,.15.15,0,0,0,.11-.08A23.88,23.88,0,0,0,387.41,198.53Z"/><path class="cls-3" d="M414.37,194.06c0,.15.09.22.25.22h9.28a1.78,1.78,0,0,1,1.79,1.77,1.76,1.76,0,0,1-1.79,1.76H399.25a1.75,1.75,0,0,1-1.27-.51,1.77,1.77,0,0,1,1.27-3h10.87a.19.19,0,0,0,.22-.22v-3.22c0-.16-.07-.25-.22-.25h-6.53a.39.39,0,0,0-.34.22,17,17,0,0,1-1.35,2,1.74,1.74,0,0,1-1.25.75h-.31a2.18,2.18,0,0,1-1.15-.31,1.35,1.35,0,0,0-.29-.16,1.42,1.42,0,0,1-.71-1,.73.73,0,0,1,0-.25,1.52,1.52,0,0,1,.35-.94,23.39,23.39,0,0,0,3.56-6.06,2.21,2.21,0,0,1,1-1.09,1.81,1.81,0,0,1,.94-.25,2.49,2.49,0,0,1,.5.06l.22.06a1.62,1.62,0,0,1,1.06.85,1.38,1.38,0,0,1,.22.72,1.57,1.57,0,0,1-.13.62c-.16.38-.34.76-.53,1.16a.15.15,0,0,0,0,.14.16.16,0,0,0,.14.08h4.62c.15,0,.22-.09.22-.25v-2.07a1.73,1.73,0,0,1,.55-1.31,1.81,1.81,0,0,1,1.3-.53h.34a1.79,1.79,0,0,1,1.31.53,1.75,1.75,0,0,1,.53,1.31v2.07a.23.23,0,0,0,.25.25H422a1.67,1.67,0,0,1,1.23.5,1.71,1.71,0,0,1,0,2.46,1.67,1.67,0,0,1-1.23.5h-7.35a.23.23,0,0,0-.25.25ZM403,213a1.83,1.83,0,0,1-1.3-.53,1.78,1.78,0,0,1-.55-1.31v-9.25a1.88,1.88,0,0,1,1.85-1.85h17.75a1.77,1.77,0,0,1,1.31.55,1.81,1.81,0,0,1,.53,1.3v9.15a1.83,1.83,0,0,1-.53,1.32,1.79,1.79,0,0,1-1.31.53h-.94a1.29,1.29,0,0,1-.92-.38,1.24,1.24,0,0,1-.39-.94c0-.1-.05-.15-.16-.15H405.25a.17.17,0,0,0-.19.19,1.4,1.4,0,0,1-1.37,1.37Zm15.5-9.16c0-.16-.08-.25-.22-.25h-13a.22.22,0,0,0-.25.25v3.85c0,.14.08.22.25.22h13a.2.2,0,0,0,.22-.22Z"/><path class="cls-3" d="M439.65,192.59a1.76,1.76,0,0,1,1.29.54,1.73,1.73,0,0,1,.55,1.31v16.75a1.73,1.73,0,0,1-.55,1.31,1.79,1.79,0,0,1-1.29.53h-7.06a1.67,1.67,0,0,1-1.22-.5,1.74,1.74,0,0,1,0-2.44,1.67,1.67,0,0,1,1.22-.5h4.84a.22.22,0,0,0,.25-.25v-14.9a1.79,1.79,0,0,1,.53-1.31,1.76,1.76,0,0,1,1.31-.54Z"/><rect class="cls-4" x="95.24" y="267.71" width="397.48" height="103.05" rx="51.53"/><path class="cls-5" d="M165.72,323.74a1.78,1.78,0,0,1,.68,1.44,2.05,2.05,0,0,1-.76,1.64l-.64.48a2.43,2.43,0,0,1-1.48.52h-.16a2.49,2.49,0,0,1-1.6-.68.54.54,0,0,0-.48-.18l-9.39.34a.28.28,0,0,0-.28.31v6.8a2.23,2.23,0,0,1-.7,1.68,2.32,2.32,0,0,1-1.66.68H148a2.32,2.32,0,0,1-1.66-.68,2.26,2.26,0,0,1-.7-1.68v-6.59a.24.24,0,0,0-.28-.28l-5.39.2s0,0,0,0a.12.12,0,0,0,0,.08l2.07.75a1.45,1.45,0,0,1,1,1.12,1.22,1.22,0,0,1,0,.32,1.36,1.36,0,0,1-.48,1,36,36,0,0,1-6.39,4.44,3,3,0,0,1-1.44.36,3.28,3.28,0,0,1-.52,0,3.19,3.19,0,0,1-1.8-.92l-1-1a1.36,1.36,0,0,1-.48-1,1,1,0,0,1,0-.28,1.27,1.27,0,0,1,.84-1,25.17,25.17,0,0,0,6.16-3.64.07.07,0,0,0,0-.11.12.12,0,0,0-.12-.08l-4.48.12h-.08a2.33,2.33,0,0,1-1.64-.64,2.52,2.52,0,0,1-.8-1.68V325a2.07,2.07,0,0,1,.58-1.66,2.13,2.13,0,0,1,1.62-.7h6.48a1,1,0,0,0,.56-.16l.76-.4a.22.22,0,0,0,.1-.14.2.2,0,0,0-.06-.18,52.39,52.39,0,0,0-4.72-3,1.25,1.25,0,0,1-.2-2,.11.11,0,0,0,0-.1s0-.06-.06-.06h-2.88a2.28,2.28,0,0,1-1.66-.68,2.23,2.23,0,0,1-.7-1.68V310a2.39,2.39,0,0,1,2.36-2.36h12.27a.25.25,0,0,0,.28-.28v-1.12c0-.21-.09-.32-.28-.32H133.58a2.32,2.32,0,0,1-2.36-2.36v-.36a2.32,2.32,0,0,1,.68-1.66,2.26,2.26,0,0,1,1.68-.7h11.75a.24.24,0,0,0,.28-.28v-.32a2.39,2.39,0,0,1,2.36-2.36h1.2a2.3,2.3,0,0,1,1.66.7,2.26,2.26,0,0,1,.7,1.66v.32a.24.24,0,0,0,.28.28h12.07a2.26,2.26,0,0,1,1.68.7,2.32,2.32,0,0,1,.68,1.66v.36a2.32,2.32,0,0,1-2.36,2.36H151.81c-.19,0-.28.11-.28.32v1.12a.25.25,0,0,0,.28.28h12.71a2.39,2.39,0,0,1,2.36,2.36v4.23a2.23,2.23,0,0,1-.7,1.68,2.28,2.28,0,0,1-1.66.68h-1.2a2.36,2.36,0,0,1-2.36-2.36V312.9c0-.21-.09-.32-.28-.32H149.05s0,0,0,0a.07.07,0,0,0,0,.06.7.7,0,0,1,.42.58.74.74,0,0,1-.26.7c-1.63,1.36-3.21,2.59-4.76,3.68a.14.14,0,0,0-.06.16.24.24,0,0,0,.1.16c.46.29.87.57,1.24.84a.42.42,0,0,0,.52,0q3.24-2.19,5.56-4.08a3.86,3.86,0,0,1,1.92-.76,2.47,2.47,0,0,1,.36,0,3.42,3.42,0,0,1,1.64.44l1.12.6a1.4,1.4,0,0,1,.76,1.32,1.37,1.37,0,0,1-.6,1.16q-3.84,2.64-7.92,5c-.05,0-.07.06-.06.1a.09.09,0,0,0,.1.06l6.76-.08s0,0,.06-.06a.12.12,0,0,0,0-.1,1.59,1.59,0,0,1,0-2.52l.36-.28a3.22,3.22,0,0,1,1.87-.68h.12a3.07,3.07,0,0,1,1.8.56Q163.52,321.86,165.72,323.74Zm-29.1-11.16c-.19,0-.28.11-.28.32v3.32a.11.11,0,0,0,.08.12c.05,0,.09,0,.12,0l.84-.72a2.25,2.25,0,0,1,1.2-.52,1.65,1.65,0,0,1,.32,0,2.23,2.23,0,0,1,1,.24.19.19,0,0,0,.28,0c1-.82,1.83-1.65,2.63-2.48.06,0,.07-.06,0-.12a.12.12,0,0,0-.12-.08Zm18.43,18.67a1.41,1.41,0,0,1-.72-1.28,1.3,1.3,0,0,1,.68-1.2l.56-.4a4.08,4.08,0,0,1,2-.59h.12a3.89,3.89,0,0,1,1.91.47q3.48,2,5.92,3.56a1.63,1.63,0,0,1,0,2.68l-1,.68a3.13,3.13,0,0,1-1.76.52h-.16a3.25,3.25,0,0,1-1.88-.68Q158.44,333.33,155.05,331.25Z"/><path class="cls-5" d="M218.83,303a17.42,17.42,0,0,1,3.92.32,2.28,2.28,0,0,1,1.36.92,2.16,2.16,0,0,1,.44,1.28,1.11,1.11,0,0,1,0,.28q-1.2,11.91-5.16,19.59a.51.51,0,0,0,0,.52,23,23,0,0,0,4.72,4.63,1.77,1.77,0,0,1,.8,1.36,1,1,0,0,1,0,.24,1.89,1.89,0,0,1-.52,1.32,11.89,11.89,0,0,0-1.08,1.32,2.57,2.57,0,0,1-1.56,1,2.39,2.39,0,0,1-.44,0,2.25,2.25,0,0,1-1.28-.4,28.07,28.07,0,0,1-4.32-4.08q-.15-.24-.36,0a29.33,29.33,0,0,1-4.51,4.16,2.08,2.08,0,0,1-1.24.4,2.59,2.59,0,0,1-.48,0,2.51,2.51,0,0,1-1.52-1q-.81-1.08-1.56-1.92a.16.16,0,0,0-.12,0c-.06,0-.08.05-.08.1v1.56a2.23,2.23,0,0,1-.7,1.68,2.32,2.32,0,0,1-1.66.68h-1a2.32,2.32,0,0,1-2.36-2.36v-3.4c0-.18-.1-.26-.32-.24q-1.51.28-10.19,1.64a1.81,1.81,0,0,1-.4,0,2.32,2.32,0,0,1-1.36-.44,2.38,2.38,0,0,1-1-1.52l-.24-1.32a1.75,1.75,0,0,1,0-.4,2.23,2.23,0,0,1,2-2.15c.35,0,.68-.07,1-.12a.3.3,0,0,0,.28-.32V305.87a.25.25,0,0,0-.28-.28,2.32,2.32,0,0,1-2.32-2.32v-.8a2.24,2.24,0,0,1,.7-1.68,2.32,2.32,0,0,1,1.66-.68h16.31a2.32,2.32,0,0,1,2.36,2.36v.2c0,.19.1.28.32.28Zm-18.67,2.92c0-.19-.1-.28-.32-.28h-4c-.19,0-.29.09-.29.28v2.44c0,.21.1.32.29.32h4a.28.28,0,0,0,.32-.32Zm-4.35,8a.26.26,0,0,0-.29.28v2.64c0,.22.1.32.29.32h4a.28.28,0,0,0,.32-.32v-2.64c0-.18-.1-.28-.32-.28Zm-.29,11.64c0,.21.1.3.29.28l4-.56c.22,0,.32-.14.32-.32V322.7c0-.19-.1-.28-.32-.28h-4c-.19,0-.29.09-.29.28Zm10.64-20a.24.24,0,0,0-.28.28v25.26a.11.11,0,0,0,.08.12.15.15,0,0,0,.16,0,21.63,21.63,0,0,0,5.76-5.39.44.44,0,0,0,0-.52,58.22,58.22,0,0,1-4.64-13.08,3.39,3.39,0,0,1,0-.55,2.16,2.16,0,0,1,.36-1.2,2.19,2.19,0,0,1,1.48-1l1.08-.2a2.59,2.59,0,0,1,.48,0,2.25,2.25,0,0,1,1.28.4,2.54,2.54,0,0,1,1,1.52,46.33,46.33,0,0,0,2.44,7.67c0,.05,0,.08.1.08s.1,0,.1-.08a49.56,49.56,0,0,0,2.6-9.79c0-.19-.05-.28-.24-.28h-8.51a2.36,2.36,0,0,1-2.36-2.36v-.56c0-.19-.11-.28-.32-.28Z"/><path class="cls-5" d="M266.71,302.63a1.92,1.92,0,0,1-.28-1,2.27,2.27,0,0,1,.12-.72,2.05,2.05,0,0,1,1.19-1.24l1.52-.6a3.22,3.22,0,0,1,1-.16,3.07,3.07,0,0,1,.92.16,2.73,2.73,0,0,1,1.44,1.2,50.44,50.44,0,0,0,9.2,10.92,2,2,0,0,1,.68,1.55,2.13,2.13,0,0,1-.64,1.56c-.67.64-1.31,1.31-1.92,2a2,2,0,0,1-1.48.76h-.16a1.81,1.81,0,0,1-1.36-.56.12.12,0,0,0-.14,0,.14.14,0,0,0-.06.12q-.31,8.71-.76,12.55t-1.4,5.08a5.42,5.42,0,0,1-1.78,1.56,8.18,8.18,0,0,1-2.34.72,22,22,0,0,1-3.71.24,2.51,2.51,0,0,1-1.72-.68,3.16,3.16,0,0,1-1-1.68c-.16-.53-.35-1.07-.56-1.6a1.77,1.77,0,0,1-.08-.56,1.57,1.57,0,0,1,.24-.8,1.26,1.26,0,0,1,1.12-.6h0c1,.06,1.84.08,2.63.08a2.12,2.12,0,0,0,1.64-.64c.38-.4.66-1.48.86-3.23s.38-4.51.54-8.24a.24.24,0,0,0-.28-.28H264c-.22,0-.34.09-.36.28a33.07,33.07,0,0,1-.76,4.14,23.58,23.58,0,0,1-1.4,3.86,16.42,16.42,0,0,1-2.22,3.59,19.6,19.6,0,0,1-3.3,3.14,23.51,23.51,0,0,1-4.6,2.74,2.61,2.61,0,0,1-1,.2,2.35,2.35,0,0,1-.84-.16,3.06,3.06,0,0,1-1.48-1.2c-.38-.61-.76-1.19-1.16-1.72a1.64,1.64,0,0,1-.36-1,2.06,2.06,0,0,1,0-.44,1.57,1.57,0,0,1,1-1.12,20.54,20.54,0,0,0,4.31-2.42,11.53,11.53,0,0,0,2.84-2.93,14.92,14.92,0,0,0,1.6-3.16,18.37,18.37,0,0,0,.84-3.52c0-.19,0-.28-.24-.28h-3.52a2.2,2.2,0,0,1-1.64-.7,2.3,2.3,0,0,1-.68-1.66s0-.05-.07-.08-.1,0-.12,0c-.32.3-.62.58-.88.84a2.31,2.31,0,0,1-1.56.6h-.16a2.69,2.69,0,0,1-1.72-.76c-.54-.53-1.1-1.06-1.68-1.6a1.77,1.77,0,0,1-.64-1.4,1.85,1.85,0,0,1,.76-1.52,33.52,33.52,0,0,0,5.16-5.27,34.65,34.65,0,0,0,4-6.48,3,3,0,0,1,1.32-1.36,2.57,2.57,0,0,1,1.12-.28,2.66,2.66,0,0,1,.76.12l1.92.56a2.08,2.08,0,0,1,1.32,1.12,2.14,2.14,0,0,1,.2.84,1.63,1.63,0,0,1-.24.84,48.92,48.92,0,0,1-6.48,10.15.22.22,0,0,0,0,.16.12.12,0,0,0,.12.08H273.3a.15.15,0,0,0,.16-.08c0-.05,0-.1,0-.16A75.6,75.6,0,0,1,266.71,302.63Z"/><path class="cls-5" d="M316.7,318.7a3.12,3.12,0,0,1,.64,1.92,3.22,3.22,0,0,1-.6,1.92l-.56.8a1.28,1.28,0,0,1-1.08.56H315a1.31,1.31,0,0,1-1.12-.76c-.29-.59-.6-1.17-.92-1.76,0-.05-.06-.07-.1-.06a.09.09,0,0,0-.06.1v13a2.32,2.32,0,0,1-2.36,2.36h-1a2.32,2.32,0,0,1-1.66-.68,2.26,2.26,0,0,1-.7-1.68V323.26a.05.05,0,0,0,0-.06s-.05,0-.08,0a32.21,32.21,0,0,1-2.19,4.87,1.08,1.08,0,0,1-1,.56h-.16a1.33,1.33,0,0,1-1.08-.75,14.89,14.89,0,0,0-.68-1.4,3.68,3.68,0,0,1-.44-1.76v-.24a4.21,4.21,0,0,1,.64-2,37.89,37.89,0,0,0,4.27-10.44.15.15,0,0,0,0-.19.25.25,0,0,0-.2-.09h-1.87a2.37,2.37,0,0,1-2.36-2.35v-.92a2.39,2.39,0,0,1,2.36-2.36h2.55a.24.24,0,0,0,.28-.28v-5.64a2.39,2.39,0,0,1,2.36-2.36h1a2.26,2.26,0,0,1,1.68.7,2.32,2.32,0,0,1,.68,1.66v5.64c0,.19.11.28.32.28h2a2.26,2.26,0,0,1,1.68.7,2.3,2.3,0,0,1,.68,1.66v.92a2.32,2.32,0,0,1-.68,1.66,2.29,2.29,0,0,1-1.68.69h-2c-.21,0-.32.1-.32.28v1.24a.7.7,0,0,0,.2.52Q314.42,315.63,316.7,318.7Zm21.18-7a2.31,2.31,0,0,1,2.36,2.35v.88a2.26,2.26,0,0,1-.68,1.66,2.23,2.23,0,0,1-1.68.7h-2.19a.25.25,0,0,0-.28.28v16.87a2.26,2.26,0,0,1-.7,1.68,2.32,2.32,0,0,1-1.66.68h-1.2a2.32,2.32,0,0,1-1.66-.68,2.23,2.23,0,0,1-.7-1.68V317.54a.25.25,0,0,0-.28-.28h-3.68a.3.3,0,0,0-.32.28q-.75,10.95-4.75,17.35a1.52,1.52,0,0,1-1.36.76H319a2.1,2.1,0,0,1-1.48-.56c-.35-.32-.7-.61-1-.88a2.38,2.38,0,0,1-.92-1.52,1.46,1.46,0,0,1-.08-.52,2.32,2.32,0,0,1,.36-1.2,22.6,22.6,0,0,0,2-4.41,28.84,28.84,0,0,0,1.14-4.92c.24-1.69.39-3.21.46-4.54s.1-2.81.1-4.44v-9.79a1.74,1.74,0,0,1,.72-1.44,1.68,1.68,0,0,1,1-.36,1.7,1.7,0,0,1,.51.08l2,.56a1.06,1.06,0,0,0,.56,0,59.88,59.88,0,0,0,7.76-2.4,3.85,3.85,0,0,1,1.44-.28c.18,0,.38,0,.6,0A3.35,3.35,0,0,1,336,300l1.56,1.44a1.44,1.44,0,0,1,.43,1.4,1.36,1.36,0,0,1-.91,1.08,74.18,74.18,0,0,1-11.44,3,.35.35,0,0,0-.28.36v4.16c0,.21.1.32.28.32Z"/><path class="cls-5" d="M371.33,306.11c-.19,0-.28.11-.28.32v1.48c0,.21.09.32.28.32h3.84a2.26,2.26,0,0,1,1.65.68,2.23,2.23,0,0,1,.7,1.68v.2a2.22,2.22,0,0,1-.7,1.67,2.26,2.26,0,0,1-1.65.68h-.36s0,0,0,0a1,1,0,0,1,.67.56,1,1,0,0,1,0,.88c-.13.3-.31.72-.53,1.26l-.5,1.18a.23.23,0,0,0,0,.2c0,.06.08.08.16.08a2.14,2.14,0,0,1,1.57.66,2.16,2.16,0,0,1,.66,1.58v.36a2.28,2.28,0,0,1-.68,1.66,2.22,2.22,0,0,1-1.67.7h-3.16a.24.24,0,0,0-.28.28v1.88a.25.25,0,0,0,.28.28h2.76a2.22,2.22,0,0,1,1.67.7,2.26,2.26,0,0,1,.68,1.66v.24a2.32,2.32,0,0,1-2.35,2.35h-2.76c-.19,0-.28.11-.28.32v4.32a2.26,2.26,0,0,1-.7,1.68,2.32,2.32,0,0,1-1.66.68h-.76a2.32,2.32,0,0,1-2.36-2.36V330a.29.29,0,0,0-.32-.32h-3.08a2.28,2.28,0,0,1-1.66-.68,2.25,2.25,0,0,1-.69-1.67v-.24a2.37,2.37,0,0,1,2.35-2.36h3.08c.21,0,.32-.1.32-.28v-1.88c0-.19-.11-.28-.32-.28h-3.4a2.26,2.26,0,0,1-1.66-.7,2.29,2.29,0,0,1-.69-1.66v-.28a2.23,2.23,0,0,1,.67-1.64,2.26,2.26,0,0,1,1.64-.68c.22,0,.3-.09.24-.28a20.29,20.29,0,0,0-.68-2.44,1.27,1.27,0,0,1,.1-.9,1,1,0,0,1,.66-.54v0h-1.24a2.31,2.31,0,0,1-2.35-2.35v-.2a2.31,2.31,0,0,1,2.35-2.36h4.36a.29.29,0,0,0,.32-.32v-1.48a.29.29,0,0,0-.32-.32h-2.92a2.32,2.32,0,0,1-1.66-.68,2.26,2.26,0,0,1-.7-1.68v-.16a2.39,2.39,0,0,1,2.36-2.36h2.92c.21,0,.32-.09.32-.28v-.48a2.32,2.32,0,0,1,.68-1.68,2.28,2.28,0,0,1,1.68-.68h.76a2.32,2.32,0,0,1,1.66.68,2.3,2.3,0,0,1,.7,1.68V301a.24.24,0,0,0,.28.28h2.36a2.37,2.37,0,0,1,2.35,2.36v.16a2.25,2.25,0,0,1-.69,1.68,2.32,2.32,0,0,1-1.66.68Zm-.52,11.23a0,0,0,0,0,0,0,.94.94,0,0,1-.64-.52,1,1,0,0,1-.08-.8c.26-.82.52-1.66.76-2.52a.25.25,0,0,0,0-.22.28.28,0,0,0-.2-.1H366a.19.19,0,0,0-.14.1.17.17,0,0,0,0,.18,25.23,25.23,0,0,1,.8,2.52,1,1,0,0,1-.12.84,1.11,1.11,0,0,1-.72.52v0Zm21.54-3.6a2.87,2.87,0,0,1,.64-.08,2.62,2.62,0,0,1,1,.2l1,.36a2.1,2.1,0,0,1,1.2,1,2.23,2.23,0,0,1,.28,1.08,2.32,2.32,0,0,1,0,.44,42.16,42.16,0,0,1-3.52,11.16.46.46,0,0,0,.08.51A18.51,18.51,0,0,0,396,331a2,2,0,0,1,.84,1.36v.28a1.91,1.91,0,0,1-.48,1.28,12.69,12.69,0,0,0-.84,1,2.4,2.4,0,0,1-1.56,1,2.06,2.06,0,0,1-1.68-.4,23.63,23.63,0,0,1-2.43-2.28c-.14-.16-.27-.16-.4,0-.64.77-1.28,1.48-1.92,2.12a2,2,0,0,1-1.4.56.67.67,0,0,1-.24,0,2.35,2.35,0,0,1-1.6-.84l-.76-.76a.13.13,0,0,0-.16,0,.14.14,0,0,0-.08.12v0a2.32,2.32,0,0,1-2.36,2.36h-.64a2.32,2.32,0,0,1-1.66-.68,2.26,2.26,0,0,1-.7-1.68v-32.5a2.39,2.39,0,0,1,2.36-2.36h13a2.36,2.36,0,0,1,2.36,2.36v5.32a7.57,7.57,0,0,1-.48,3,3.2,3.2,0,0,1-1.8,1.63,13,13,0,0,1-4.63.76.12.12,0,0,1-.08,0A2.61,2.61,0,0,1,387,312a3.09,3.09,0,0,1-1.08-1.64c-.08-.22-.15-.42-.2-.6a1.45,1.45,0,0,1-.12-.56,1.49,1.49,0,0,1,.32-.92,1.4,1.4,0,0,1,1.24-.64h2.28a1.84,1.84,0,0,0,.64-.14.49.49,0,0,0,.16-.42V305c0-.21-.1-.32-.28-.32h-6.32a.29.29,0,0,0-.32.32v8.43a.28.28,0,0,0,.32.32h8.51A.54.54,0,0,0,392.35,313.74ZM383.44,322a.1.1,0,0,0-.08,0s0,0,0,0v9.43a.13.13,0,0,0,.24.08,20.51,20.51,0,0,0,2.56-2.92.38.38,0,0,0,0-.48A43.26,43.26,0,0,1,383.44,322Zm7.12-3.24c0-.19-.06-.28-.24-.28H387.4a.22.22,0,0,0-.18.08.2.2,0,0,0,0,.2,23.53,23.53,0,0,0,1.8,4.12c0,.05.07.07.14.06a.11.11,0,0,0,.1-.1A30.37,30.37,0,0,0,390.56,318.74Z"/><path class="cls-5" d="M439.63,311.74c0,.22.09.32.28.32h11.23a2.32,2.32,0,0,1,1.66.68,2.26,2.26,0,0,1,.7,1.68v.8a2.39,2.39,0,0,1-2.36,2.36H419.52a2.39,2.39,0,0,1-2.36-2.36v-.8a2.3,2.3,0,0,1,.7-1.68,2.32,2.32,0,0,1,1.66-.68H421a.09.09,0,0,0,.1-.07c0-.06,0-.08-.06-.08-.67-.46-1.51-1-2.52-1.52a1.73,1.73,0,0,1-.88-1.24v-.32a1.8,1.8,0,0,1,.44-1.2,27.1,27.1,0,0,0,4.4-7.52,2.92,2.92,0,0,1,1.24-1.4,2.63,2.63,0,0,1,1.24-.32,2.76,2.76,0,0,1,.6.08l1.4.32a2.2,2.2,0,0,1,1.4,1.08,2.13,2.13,0,0,1,.24,1,2.16,2.16,0,0,1-.16.76c-.16.35-.31.71-.44,1.08a.15.15,0,0,0,0,.16.16.16,0,0,0,.16.08H433c.22,0,.32-.09.32-.28v-2.36a2.32,2.32,0,0,1,.68-1.66,2.28,2.28,0,0,1,1.68-.7h1.64a2.3,2.3,0,0,1,1.66.7,2.26,2.26,0,0,1,.7,1.66v2.36a.24.24,0,0,0,.28.28h8.95a2.23,2.23,0,0,1,1.68.7,2.32,2.32,0,0,1,.68,1.66V306a2.32,2.32,0,0,1-.68,1.66,2.26,2.26,0,0,1-1.68.7h-8.95a.24.24,0,0,0-.28.28ZM424,336.81a2.32,2.32,0,0,1-1.66-.68,2.23,2.23,0,0,1-.7-1.68V322.22a2.39,2.39,0,0,1,2.36-2.36h23.62a2.39,2.39,0,0,1,2.36,2.36v12.07a2.23,2.23,0,0,1-.7,1.68,2.3,2.3,0,0,1-1.66.68H445a1.43,1.43,0,0,1-1.44-1.44.18.18,0,0,0-.2-.2H428a.18.18,0,0,0-.2.2,1.53,1.53,0,0,1-.48,1.14,1.57,1.57,0,0,1-1.12.46Zm9.27-28.18c0-.19-.1-.28-.32-.28h-7.71a.49.49,0,0,0-.44.24c-.86,1.28-1.64,2.36-2.36,3.23a.17.17,0,0,0,0,.17.13.13,0,0,0,.12.07H433a.28.28,0,0,0,.32-.32Zm10.28,17c0-.19-.11-.28-.32-.28H428.08a.24.24,0,0,0-.28.28v3.63a.24.24,0,0,0,.28.28h15.15c.21,0,.32-.09.32-.28Z"/></svg>