<svg id="圖層_1" data-name="圖層 1" xmlns="http://www.w3.org/2000/svg" xmlns:xlink="http://www.w3.org/1999/xlink" viewBox="0 0 150.92 150.92"><defs><style>.cls-1{fill:#fff;}.cls-2{fill:url(#未命名漸層_270);}</style><linearGradient id="未命名漸層_270" y1="75.46" x2="150.92" y2="75.46" gradientUnits="userSpaceOnUse"><stop offset="0" stop-color="#f2d378"/><stop offset="1" stop-color="#d7836e"/></linearGradient></defs><rect class="cls-1" x="-317.54" y="-6048.05" width="784.76" height="6242.89"/><circle class="cls-2" cx="75.46" cy="75.46" r="75.46"/><path class="cls-1" d="M43.32,74.74a1.88,1.88,0,0,1,1.89,1.89v8.19a.77.77,0,0,0,.13.45q1.71,2.57,6.55,2.76c1.61.09,3.26.13,5,.13,3,0,6.15-.1,9.41-.32h.09a1.09,1.09,0,0,1,.93.48,1.13,1.13,0,0,1,.26.71,1,1,0,0,1-.1.42c-.13.42-.25.84-.38,1.25a2.69,2.69,0,0,1-.87,1.38,2.2,2.2,0,0,1-1.44.55c-2.51.1-4.85.16-7,.16s-4.09-.05-5.91-.13a16.89,16.89,0,0,1-5-.87,8.8,8.8,0,0,1-3.55-2.47.19.19,0,0,0-.32,0c-1,.89-2,1.71-2.86,2.44a1.43,1.43,0,0,1-.89.32,1.37,1.37,0,0,1-.36,0,1.44,1.44,0,0,1-1-.83l-.7-1.54a2,2,0,0,1-.19-.87,2.65,2.65,0,0,1,.09-.64A2.17,2.17,0,0,1,37.92,87c.88-.53,1.68-1.06,2.41-1.57a.49.49,0,0,0,.19-.39V79.36a.19.19,0,0,0-.22-.22H39.05a1.91,1.91,0,0,1-1.9-1.9v-.61a1.84,1.84,0,0,1,.56-1.35,1.87,1.87,0,0,1,1.34-.54Zm1.38-8.51a1.64,1.64,0,0,1,.51,1.19.61.61,0,0,1,0,.16,1.82,1.82,0,0,1-.67,1.28l-.9.74a1.76,1.76,0,0,1-1.13.42l-.22,0A1.81,1.81,0,0,1,41,69.31a30.26,30.26,0,0,0-2.54-2.47,1.51,1.51,0,0,1-.55-1.19,1.48,1.48,0,0,1,.58-1.22l.61-.48a2.54,2.54,0,0,1,1.48-.55h.06a2.11,2.11,0,0,1,1.42.52A31,31,0,0,1,44.7,66.23ZM67.37,76.47a1.81,1.81,0,0,1-.56,1.35,1.84,1.84,0,0,1-1.34.55H60.05s-.08,0-.11.08a.12.12,0,0,0,0,.14,10.8,10.8,0,0,0,5.71,4.5,1.27,1.27,0,0,1,.81.83,2,2,0,0,1,0,.36,1.23,1.23,0,0,1-.26.73c-.25.33-.5.66-.74,1a2.37,2.37,0,0,1-1.25,1,1.85,1.85,0,0,1-.67.13,2.28,2.28,0,0,1-.84-.16A13.16,13.16,0,0,1,57,81.8a.12.12,0,0,0-.12-.06.2.2,0,0,0-.14.06,15.26,15.26,0,0,1-5.78,5,2.23,2.23,0,0,1-1.54.16,2.69,2.69,0,0,1-1.35-.83c-.19-.24-.4-.46-.61-.68a1.17,1.17,0,0,1-.35-.83,1.15,1.15,0,0,1,0-.26,1.11,1.11,0,0,1,.67-.9c2.81-1.22,4.63-2.84,5.46-4.88a.14.14,0,0,0,0-.14.18.18,0,0,0-.15-.08h-5a1.86,1.86,0,0,1-1.89-1.9V76a1.88,1.88,0,0,1,1.89-1.89h5.56c.15,0,.22-.08.22-.23V72c0-.15-.07-.23-.22-.23h-4.4a1.93,1.93,0,0,1-1.9-1.89v-.39a1.81,1.81,0,0,1,.57-1.35,1.83,1.83,0,0,1,1.33-.54h.64A.16.16,0,0,0,50,67.5a.14.14,0,0,0,0-.15,18.18,18.18,0,0,0-1.06-2,1.76,1.76,0,0,1-.22-.84,1.52,1.52,0,0,1,.09-.51,1.57,1.57,0,0,1,.9-1l.52-.19a2.31,2.31,0,0,1,.93-.19,2.69,2.69,0,0,1,.67.09,2.13,2.13,0,0,1,1.25.9,17.94,17.94,0,0,1,1.13,2,1.35,1.35,0,0,1,.16.61,1.42,1.42,0,0,1-.13.55,1.6,1.6,0,0,1-.84.8c0,.07,0,.1,0,.1h6s0,0,0,0a0,0,0,0,0,0,0,1.09,1.09,0,0,1-.69-.7,1.25,1.25,0,0,1,.08-1A23.06,23.06,0,0,0,60,63.73a2.2,2.2,0,0,1,1.09-1.1,2,2,0,0,1,.86-.19,1.9,1.9,0,0,1,.61.1l1.26.35a1.36,1.36,0,0,1,.93.9,1.28,1.28,0,0,1,.09.48,1.38,1.38,0,0,1-.25.77c-.6.86-1.17,1.64-1.7,2.35,0,0,0,0,0,.11s.05.08.09.08h1.29a1.86,1.86,0,0,1,1.89,1.89v.39a1.89,1.89,0,0,1-1.89,1.89H58.92c-.15,0-.22.08-.22.23V73.9c0,.15.07.23.22.23h6.55a1.85,1.85,0,0,1,1.34.56A1.83,1.83,0,0,1,67.37,76Z"/><path class="cls-1" d="M106.79,80.94a1.81,1.81,0,0,1,.56-1.35,1.84,1.84,0,0,1,1.33-.55h1.22a1.84,1.84,0,0,1,1.34.55,1.81,1.81,0,0,1,.56,1.35v10.4a1.83,1.83,0,0,1-.56,1.35,1.87,1.87,0,0,1-1.34.54h-1.47a1.59,1.59,0,0,1-1.16-.48,1.56,1.56,0,0,1-.48-1.15.18.18,0,0,0-.19-.2H90a.18.18,0,0,0-.2.2,1.56,1.56,0,0,1-.48,1.15,1.58,1.58,0,0,1-1.15.48H86.82a1.87,1.87,0,0,1-1.34-.54,1.83,1.83,0,0,1-.56-1.35V80.94a1.81,1.81,0,0,1,.56-1.35A1.84,1.84,0,0,1,86.82,79h1.09a1.82,1.82,0,0,1,1.33.55,1.77,1.77,0,0,1,.56,1.35v5.55c0,.17.08.26.23.26h5.33c.15,0,.22-.09.22-.26v-8.8a.19.19,0,0,0-.22-.22H88.13a1.91,1.91,0,0,1-1.89-1.9V67a1.8,1.8,0,0,1,.56-1.35,1.85,1.85,0,0,1,1.33-.54h1a1.85,1.85,0,0,1,1.33.54A1.8,1.8,0,0,1,91.05,67v5.59c0,.15.08.22.23.22h4.08a.19.19,0,0,0,.22-.22V64.33A1.8,1.8,0,0,1,96.14,63a1.84,1.84,0,0,1,1.34-.55h1.19A1.84,1.84,0,0,1,100,63a1.8,1.8,0,0,1,.56,1.34v8.26a.19.19,0,0,0,.22.22h4.4c.15,0,.23-.07.23-.22V67a1.81,1.81,0,0,1,.56-1.35,1.86,1.86,0,0,1,1.33-.55h1.29a1.88,1.88,0,0,1,1.33.55,1.81,1.81,0,0,1,.56,1.35v8.6a1.91,1.91,0,0,1-1.89,1.9h-7.81a.19.19,0,0,0-.22.22v8.8c0,.17.07.26.22.26h5.78c.15,0,.23-.09.23-.26Z"/></svg>