<svg id="圖層_1" data-name="圖層 1" xmlns="http://www.w3.org/2000/svg" xmlns:xlink="http://www.w3.org/1999/xlink" viewBox="0 0 785.8 189.2"><defs><style>.cls-1{fill:url(#未命名漸層_270);}.cls-2{fill:#fff;}.cls-3{fill:#d7836e;}</style><linearGradient id="未命名漸層_270" y1="94.6" x2="785.8" y2="94.6" gradientUnits="userSpaceOnUse"><stop offset="0" stop-color="#f2d378"/><stop offset="1" stop-color="#d7836e"/></linearGradient></defs><rect class="cls-1" width="785.8" height="189.2"/><path class="cls-2" d="M469,40.05a1.72,1.72,0,0,1,1.71,1.7v9.63a.18.18,0,0,0,.2.2H476a1.74,1.74,0,0,1,1.71,1.71V63.46a1.61,1.61,0,0,1-.51,1.2,1.67,1.67,0,0,1-2.4,0,1.61,1.61,0,0,1-.51-1.2V59a.18.18,0,0,0-.2-.2H472a.23.23,0,0,0-.26.2,9.25,9.25,0,0,1-1.24,3.82,5.7,5.7,0,0,1-1.8,1.79,1.51,1.51,0,0,1-.75.2,1.48,1.48,0,0,1-.46-.08,2.06,2.06,0,0,1-1-.78,1.37,1.37,0,0,1-.26-.78,1.36,1.36,0,0,1,0-.29,1.43,1.43,0,0,1,.6-.93,4,4,0,0,0,.78-.75,5,5,0,0,0,.87-2.2c0-.13-.05-.2-.2-.2h-1.13a1.47,1.47,0,0,1-1.47-1.47,1.39,1.39,0,0,1,.43-1,1.43,1.43,0,0,1,1-.44h6.91a.18.18,0,0,0,.2-.2v-1.1a.18.18,0,0,0-.2-.2h-5.12a1.6,1.6,0,0,1-1.19-.51,1.64,1.64,0,0,1-.51-1.2V41.75a1.72,1.72,0,0,1,1.7-1.7Zm15.12-1.65a1.74,1.74,0,0,1,1.71,1.7v8.68a1.64,1.64,0,0,1-.51,1.2,1.6,1.6,0,0,1-1.2.5h-9.94a1.72,1.72,0,0,1-1.71-1.7V40.1a1.6,1.6,0,0,1,.51-1.19,1.64,1.64,0,0,1,1.2-.51ZM482,41.78c.16,0,.23-.07.23-.23v-.69c0-.16-.07-.23-.23-.23h-6c-.16,0-.23.07-.23.23v.69c0,.16.07.23.23.23Zm0,3.27c.16,0,.23-.07.23-.2v-.76a.2.2,0,0,0-.23-.23h-6a.2.2,0,0,0-.23.23v.76c0,.13.07.2.23.2Zm0,3.21a.2.2,0,0,0,.23-.23v-.7a.2.2,0,0,0-.23-.23h-6a.2.2,0,0,0-.23.23V48a.2.2,0,0,0,.23.23Zm9.14,7.6a1.43,1.43,0,0,1,1,.44,1.39,1.39,0,0,1,.43,1,1.47,1.47,0,0,1-1.47,1.47h-.7a.18.18,0,0,0-.2.2v4.45a1.74,1.74,0,0,1-1.7,1.71h-.09a1.64,1.64,0,0,1-1.2-.51,1.61,1.61,0,0,1-.51-1.2V59c0-.13-.07-.2-.23-.2H484c-.16,0-.23.07-.23.2v4.48a1.61,1.61,0,0,1-.51,1.2,1.67,1.67,0,0,1-2.4,0,1.61,1.61,0,0,1-.51-1.2V52.68a1.09,1.09,0,0,1,1.1-1.1h.15a0,0,0,0,1,0,0h5.61a.2.2,0,0,0,.23-.23v-9.6a1.63,1.63,0,0,1,.5-1.2,1.67,1.67,0,0,1,1.2-.5h.06a1.67,1.67,0,0,1,1.2.5,1.64,1.64,0,0,1,.51,1.2v10.9a1.61,1.61,0,0,1-.51,1.2,1.64,1.64,0,0,1-1.2.51H484a.2.2,0,0,0-.23.23v1.1c0,.13.07.2.23.2Z"/><path class="cls-2" d="M503.7,48.29a1.48,1.48,0,0,1,.78,1,1.39,1.39,0,0,1,.06.4,1.76,1.76,0,0,1-.26.9l-.06.11a1.53,1.53,0,0,1-1,.73,2.25,2.25,0,0,1-.38,0,1.61,1.61,0,0,1-.87-.26c-.85-.53-1.77-1.05-2.77-1.57a1.52,1.52,0,0,1-.81-1.3,1.5,1.5,0,0,1,.23-.78,2,2,0,0,1,1.07-.78,1.83,1.83,0,0,1,.55-.08,1.77,1.77,0,0,1,.78.17A27.58,27.58,0,0,1,503.7,48.29Zm-.84,7.11a1.27,1.27,0,0,1,.92-.75,1.12,1.12,0,0,1,.35-.06,1.32,1.32,0,0,1,.81.29l.06,0a2.32,2.32,0,0,1,.78,1.18,2.8,2.8,0,0,1,.06.55,2.26,2.26,0,0,1-.18.87q-1.5,3.3-3.06,6.36a1.41,1.41,0,0,1-1,.75,1.45,1.45,0,0,1-.41.06,1.56,1.56,0,0,1-.84-.26l-.32-.2a1.9,1.9,0,0,1-.75-1.1,3.49,3.49,0,0,1,0-.44,1.93,1.93,0,0,1,.23-.89Q501.24,58.75,502.86,55.4Zm2.69-14.92a1.62,1.62,0,0,1,.75,1.07,2.07,2.07,0,0,1,0,.35,1.6,1.6,0,0,1-.32,1L506,43a1.56,1.56,0,0,1-1,.66,1.43,1.43,0,0,1-.29,0,1.6,1.6,0,0,1-.95-.32c-.79-.52-1.73-1.07-2.81-1.65a1.33,1.33,0,0,1-.69-.89,1.36,1.36,0,0,1-.06-.38,1.37,1.37,0,0,1,.26-.78,1.89,1.89,0,0,1,1.07-.75,1.63,1.63,0,0,1,.52-.09,1.58,1.58,0,0,1,.78.21C503.8,39.51,504.74,40,505.55,40.48Zm4.59,9.4a7.22,7.22,0,0,1,2.2.26,1.24,1.24,0,0,1,.72.55,1.17,1.17,0,0,1,.21.66.85.85,0,0,1,0,.23q-1.25,7.11-5,11a1.37,1.37,0,0,1-1,.4l-.2,0a1.66,1.66,0,0,1-1.1-.6,1.7,1.7,0,0,1-.43-1.16A1.64,1.64,0,0,1,506,60a17,17,0,0,0,3.47-6.67.19.19,0,0,0,0-.15.16.16,0,0,0-.13-.06h-1.85a1.63,1.63,0,1,1,0-3.26Zm11.28-1.22a1.63,1.63,0,0,1,1.07-.69l.32,0a1.56,1.56,0,0,1,.92.32l.44.29a1.41,1.41,0,0,1,.55,1.15,1.3,1.3,0,0,1-.44,1c-1.93,1.84-3.22,3-3.87,3.56a.21.21,0,0,0-.06.32,18,18,0,0,0,4.1,4.91,1.44,1.44,0,0,1,.58,1v.17a1.46,1.46,0,0,1-.37,1l-.35.41a1.64,1.64,0,0,1-1.1.63.91.91,0,0,1-.23,0,1.37,1.37,0,0,1-1-.38,21,21,0,0,1-4.43-6.47s0-.05-.05,0,0,0,0,0v6A5.6,5.6,0,0,1,517.2,64a2.41,2.41,0,0,1-1.13,1.19,8.48,8.48,0,0,1-3.38.58h-.06a1.9,1.9,0,0,1-1.21-.44,2.41,2.41,0,0,1-.78-1.18,1.67,1.67,0,0,0-.06-.2,1,1,0,0,1-.09-.41,1.13,1.13,0,0,1,.23-.66,1,1,0,0,1,.9-.47h.89q.68,0,1,0a.85.85,0,0,0,.52-.11.55.55,0,0,0,.14-.43v-14a.2.2,0,0,0-.23-.23h-3.87a1.67,1.67,0,0,1-1.68-1.67,1.53,1.53,0,0,1,.49-1.17,1.64,1.64,0,0,1,1.19-.48h5.75a1.66,1.66,0,0,1,1.2.49,1.62,1.62,0,0,1,.51,1.21v1.59a2.37,2.37,0,0,0,.05.44,25.85,25.85,0,0,0,1.25,3.5c0,.13.13.14.23,0C520,50.5,520.76,49.55,521.42,48.66Zm-2.08-8a1.5,1.5,0,0,1,.86.9,1.78,1.78,0,0,1,.09.52,1.5,1.5,0,0,1-.2.75v0a1.67,1.67,0,0,1-1,.84,2.1,2.1,0,0,1-.61.09,1.79,1.79,0,0,1-.72-.15,54.44,54.44,0,0,0-6.07-2.14,1.17,1.17,0,0,1-.78-.69,1.29,1.29,0,0,1-.09-.46,1.34,1.34,0,0,1,.14-.58,2.11,2.11,0,0,1,1.8-1,3,3,0,0,1,.49.05A57.37,57.37,0,0,1,519.34,40.65Z"/><path class="cls-2" d="M553.84,50.66a1.49,1.49,0,0,1,.43-.06,1.61,1.61,0,0,1,.64.14l.63.26a1.26,1.26,0,0,1,.73.67,1.46,1.46,0,0,1,.11.55,1.83,1.83,0,0,1,0,.4,19.77,19.77,0,0,1-4.05,7.26c-.1.1-.08.18.06.26a19.31,19.31,0,0,0,4.45,2.23,1,1,0,0,1,.69.75,1,1,0,0,1,.06.32,1.08,1.08,0,0,1-.26.69l-.29.4a2.49,2.49,0,0,1-1.16.87,1.84,1.84,0,0,1-.66.12,1.94,1.94,0,0,1-.72-.15,21,21,0,0,1-4.8-2.71.24.24,0,0,0-.35,0,21.91,21.91,0,0,1-4.65,2.6,1.7,1.7,0,0,1-.66.14,1.83,1.83,0,0,1-.67-.14,2.23,2.23,0,0,1-1.07-.9,9.56,9.56,0,0,0-.78-1.07.07.07,0,0,0-.09,0,.07.07,0,0,0-.06.07,2.55,2.55,0,0,1-1.13,1.91,5.65,5.65,0,0,1-2.4.61h-.11a1.77,1.77,0,0,1-1.16-.44,2.41,2.41,0,0,1-.75-1.21l-.06-.12a1.29,1.29,0,0,1-.06-.37,1.14,1.14,0,0,1,.24-.7,1.1,1.1,0,0,1,1-.49h.45l.36,0a.57.57,0,0,0,.38-.11.63.63,0,0,0,.11-.41v-5.9a.18.18,0,0,0-.2-.2h-2.55a.21.21,0,0,0-.23.2,33.61,33.61,0,0,1-1.47,8.33,1.13,1.13,0,0,1-.81.75,1.77,1.77,0,0,1-.43.06,1.49,1.49,0,0,1-.73-.2,1.76,1.76,0,0,1-.84-1,1.89,1.89,0,0,1-.14-.69,2,2,0,0,1,.09-.58A24.29,24.29,0,0,0,532,57c.18-2.12.26-4.46.26-7V41a1.62,1.62,0,0,1,.51-1.21,1.66,1.66,0,0,1,1.2-.49h5.78a1.66,1.66,0,0,1,1.2.49,1.62,1.62,0,0,1,.51,1.21v6.74a.1.1,0,0,0,.06.09.2.2,0,0,0,.11,0,5.5,5.5,0,0,0,1.79-2.42,8.74,8.74,0,0,0,.47-2.93V40.8a1.66,1.66,0,0,1,.49-1.2,1.62,1.62,0,0,1,1.21-.51h6.71A1.72,1.72,0,0,1,554,40.8v4.91a2.58,2.58,0,0,0,.06.73.29.29,0,0,0,.29.14H555q.22,0,.33-.3a6.2,6.2,0,0,0,.16-1.29.83.83,0,0,1,.49-.75.88.88,0,0,1,.49-.15,1,1,0,0,1,.43.09,2.13,2.13,0,0,1,1,.84,1.7,1.7,0,0,1,.28.95v.26a5.33,5.33,0,0,1-.92,2.61,2.41,2.41,0,0,1-1.91.72H553.7a3,3,0,0,1-2.41-.81,5.15,5.15,0,0,1-.63-3V42.59c0-.15-.07-.23-.2-.23h-3a.21.21,0,0,0-.23.23,9.55,9.55,0,0,1-2.31,6.82,1.51,1.51,0,0,1-1.1.47h-.12a2.17,2.17,0,0,1-1.3-.58l-.78-.64s-.08,0-.11,0a.12.12,0,0,0-.06.12V62a3.36,3.36,0,0,1,0,.52.15.15,0,0,0,.06.13.14.14,0,0,0,.14,0,17.38,17.38,0,0,0,5.12-2.42c.11-.1.12-.2,0-.29a22.57,22.57,0,0,1-2.6-3.62,1.17,1.17,0,0,1-.21-.66,1.4,1.4,0,0,1,.12-.55,1.45,1.45,0,0,1,.89-.84L546,54l0-.05s0,0,0,0h-1.83a1.6,1.6,0,0,1-1.59-1.59,1.53,1.53,0,0,1,.47-1.13,1.5,1.5,0,0,1,1.12-.46h9.55A.32.32,0,0,0,553.84,50.66Zm-18.47,1.7c0,.14.06.21.2.21h2.37a.18.18,0,0,0,.2-.21v-3a.18.18,0,0,0-.2-.2H535.6c-.14,0-.21.06-.21.2V50C535.39,51,535.38,51.8,535.37,52.36Zm2.77-9.62c0-.16-.07-.24-.2-.24H535.6q-.21,0-.21.24v2.89c0,.15.07.23.21.23h2.34c.13,0,.2-.08.2-.23Zm13.94,11.33a.28.28,0,0,0,0-.13.11.11,0,0,0-.12-.07h-5.15a.13.13,0,0,0-.1.07.12.12,0,0,0,0,.13,15.49,15.49,0,0,0,2.63,3.61c.1.12.19.12.29,0A15.77,15.77,0,0,0,552.08,54.07Z"/><path class="cls-2" d="M568.48,39.9a1.89,1.89,0,0,1,.93-1,1.77,1.77,0,0,1,.78-.17,1.88,1.88,0,0,1,.55.08l.08,0a1.58,1.58,0,0,1,1,.84,1.53,1.53,0,0,1,.15.67,1.21,1.21,0,0,1-.15.57,42.83,42.83,0,0,1-2.08,4.34.89.89,0,0,0-.11.4V64.13a1.69,1.69,0,0,1-1.68,1.68,1.71,1.71,0,0,1-1.68-1.68V50.89s0-.06,0-.07-.05,0-.07,0l-.75.92a1,1,0,0,1-.78.38l-.21,0a1.06,1.06,0,0,1-.83-.63c-.12-.22-.23-.42-.32-.61a2.38,2.38,0,0,1-.29-1.16,1.38,1.38,0,0,1,0-.26,2.5,2.5,0,0,1,.55-1.33A30.89,30.89,0,0,0,568.48,39.9Zm8.66,1.78a1.47,1.47,0,0,1-.45-1.08,1.52,1.52,0,0,1,.45-1.1,1.44,1.44,0,0,1,1.08-.46h5.47a2,2,0,0,1,1.3.47,2.42,2.42,0,0,1,.78,1.2,15.75,15.75,0,0,0,4.05,7.58,1.61,1.61,0,0,1,.52,1.21,1.57,1.57,0,0,1-.41,1.07c-.15.19-.32.39-.49.58a1.33,1.33,0,0,1-1,.55h-.18a1.24,1.24,0,0,1-.86-.35s-.05,0-.09,0a.07.07,0,0,0-.06.07v.11q-.15,6.57-.39,9.28a7.86,7.86,0,0,1-.85,3.53,3.38,3.38,0,0,1-2.11,1.3,9.64,9.64,0,0,1-1.74.12h0a1.81,1.81,0,0,1-1.21-.46,2.47,2.47,0,0,1-.75-1.22c0-.08,0-.14-.06-.2a1.36,1.36,0,0,1-.06-.38,1.13,1.13,0,0,1,.23-.66,1,1,0,0,1,.87-.46H582a1.12,1.12,0,0,0,1-.42,5.83,5.83,0,0,0,.5-2.32c.11-1.26.21-3.33.28-6.2,0-.13,0-.2-.2-.2h-3.24a.21.21,0,0,0-.23.2,22.29,22.29,0,0,1-1.7,6.65,12.5,12.5,0,0,1-3.88,4.8,1.62,1.62,0,0,1-.89.29,2.07,2.07,0,0,1-.35,0,1.83,1.83,0,0,1-1.1-.72,1.48,1.48,0,0,1-.32-.93v-.2a1.44,1.44,0,0,1,.61-1,9.09,9.09,0,0,0,2.95-3.69,17.6,17.6,0,0,0,1.24-5.16c0-.13,0-.2-.2-.2h-1.22a1.74,1.74,0,0,1-1.7-1.71v-.4a.07.07,0,0,0,0-.06s-.06,0-.08,0a1.43,1.43,0,0,0-.14.2,1.4,1.4,0,0,1-1.1.49,1.61,1.61,0,0,1-1.16-.47,1.64,1.64,0,0,1-.49-1.2,1.79,1.79,0,0,1,.41-1.16A19.79,19.79,0,0,0,574,43.46a1.92,1.92,0,0,1,.9-1,1.61,1.61,0,0,1,.84-.23,1.28,1.28,0,0,1,.46.08h.09a1.51,1.51,0,0,1,1,.78,1.71,1.71,0,0,1,.14.67,1.75,1.75,0,0,1-.11.58,31,31,0,0,1-3,5.58.11.11,0,0,0,0,.11.1.1,0,0,0,.09.06h11.71a.11.11,0,0,0,.11-.06s0-.07,0-.11a21.83,21.83,0,0,1-3.5-7.55.27.27,0,0,0-.29-.2h-4.19A1.47,1.47,0,0,1,577.14,41.68Z"/><path class="cls-2" d="M622.09,42.26a1.64,1.64,0,0,1,0,2.34,1.63,1.63,0,0,1-1.18.48h-14a.31.31,0,0,0-.29.2c-.31.69-.63,1.35-1,2a.07.07,0,0,0,0,.11.11.11,0,0,0,.1.06h11.79a1.72,1.72,0,0,1,1.71,1.71V62.05a5.27,5.27,0,0,1-.33,2.09,2.37,2.37,0,0,1-1.2,1.15,9.3,9.3,0,0,1-3.56.57h0a2,2,0,0,1-1.27-.46,2.21,2.21,0,0,1-.78-1.18L612,64a1.1,1.1,0,0,1-.06-.37,1.2,1.2,0,0,1,.21-.67,1,1,0,0,1,.89-.46h2.08a.76.76,0,0,0,.52-.13.58.58,0,0,0,.15-.45V60.4c0-.15-.07-.23-.2-.23H605.35c-.13,0-.2.08-.2.23v3.73a1.6,1.6,0,0,1-.51,1.21,1.64,1.64,0,0,1-1.2.5h-.08a1.69,1.69,0,0,1-1.71-1.71v-11a.07.07,0,0,0-.06-.07.11.11,0,0,0-.08,0,22,22,0,0,1-2.4,2.29,1.64,1.64,0,0,1-1,.35h-.26a2,2,0,0,1-1.18-.67.47.47,0,0,1-.09-.12,1.47,1.47,0,0,1-.37-1v-.14a1.55,1.55,0,0,1,.57-1.1,23.73,23.73,0,0,0,5.9-7.43.15.15,0,0,0,0-.13.11.11,0,0,0-.11-.07H598a1.65,1.65,0,0,1-1.19-.48,1.64,1.64,0,0,1,0-2.34,1.65,1.65,0,0,1,1.19-.48h6.07a.33.33,0,0,0,.32-.2l.61-1.76a1.8,1.8,0,0,1,.81-1,1.73,1.73,0,0,1,.89-.26,1.45,1.45,0,0,1,.41.06l.32.06a1.64,1.64,0,0,1,1,.75,1.62,1.62,0,0,1,.2.75,1.56,1.56,0,0,1-.09.5c-.11.34-.22.65-.32.92a.22.22,0,0,0,0,.16s.06.07.1.07h12.58A1.63,1.63,0,0,1,622.09,42.26Zm-6.47,10.13a.18.18,0,0,0,.2-.2V50.71a.18.18,0,0,0-.2-.2H605.35a.18.18,0,0,0-.2.2v1.48a.18.18,0,0,0,.2.2Zm-10.47,4.66a.18.18,0,0,0,.2.2h10.27a.18.18,0,0,0,.2-.2V55.54a.18.18,0,0,0-.2-.2H605.35a.18.18,0,0,0-.2.2Z"/><path class="cls-2" d="M636.44,39.47a1,1,0,0,1,.32-.06,1,1,0,0,1,.55.17l.78.47a1.71,1.71,0,0,1,.87,1.47,1.58,1.58,0,0,1-.09.52q-1.5,4.71-2.25,6.62a.46.46,0,0,0,0,.38,9,9,0,0,1,2.14,5.87.47.47,0,0,1,0,.17c0,1.83-.46,3.06-1.39,3.67a3.61,3.61,0,0,1-1.73.7l-.4,0-.12,0a1.52,1.52,0,0,1-1.07-.43,2.17,2.17,0,0,1-.69-1.19,1.33,1.33,0,0,1,0-.28,1.13,1.13,0,0,1,.23-.7,1.28,1.28,0,0,1,.87-.52,1.45,1.45,0,0,0,.6-.26,2,2,0,0,0,.55-1.65,7,7,0,0,0-1.18-3.84,4,4,0,0,1-.64-2.08,3.71,3.71,0,0,1,.12-.93q.46-1.56,1.3-4.8a.27.27,0,0,0,0-.13.13.13,0,0,0-.13-.07h-2.16a.21.21,0,0,0-.24.23V64.22a1.61,1.61,0,0,1-1.63,1.64,1.54,1.54,0,0,1-1.15-.47,1.59,1.59,0,0,1-.48-1.17v-23a1.67,1.67,0,0,1,1.7-1.7h5.21A.23.23,0,0,0,636.44,39.47Zm15,15.32a2,2,0,0,1,1.18-.63h.26a1.78,1.78,0,0,1,1,.31,1.31,1.31,0,0,1,.57,1.13,1.28,1.28,0,0,1-.43,1c-.93.85-1.79,1.58-2.6,2.2a.22.22,0,0,0,0,.32,11.23,11.23,0,0,0,3,2.89,1.35,1.35,0,0,1,.64.95v.26a1.36,1.36,0,0,1-.29.84c-.08.1-.15.2-.23.29a1.89,1.89,0,0,1-1.1.78,2.69,2.69,0,0,1-.4,0,1.72,1.72,0,0,1-.87-.26c-3.05-2.2-5.2-6-6.48-11.39a.27.27,0,0,0-.29-.2h-1.67c-.16,0-.23.07-.23.2v7.23c0,.13.07.19.23.17l2.51-.46.29,0a1.32,1.32,0,0,1,.81.29,1.38,1.38,0,0,1,.55,1,.49.49,0,0,1,0,.15,1.72,1.72,0,0,1-.35,1,1.76,1.76,0,0,1-1,.69L639.91,65a2.27,2.27,0,0,1-.43,0,1.72,1.72,0,0,1-.93-.26,1.75,1.75,0,0,1-.86-1l-.06-.17a1.29,1.29,0,0,1-.09-.46,1.52,1.52,0,0,1,.23-.76,1.44,1.44,0,0,1,1-.66c.61-.1,1-.15,1.18-.17a.23.23,0,0,0,.23-.26V41.23a1.68,1.68,0,0,1,.49-1.21,1.66,1.66,0,0,1,1.22-.49H652.2a1.66,1.66,0,0,1,1.2.49,1.62,1.62,0,0,1,.51,1.21V51.58a1.61,1.61,0,0,1-.51,1.2,1.64,1.64,0,0,1-1.2.51H649a.15.15,0,0,0-.13.06.13.13,0,0,0,0,.14,20.3,20.3,0,0,0,.95,2.75c.06.11.15.12.26,0C650.55,55.75,651,55.25,651.45,54.79Zm-1-12a.21.21,0,0,0-.23-.23h-6.42a.2.2,0,0,0-.23.23V44.7c0,.14.07.2.23.2h6.42c.15,0,.23-.06.23-.2Zm-6.65,5c-.16,0-.23.07-.23.23v2c0,.13.07.2.23.2h6.42c.15,0,.23-.07.23-.2V48a.2.2,0,0,0-.23-.23Z"/><path class="cls-2" d="M667.85,40.45a1.89,1.89,0,0,1,.93-1,1.79,1.79,0,0,1,.84-.2,3.15,3.15,0,0,1,.52,0l.75.24a1.44,1.44,0,0,1,1,.81,1.27,1.27,0,0,1,.15.6,1.31,1.31,0,0,1-.15.61,35.63,35.63,0,0,1-6.16,9.28,1.5,1.5,0,0,1-1.18.52h0a1.85,1.85,0,0,1-1.24-.43c-.24-.2-.47-.38-.7-.55a1.34,1.34,0,0,1-.11-2.08A25.73,25.73,0,0,0,667.85,40.45Zm10.47,16.39a1.35,1.35,0,0,1-.26-.81,2,2,0,0,1,0-.34,1.29,1.29,0,0,1,.78-.93l.34-.17a2,2,0,0,1,.9-.2,2.91,2.91,0,0,1,.49,0,2,2,0,0,1,1.19.78,69.32,69.32,0,0,1,4.94,7.38,1.5,1.5,0,0,1,.23.78,1.37,1.37,0,0,1-.09.49,1.56,1.56,0,0,1-.83,1l-.64.35a1.86,1.86,0,0,1-.75.17,1.54,1.54,0,0,1-.52-.09,1.65,1.65,0,0,1-1-.83c-.12-.22-.25-.43-.38-.64a.28.28,0,0,0-.32-.17q-10.44.69-17.87,1s0,0-.08,0a1.81,1.81,0,0,1-1.19-.44,1.84,1.84,0,0,1-.63-1.18l0-.32a.91.91,0,0,1,0-.23,1.43,1.43,0,0,1,.37-1,1.49,1.49,0,0,1,1.13-.55l2.2-.09a.33.33,0,0,0,.32-.2,70.39,70.39,0,0,0,4.42-10.15,2.06,2.06,0,0,1,.87-1,1.82,1.82,0,0,1,.89-.23,2,2,0,0,1,.44.05l.92.21a1.37,1.37,0,0,1,1,.75,1.46,1.46,0,0,1,0,1.18q-2.2,4.95-4.51,9a.16.16,0,0,0,0,.15.12.12,0,0,0,.1.06l9.66-.5a.1.1,0,0,0,.11-.07.15.15,0,0,0,0-.13Q679.51,58.46,678.32,56.84Zm-.67-15a1.45,1.45,0,0,1-.2-.72,1.54,1.54,0,0,1,.09-.52,1.36,1.36,0,0,1,.83-.9l.38-.15a2,2,0,0,1,.72-.14,1.77,1.77,0,0,1,.64.12,1.91,1.91,0,0,1,1,.86,39,39,0,0,0,5.75,7.4,1.62,1.62,0,0,1,.47,1.13,1.65,1.65,0,0,1-.52,1.22c-.22.21-.42.42-.61.63a1.49,1.49,0,0,1-1.13.49h0a1.41,1.41,0,0,1-1.07-.46A60.54,60.54,0,0,1,677.65,41.87Z"/><path class="cls-2" d="M717.3,40a1.64,1.64,0,0,1,1.2.51,1.6,1.6,0,0,1,.51,1.19V61.38a6.41,6.41,0,0,1-.36,2.43,2.5,2.5,0,0,1-1.29,1.27,9.6,9.6,0,0,1-4,.7h-.06a1.88,1.88,0,0,1-1.24-.47,2.17,2.17,0,0,1-.78-1.21c-.06-.17-.12-.36-.18-.55a1.72,1.72,0,0,1-.05-.37,1.07,1.07,0,0,1,.23-.67,1,1,0,0,1,.89-.49l0,0h1.13c.52,0,1,0,1.33,0a.9.9,0,0,0,.58-.15.66.66,0,0,0,.17-.52V43.55c0-.14-.07-.21-.23-.21H696.4a1.62,1.62,0,0,1-1.19-.49,1.68,1.68,0,0,1,0-2.37A1.62,1.62,0,0,1,696.4,40Zm-6.42,5.46A1.52,1.52,0,0,1,712.41,47a1.46,1.46,0,0,1-.44,1.08,1.48,1.48,0,0,1-1.09.45H696.54a1.54,1.54,0,0,1,0-3.07Zm0,13.56a1.65,1.65,0,0,1-.49,1.2,1.62,1.62,0,0,1-1.21.51h-9c-.16,0-.24.07-.24.2v.23a1.66,1.66,0,0,1-.49,1.2,1.62,1.62,0,0,1-1.21.51h0a1.74,1.74,0,0,1-1.71-1.71V52.42a1.6,1.6,0,0,1,.51-1.21,1.67,1.67,0,0,1,1.2-.5h11a1.65,1.65,0,0,1,1.21.5,1.62,1.62,0,0,1,.49,1.21ZM707.41,54c0-.15-.06-.23-.2-.23h-7A.21.21,0,0,0,700,54v3.53c0,.14.08.2.24.2h7c.14,0,.2-.06.2-.2Z"/><rect class="cls-2" x="532.7" y="94.12" width="190.79" height="46.73" rx="22.47"/><path class="cls-3" d="M560.62,131.21a12.31,12.31,0,0,1-4.11-.68,10.43,10.43,0,0,1-3.42-2,9.13,9.13,0,0,1-2.36-3.38,12.15,12.15,0,0,1-.87-4.72,14,14,0,0,1,1-5.42,12.37,12.37,0,0,1,2.78-4.21,12.82,12.82,0,0,1,9-3.63A9.81,9.81,0,0,1,570,110a10,10,0,0,1,2.74,7.3,9.66,9.66,0,0,1-.59,3.44,7.06,7.06,0,0,1-1.52,2.49,6.92,6.92,0,0,1-2,1.46,5.29,5.29,0,0,1-2.23.51,3.77,3.77,0,0,1-2.13-.58,2.47,2.47,0,0,1-1.11-1.61s0,0,0,0a.05.05,0,0,0,0,0,5,5,0,0,1-1.6,1.38,3.85,3.85,0,0,1-1.89.53,3.42,3.42,0,0,1-2.68-1.15,4.54,4.54,0,0,1-1-3.13,7.84,7.84,0,0,1,.73-3.3,7,7,0,0,1,2.08-2.64,4.74,4.74,0,0,1,2.94-1,2.33,2.33,0,0,1,2.22,1.4s0,0,0,0,0,0,.05,0l0-.1a1.63,1.63,0,0,1,.58-.77,1.53,1.53,0,0,1,.91-.3h0a.93.93,0,0,1,.75.35.87.87,0,0,1,.22.57,1.8,1.8,0,0,1,0,.22l-1,5.09a5,5,0,0,0-.17,1.17,1.36,1.36,0,0,0,1.54,1.54,3.08,3.08,0,0,0,2.49-1.51,6.45,6.45,0,0,0,1.1-3.89,9.72,9.72,0,0,0-.47-3.06,7.7,7.7,0,0,0-1.41-2.5,6.26,6.26,0,0,0-2.49-1.72,9.69,9.69,0,0,0-3.58-.62,8.81,8.81,0,0,0-3.64.79,10.57,10.57,0,0,0-3.18,2.15,10,10,0,0,0-2.24,3.44,11.54,11.54,0,0,0-.85,4.46,10,10,0,0,0,.67,3.72,7.13,7.13,0,0,0,1.85,2.69,8.11,8.11,0,0,0,2.7,1.58,9.6,9.6,0,0,0,3.3.55,9,9,0,0,0,3.44-.7,1.41,1.41,0,0,1,.45-.07,1.07,1.07,0,0,1,.39.07.94.94,0,0,1,.6.57,1.12,1.12,0,0,1,.1.48,1.32,1.32,0,0,1-.07.42,1.15,1.15,0,0,1-.63.65A11.51,11.51,0,0,1,560.62,131.21Zm-.3-8.67a2.83,2.83,0,0,0,2-1.27.88.88,0,0,0,.17-.35l.68-3.71a.48.48,0,0,0-.08-.33,1.65,1.65,0,0,0-1.42-.79,2.2,2.2,0,0,0-1.59.71,4.36,4.36,0,0,0-1.07,1.68,5.53,5.53,0,0,0-.35,1.94,2.4,2.4,0,0,0,.45,1.58A1.5,1.5,0,0,0,560.32,122.54Z"/><path class="cls-3" d="M577.66,125.48a1.24,1.24,0,0,1-.52-1.07,1.44,1.44,0,0,1,.37-1l0,0a1.4,1.4,0,0,1,1-.5h.14a2,2,0,0,1,1,.25,4.1,4.1,0,0,0,1.81.45,3.37,3.37,0,0,0,2.81-1.46,8.51,8.51,0,0,0,1.2-4.69s0-.06,0-.07-.05,0-.06,0a5.36,5.36,0,0,1-1.77,1.4,4.56,4.56,0,0,1-2,.51,5.21,5.21,0,0,1-3.92-1.52,6,6,0,0,1-1.48-4.4,6.17,6.17,0,0,1,1.72-4.57,5.69,5.69,0,0,1,4.23-1.74,6.17,6.17,0,0,1,2.57.55,6.46,6.46,0,0,1,2.15,1.66,8,8,0,0,1,1.51,2.94,14.94,14.94,0,0,1,.55,4.22,16,16,0,0,1-.6,4.59,8.64,8.64,0,0,1-1.63,3.21,7.11,7.11,0,0,1-2.31,1.8,6.11,6.11,0,0,1-2.71.61A7.19,7.19,0,0,1,577.66,125.48Zm4.71-8.82a3.62,3.62,0,0,0,3-1.87.41.41,0,0,0,.07-.32,6.69,6.69,0,0,0-1.1-3.45,2.63,2.63,0,0,0-2.11-1.09,2.25,2.25,0,0,0-1.84.9,4,4,0,0,0-.72,2.57,3.61,3.61,0,0,0,.71,2.44A2.49,2.49,0,0,0,582.37,116.66Z"/><path class="cls-3" d="M604.39,118.58a1.36,1.36,0,0,1,1,.41,1.38,1.38,0,0,1,.41,1,1.42,1.42,0,0,1-1.42,1.42h-.62c-.14,0-.2.06-.2.2v3.23a1.42,1.42,0,0,1-.43,1,1.39,1.39,0,0,1-1,.43h-.55a1.4,1.4,0,0,1-1-.43,1.43,1.43,0,0,1-.44-1v-3.23c0-.14-.06-.2-.17-.2h-6.58a1.26,1.26,0,0,1-1.27-1.27,4.59,4.59,0,0,1,.65-2.37l5.6-9.09a2.82,2.82,0,0,1,1-.91,2.52,2.52,0,0,1,1.27-.34h1.55a1.49,1.49,0,0,1,1.47,1.47v9.47a.18.18,0,0,0,.2.2Zm-8.59-.18a.11.11,0,0,0,0,.11s0,.07.07.07h4c.11,0,.17-.07.17-.2v-3.66c0-.44,0-1.72.15-3.86,0,0,0,0-.05,0a.06.06,0,0,0-.07,0c-.49,1.06-1,2.06-1.47,3Z"/><path class="cls-3" d="M610,126.32a1,1,0,0,1-.77-.31,1,1,0,0,1-.33-.78,2.35,2.35,0,0,1,.8-1.8,43.09,43.09,0,0,0,5.53-5.85,7.81,7.81,0,0,0,1.84-4.46,3.23,3.23,0,0,0-.74-2.25,2.72,2.72,0,0,0-2.1-.81,3.87,3.87,0,0,0-2.41.94,1.75,1.75,0,0,1-1.07.38,1.38,1.38,0,0,1-1-.4,1.44,1.44,0,0,1-.45-1,1.24,1.24,0,0,1,.48-1,7.35,7.35,0,0,1,5-1.85,5.91,5.91,0,0,1,4.3,1.6,5.6,5.6,0,0,1,1.63,4.21q0,4.27-6.13,10.33a.05.05,0,0,0,0,.08,0,0,0,0,0,.07,0c1.18-.11,2.14-.17,2.87-.17h2.64a1.5,1.5,0,0,1,1.47,1.47v.22a1.43,1.43,0,0,1-.44,1,1.4,1.4,0,0,1-1,.43Z"/><path class="cls-3" d="M627.37,132.13a4.45,4.45,0,0,1-.53,0,1.07,1.07,0,0,1-.92-.55,1.46,1.46,0,0,1-.22-.77,1.26,1.26,0,0,1,0-.37v0c.16-.69.76-1.12,1.79-1.27a2.78,2.78,0,0,0,2.22-2.14l.2-.67a.43.43,0,0,0,0-.35l-5-12.48a1.07,1.07,0,0,1-.08-.37.91.91,0,0,1,.18-.55.93.93,0,0,1,.82-.45h.85a2,2,0,0,1,1.18.39,2,2,0,0,1,.76,1l1.79,5.23c0,.13.44,1.46,1.17,4a.11.11,0,0,0,.18,0c.1-.43.26-1.09.5-2s.4-1.56.5-2l1.54-5.21a2,2,0,0,1,.72-1,1.86,1.86,0,0,1,1.17-.4h.65a1,1,0,0,1,.87.45,1,1,0,0,1,.2.57,1.1,1.1,0,0,1-.07.38l-4.59,13.32a10.87,10.87,0,0,1-2.36,4A5,5,0,0,1,627.37,132.13Z"/><path class="cls-3" d="M646.25,126.67q-4.38,0-4.38-5.7v-7.45a1.46,1.46,0,0,1,.42-1,1.42,1.42,0,0,1,1.05-.42h.79a1.42,1.42,0,0,1,1,.42,1.46,1.46,0,0,1,.42,1v7a4.11,4.11,0,0,0,.48,2.29,1.74,1.74,0,0,0,1.52.67,2.92,2.92,0,0,0,1.47-.37,5.35,5.35,0,0,0,1.32-1.28.44.44,0,0,0,.12-.32v-8a1.46,1.46,0,0,1,.42-1,1.44,1.44,0,0,1,1.05-.42h.8a1.45,1.45,0,0,1,1.47,1.47v11.33a1.42,1.42,0,0,1-.43,1,1.39,1.39,0,0,1-1,.43h-.1a1.6,1.6,0,0,1-1.12-.41,1.55,1.55,0,0,1-.55-1l-.08-.55a.08.08,0,0,0-.07,0,.1.1,0,0,0-.08,0A5.89,5.89,0,0,1,646.25,126.67Z"/><path class="cls-3" d="M659.38,126.32a.8.8,0,0,1-.72-.42.85.85,0,0,1-.1-.4,1,1,0,0,1,.12-.45l3.62-6a.27.27,0,0,0,0-.3L659,113.3a.76.76,0,0,1,0-.85.76.76,0,0,1,.72-.4h1.07a2.45,2.45,0,0,1,1.28.34,2.26,2.26,0,0,1,.91.93l.73,1.27c.41.8.83,1.58,1.24,2.34a.07.07,0,0,0,.08,0s0,0,.07,0c.1-.25.27-.63.5-1.16s.41-.91.52-1.18l.58-1.22a2.32,2.32,0,0,1,.85-1,2.27,2.27,0,0,1,1.24-.36h.94a.76.76,0,0,1,.73.42.81.81,0,0,1,.12.42.9.9,0,0,1-.12.43l-3.34,5.83a.27.27,0,0,0,0,.32l3.56,5.61a.77.77,0,0,1,.15.42.7.7,0,0,1-.13.4.73.73,0,0,1-.69.42h-1.1a2.57,2.57,0,0,1-2.21-1.24l-.83-1.35s-.2-.39-.54-1l-.8-1.46a.11.11,0,0,0-.1,0,.1.1,0,0,0-.1,0q-.15.35-1.17,2.49l-.65,1.27a2.18,2.18,0,0,1-.88,1,2.35,2.35,0,0,1-1.26.35Z"/><path class="cls-3" d="M675.93,132.13a4.45,4.45,0,0,1-.53,0,1.07,1.07,0,0,1-.92-.55,1.46,1.46,0,0,1-.22-.77,1.26,1.26,0,0,1,0-.37v0c.16-.69.76-1.12,1.79-1.27a2.78,2.78,0,0,0,2.22-2.14l.2-.67a.43.43,0,0,0,0-.35l-5-12.48a1,1,0,0,1-.07-.37.9.9,0,0,1,.17-.55.93.93,0,0,1,.82-.45h.85a2,2,0,0,1,1.18.39,2,2,0,0,1,.76,1l1.79,5.23c.05.13.44,1.46,1.18,4,0,0,0,.05.08.05a.09.09,0,0,0,.09-.05c.1-.43.26-1.09.5-2s.4-1.56.5-2l1.54-5.21a2,2,0,0,1,.72-1,1.86,1.86,0,0,1,1.17-.4h.65a1,1,0,0,1,.87.45,1,1,0,0,1,.2.57,1.1,1.1,0,0,1-.07.38l-4.59,13.32a10.87,10.87,0,0,1-2.36,4A5,5,0,0,1,675.93,132.13Z"/><path class="cls-3" d="M696.45,126.67a6.7,6.7,0,0,1-5-2,7.48,7.48,0,0,1-2-5.47,7.87,7.87,0,0,1,1-4,6.69,6.69,0,0,1,2.67-2.61,7.58,7.58,0,0,1,3.61-.87,6.05,6.05,0,0,1,2.94.74,1.17,1.17,0,0,1,.62.93.73.73,0,0,1,0,.22,1.39,1.39,0,0,1-.3.87l-.05,0a1.26,1.26,0,0,1-.95.55,1.41,1.41,0,0,1-.35,0,2.15,2.15,0,0,1-.82-.17,2.51,2.51,0,0,0-.95-.18,3.24,3.24,0,0,0-2.62,1.22,5.71,5.71,0,0,0,0,6.44,3.14,3.14,0,0,0,2.55,1.21,3.92,3.92,0,0,0,1.57-.35,1.59,1.59,0,0,1,.73-.17,2.42,2.42,0,0,1,.37,0,1.24,1.24,0,0,1,.85.6,1.53,1.53,0,0,1,.22,1.14,1.3,1.3,0,0,1-.65.93A7.16,7.16,0,0,1,696.45,126.67Z"/><path class="cls-2" d="M398.63,110.8a1,1,0,0,1-.14-.51,1.24,1.24,0,0,1,.06-.37,1,1,0,0,1,.6-.62l.23-.08a1.13,1.13,0,0,1,.93,0,1.47,1.47,0,0,1,.75.62,21.61,21.61,0,0,0,2.12,2.94,24.68,24.68,0,0,0,2.54,2.64,1,1,0,0,1,.36.79,1.05,1.05,0,0,1-.32.77l-.47.48a1.14,1.14,0,0,1-.79.41h-.08a1,1,0,0,1-.73-.31l-.36-.38s-.05,0-.07,0a.06.06,0,0,0,0,.06c-.12,3.23-.27,5.52-.44,6.89a5.84,5.84,0,0,1-.78,2.69,2.29,2.29,0,0,1-.8.68,3.66,3.66,0,0,1-1.08.3,15.19,15.19,0,0,1-1.75.08h-.2a1.29,1.29,0,0,1-.87-.35,1.87,1.87,0,0,1-.55-.85,1.43,1.43,0,0,0-.08-.22,1.45,1.45,0,0,1,0-.29.75.75,0,0,1,.14-.42.65.65,0,0,1,.57-.33h0c.57,0,1.08.05,1.54.05a1.07,1.07,0,0,0,.83-.29,3.88,3.88,0,0,0,.49-1.81c.12-1,.23-2.54.32-4.65,0-.11,0-.16-.14-.16h-3.79c-.09,0-.15,0-.16.16a20.85,20.85,0,0,1-.4,2.13,13.78,13.78,0,0,1-.7,2,9.17,9.17,0,0,1-1.11,1.85,9.3,9.3,0,0,1-1.64,1.61,12.21,12.21,0,0,1-2.27,1.37,1.36,1.36,0,0,1-.51.1,1,1,0,0,1-.42-.08,1.5,1.5,0,0,1-.77-.6c-.08-.13-.16-.24-.24-.35a.82.82,0,0,1-.19-.53,2,2,0,0,1,0-.22.8.8,0,0,1,.49-.57,9.5,9.5,0,0,0,2.28-1.28,6.19,6.19,0,0,0,1.49-1.64,8.6,8.6,0,0,0,.83-1.78,12.1,12.1,0,0,0,.45-2c0-.11,0-.16-.15-.16H391.5a1.18,1.18,0,0,1-.86-.35,1.15,1.15,0,0,1-.34-.85v-.1a.05.05,0,0,0,0-.06s-.05,0-.06,0c-.22.21-.43.42-.65.61a1.15,1.15,0,0,1-.77.3h-.1a1.4,1.4,0,0,1-.87-.4l-.37-.35a.91.91,0,0,1-.32-.71.93.93,0,0,1,.36-.77,16.62,16.62,0,0,0,4.68-6,1.39,1.39,0,0,1,.67-.68,1.37,1.37,0,0,1,.59-.13,2.46,2.46,0,0,1,.37,0l.36.11a1,1,0,0,1,.65.56,1,1,0,0,1,.1.43,1,1,0,0,1-.1.44,24.35,24.35,0,0,1-3.51,5.33s0,0,0,.06a.07.07,0,0,0,.06,0h10.9a.05.05,0,0,0,.06,0,0,0,0,0,0,0-.06A35,35,0,0,1,398.63,110.8Z"/><path class="cls-2" d="M416.22,119a1.61,1.61,0,0,1,.32,1,1.63,1.63,0,0,1-.3,1,.69.69,0,0,1-.57.3h-.08a.75.75,0,0,1-.59-.4c-.2-.38-.44-.81-.73-1.28,0,0,0,0,0,0a0,0,0,0,0,0,0v7.19a1.12,1.12,0,0,1-.34.83,1.17,1.17,0,0,1-1.67,0,1.1,1.1,0,0,1-.36-.83V120s0,0,0,0,0,0,0,0a22.2,22.2,0,0,1-1.52,3.36.54.54,0,0,1-.48.28h-.09a.66.66,0,0,1-.56-.38,1.42,1.42,0,0,1-.08-.18,2,2,0,0,1-.23-.92,2,2,0,0,1,.31-1.09,20.17,20.17,0,0,0,2.39-5.8.13.13,0,0,0-.1-.16h-1.26a1.13,1.13,0,0,1-.81-.33A1.11,1.11,0,0,1,409,114a1.08,1.08,0,0,1,.34-.82,1.1,1.1,0,0,1,.81-.34h1.52c.09,0,.14,0,.14-.16v-2.92a1.11,1.11,0,0,1,.36-.83,1.18,1.18,0,0,1,2,.83v2.92a.14.14,0,0,0,.16.16h1.2a1.1,1.1,0,0,1,.81.34,1.08,1.08,0,0,1,.34.82,1.11,1.11,0,0,1-.34.82,1.13,1.13,0,0,1-.81.33h-1.2a.15.15,0,0,0-.16.16v1a.38.38,0,0,0,.1.26C414.78,117.11,415.42,117.92,416.22,119ZM427,115.52a1.13,1.13,0,0,1,1.15,1.15,1.11,1.11,0,0,1-.33.82,1.09,1.09,0,0,1-.82.34h-1.34a.14.14,0,0,0-.16.16v8.71a1.2,1.2,0,0,1-1.2,1.2h-.06a1.18,1.18,0,0,1-.84-.35,1.12,1.12,0,0,1-.35-.85V118c0-.11-.05-.16-.15-.16h-2.43a.14.14,0,0,0-.16.16,18.65,18.65,0,0,1-2.33,8.91.84.84,0,0,1-.69.41h-.06a1.16,1.16,0,0,1-.75-.28l-.08-.08a1.33,1.33,0,0,1-.49-.78,2.46,2.46,0,0,1,0-.26,1.35,1.35,0,0,1,.17-.63,12.12,12.12,0,0,0,1-2.25,14,14,0,0,0,.58-2.5c.11-.86.19-1.62.23-2.3s.06-1.42.06-2.25v-4.8a.82.82,0,0,1,.37-.71.84.84,0,0,1,.54-.2.77.77,0,0,1,.25,0l.64.18a.54.54,0,0,0,.31,0,28.39,28.39,0,0,0,4.29-1.27,1.78,1.78,0,0,1,.71-.15,2.17,2.17,0,0,1,1.28.49l.32.3a.71.71,0,0,1,.25.55v.14a.7.7,0,0,1-.47.57,39.35,39.35,0,0,1-5.92,1.5.16.16,0,0,0-.16.18v2.56a.15.15,0,0,0,.16.16Z"/><path class="cls-2" d="M436.61,112.42c-.1,0-.15,0-.15.16v1.11c0,.11.05.17.15.17h2.29a1,1,0,0,1,.73.3,1,1,0,0,1,0,1.46,1,1,0,0,1-.73.3h-.61v0a.63.63,0,0,1,.41.35.56.56,0,0,1,0,.52c-.39.91-.58,1.37-.58,1.38a.09.09,0,0,0,0,.1s0,0,.08,0h.36a1,1,0,0,1,.73.31,1,1,0,0,1,.31.73,1,1,0,0,1-.31.73,1,1,0,0,1-.73.3h-2c-.1,0-.15,0-.15.16v1.3c0,.09.05.14.15.14h1.74a1,1,0,0,1,.73.3,1,1,0,0,1,.3.75,1,1,0,0,1-.3.73,1,1,0,0,1-.73.31h-1.74c-.1,0-.15,0-.15.14v2.49a1.09,1.09,0,0,1-.33.8,1.13,1.13,0,0,1-1.62,0,1.09,1.09,0,0,1-.33-.8v-2.49c0-.09-.05-.14-.15-.14h-1.9a1,1,0,0,1-1.05-1,1,1,0,0,1,.3-.75,1,1,0,0,1,.75-.3H434c.1,0,.15,0,.15-.14v-1.3c0-.11-.05-.16-.15-.16H432a1,1,0,0,1-1-1,1.06,1.06,0,0,1,1-1h.38c.1,0,.14,0,.12-.14a8.85,8.85,0,0,0-.42-1.44.62.62,0,0,1,0-.5.56.56,0,0,1,.38-.31v0h-.93a1,1,0,1,1,0-2.06H434c.1,0,.15-.06.15-.17v-1.11c0-.11-.05-.16-.15-.16h-1.8a1,1,0,0,1-1-1,1,1,0,0,1,1-1H434c.1,0,.15,0,.15-.16v-.51a1.14,1.14,0,0,1,2.28,0v.51c0,.11.05.16.15.16h1.54a1,1,0,0,1,.71.29,1,1,0,0,1,.3.72,1,1,0,0,1-.3.72,1,1,0,0,1-.71.3Zm.14,5.91s0,0,0,0h0a.57.57,0,0,1-.35-.28.55.55,0,0,1,0-.47c.21-.58.36-1.08.47-1.5a.1.1,0,0,0,0-.09.11.11,0,0,0-.09,0h-2.86a.08.08,0,0,0-.08,0,.14.14,0,0,0,0,.09,12,12,0,0,1,.53,1.48.65.65,0,0,1-.07.48.67.67,0,0,1-.4.29v0Zm10.84-1.82a1,1,0,0,1,.3,0,1.35,1.35,0,0,1,.43.08l.36.14a.86.86,0,0,1,.5.4.89.89,0,0,1,.11.62,21.13,21.13,0,0,1-2,5.89.17.17,0,0,0,0,.24,10,10,0,0,0,1.76,1.54,1,1,0,0,1,.42.69v.15a1,1,0,0,1-.22.62l-.1.12a1.32,1.32,0,0,1-.79.49.64.64,0,0,1-.22,0,1.06,1.06,0,0,1-.65-.22,13.16,13.16,0,0,1-1.5-1.42.12.12,0,0,0-.2,0,13.65,13.65,0,0,1-1.24,1.36,1.13,1.13,0,0,1-.71.26h-.14a1.36,1.36,0,0,1-.83-.42l-.29-.29h-.07a.05.05,0,0,0,0,0,1,1,0,0,1-.32.78,1.07,1.07,0,0,1-.77.32h0a1.14,1.14,0,0,1-1.12-1.12V110.61a1.14,1.14,0,0,1,.36-.85,1.15,1.15,0,0,1,.84-.34h6.26a1.15,1.15,0,0,1,.85.34,1.17,1.17,0,0,1,.35.85v2.7a3.06,3.06,0,0,1-.23,1.3,1.36,1.36,0,0,1-.81.68,6,6,0,0,1-2.31.35h0a1.29,1.29,0,0,1-.81-.28,1.69,1.69,0,0,1-.55-.77,1.45,1.45,0,0,1,0-.29.68.68,0,0,1,.15-.42.64.64,0,0,1,.58-.31c.42,0,.88,0,1.36,0a.63.63,0,0,0,.34-.09.27.27,0,0,0,.09-.23v-1.54c0-.11-.06-.16-.17-.16h-3.82c-.1,0-.15.05-.15.16v4.64c0,.11,0,.16.15.16h4.8Zm-5,3s0,0,0,0,0,0,0,0v6.28a.07.07,0,0,0,0,.07.11.11,0,0,0,.08,0,10.77,10.77,0,0,0,1.79-1.9.23.23,0,0,0,0-.25A21.74,21.74,0,0,1,442.58,119.47Zm4.24-.85c0-.1,0-.14-.12-.14h-2.27a.09.09,0,0,0-.09,0,.08.08,0,0,0,0,.09,15.83,15.83,0,0,0,1.35,3,.09.09,0,0,0,.07,0,.16.16,0,0,0,.08,0A16.12,16.12,0,0,0,446.82,118.62Z"/><path class="cls-2" d="M463.78,115.72c0,.09.06.14.16.14h6a1.08,1.08,0,0,1,.82.34,1.11,1.11,0,0,1,.34.81,1.14,1.14,0,0,1-.34.81,1.11,1.11,0,0,1-.82.33H454a1.13,1.13,0,0,1-1.15-1.14,1.14,1.14,0,0,1,1.15-1.15H461a.13.13,0,0,0,.14-.14v-2.09c0-.1-.05-.16-.14-.16h-4.24a.25.25,0,0,0-.22.14,11,11,0,0,1-.87,1.28,1.19,1.19,0,0,1-.81.49h-.21a1.42,1.42,0,0,1-.75-.21.77.77,0,0,0-.18-.1.9.9,0,0,1-.46-.67.41.41,0,0,1,0-.16,1,1,0,0,1,.22-.61,14.92,14.92,0,0,0,2.31-3.93,1.45,1.45,0,0,1,.65-.71,1.17,1.17,0,0,1,.6-.16,1.35,1.35,0,0,1,.33,0l.14,0a1.06,1.06,0,0,1,.69.55.88.88,0,0,1,.14.46,1.15,1.15,0,0,1-.08.41l-.34.75a.08.08,0,0,0,0,.09.09.09,0,0,0,.09,0h3c.09,0,.14,0,.14-.16v-1.34a1.15,1.15,0,0,1,.35-.85,1.17,1.17,0,0,1,.84-.34h.23a1.16,1.16,0,0,1,.85.34,1.15,1.15,0,0,1,.34.85v1.34a.14.14,0,0,0,.16.16h4.76a1.12,1.12,0,0,1,.81.33,1.06,1.06,0,0,1,.33.8,1.09,1.09,0,0,1-.33.8,1.15,1.15,0,0,1-.81.32h-4.76a.15.15,0,0,0-.16.16ZM456.41,128a1.15,1.15,0,0,1-.84-.35,1.13,1.13,0,0,1-.36-.85v-6a1.21,1.21,0,0,1,1.2-1.2h11.5a1.18,1.18,0,0,1,.86.35,1.22,1.22,0,0,1,.34.85v5.93a1.18,1.18,0,0,1-1.2,1.2h-.6a.82.82,0,0,1-.6-.25.79.79,0,0,1-.25-.6c0-.07,0-.1-.11-.1h-8.48c-.09,0-.13,0-.13.12a.85.85,0,0,1-.26.63.89.89,0,0,1-.63.26Zm10-5.94c0-.11,0-.16-.15-.16h-8.4c-.11,0-.17,0-.17.16v2.49c0,.1.06.15.17.15h8.4a.13.13,0,0,0,.15-.15Z"/><path class="cls-2" d="M490.37,122.93a.4.4,0,0,0-.26-.1l-5.05.16c-.11,0-.16.06-.16.17v3.56a1.15,1.15,0,0,1-.35.85,1.14,1.14,0,0,1-.85.35h0a1.17,1.17,0,0,1-.85-.35,1.15,1.15,0,0,1-.34-.85v-3.48c0-.11-.06-.16-.16-.14l-6.41.16h0a1.06,1.06,0,0,1-.77-.31,1.11,1.11,0,0,1-.38-.85,1.06,1.06,0,0,1,1-1l3.41,0a.8.8,0,0,0,.3-.06l.67-.41a.07.07,0,0,0,0-.07.18.18,0,0,0,0-.09c-.72-.53-1.52-1-2.41-1.58a.72.72,0,0,1-.41-.67.69.69,0,0,1,.26-.54l.15-.13a1.4,1.4,0,0,1,.71-.32h.14a1.38,1.38,0,0,1,.59.14.14.14,0,0,0,.18,0,20.94,20.94,0,0,0,1.76-1.6.06.06,0,0,0,0-.06s0,0-.05,0h-3.85c-.11,0-.16.05-.16.14v.93a1.09,1.09,0,0,1-.35.82,1.12,1.12,0,0,1-.83.34,1.09,1.09,0,0,1-.82-.34,1.11,1.11,0,0,1-.33-.82v-1.94a1.19,1.19,0,0,1,1.19-1.2h6.35a.13.13,0,0,0,.14-.14v-1a.12.12,0,0,0-.14-.14H476a1,1,0,0,1-.75-.32,1.05,1.05,0,0,1-.3-.75,1,1,0,0,1,.3-.74,1.05,1.05,0,0,1,.75-.3h6.31c.09,0,.14-.06.14-.16v-.27a1.13,1.13,0,0,1,.35-.85,1.17,1.17,0,0,1,.84-.34h0a1.15,1.15,0,0,1,.85.34,1.17,1.17,0,0,1,.35.85V110a.14.14,0,0,0,.16.16h6.44a1,1,0,0,1,.75.3,1,1,0,0,1,.31.74,1,1,0,0,1-.31.75,1,1,0,0,1-.75.32H485c-.11,0-.16,0-.16.14v1c0,.09.05.14.16.14h6.57a1.19,1.19,0,0,1,1.19,1.2v1.9a1.15,1.15,0,0,1-.34.85,1.17,1.17,0,0,1-.85.35h0a1.17,1.17,0,0,1-.85-.35,1.15,1.15,0,0,1-.34-.85v-.89c0-.09-.05-.14-.16-.14h-6.63s0,0,0,0v0a.33.33,0,0,1,.23.3.44.44,0,0,1-.13.39q-1.22,1-2.49,2a.08.08,0,0,0,0,.08.1.1,0,0,0,0,.09c.38.24.72.47,1,.68a.22.22,0,0,0,.27,0c1.09-.73,2.1-1.46,3-2.2a1.8,1.8,0,0,1,.95-.41l.2,0a1.76,1.76,0,0,1,.81.2l.1.06a.74.74,0,0,1,.39.69.68.68,0,0,1-.31.59c-1.37,1-2.84,2-4.39,2.88,0,0,0,0,0,0s0,0,.05,0l4.56-.06a.05.05,0,0,0,.05,0,.07.07,0,0,0,0,0c-.17-.13-.33-.25-.51-.37a.71.71,0,0,1-.32-.63.67.67,0,0,1,.28-.56,1.46,1.46,0,0,1,.83-.31h.06a1.25,1.25,0,0,1,.77.25,34.68,34.68,0,0,1,3.24,2.35.82.82,0,0,1,.33.68.87.87,0,0,1-.37.75,1.2,1.2,0,0,1-.79.29h-.06a1.23,1.23,0,0,1-.83-.35A.21.21,0,0,1,490.37,122.93ZM478,124a2.14,2.14,0,0,1,1.32-.49,2.08,2.08,0,0,1,.71.14l.1,0a.74.74,0,0,1,.48.55.66.66,0,0,1-.24.69,19.9,19.9,0,0,1-3.26,2.29,1.55,1.55,0,0,1-.73.18l-.24,0a1.66,1.66,0,0,1-.94-.47l-.12-.12a.69.69,0,0,1-.24-.52v-.15a.69.69,0,0,1,.44-.54A14.31,14.31,0,0,0,478,124Zm9.08,1a.69.69,0,0,1-.35-.63.65.65,0,0,1,.31-.57,1.75,1.75,0,0,1,.95-.3h.08a1.86,1.86,0,0,1,.89.22c1.19.67,2.22,1.3,3.1,1.91a.75.75,0,0,1,.37.67.84.84,0,0,1-.39.73l-.06,0a1.61,1.61,0,0,1-.87.26H491a1.81,1.81,0,0,1-1-.35Q488.82,126,487.09,125Z"/><path class="cls-2" d="M512.32,111.18a8.51,8.51,0,0,1,1.64.12,1,1,0,0,1,.54.39.82.82,0,0,1,.19.52.59.59,0,0,1,0,.13,27,27,0,0,1-2.82,9.9.22.22,0,0,0,0,.27,11.93,11.93,0,0,0,2.63,2.59,1,1,0,0,1,.43.71v.12a1,1,0,0,1-.24.65l-.16.22a1.43,1.43,0,0,1-.82.49.67.67,0,0,1-.24,0,1.07,1.07,0,0,1-.63-.22,12.49,12.49,0,0,1-2.49-2.39q-.11-.14-.18,0a15.33,15.33,0,0,1-2.61,2.41,1.1,1.1,0,0,1-.63.2.77.77,0,0,1-.25,0,1.34,1.34,0,0,1-.79-.51c-.2-.27-.4-.5-.58-.71h-.07a.05.05,0,0,0,0,0v.61a1.12,1.12,0,0,1-.35.85,1.19,1.19,0,0,1-.85.35,1.2,1.2,0,0,1-1.19-1.2v-2c0-.11-.05-.15-.16-.13-1.5.26-3.29.55-5.39.88h-.2a1.27,1.27,0,0,1-1.2-1l0-.12a1.8,1.8,0,0,1,0-.22,1.09,1.09,0,0,1,1-1.09l.56-.07c.11,0,.17-.06.17-.16V112.13c0-.09-.06-.14-.17-.14h-.12a1.09,1.09,0,0,1-.8-.33,1.13,1.13,0,0,1-.33-.81,1.1,1.1,0,0,1,.33-.81,1.07,1.07,0,0,1,.8-.34h8.09a1.19,1.19,0,0,1,1.19,1.2V111a.14.14,0,0,0,.16.16Zm-9.51.95c0-.09-.05-.14-.16-.14H500c-.11,0-.16.05-.16.14v1.67a.14.14,0,0,0,.16.16h2.63a.14.14,0,0,0,.16-.16ZM500,116.19c-.11,0-.16,0-.16.14v1.76a.14.14,0,0,0,.16.16h2.63a.14.14,0,0,0,.16-.16v-1.76c0-.1-.05-.14-.16-.14Zm0,4.25a.14.14,0,0,0-.16.16v2c0,.09.05.13.16.12l1.22-.16,1.41-.18a.17.17,0,0,0,.16-.19V120.6a.14.14,0,0,0-.16-.16Zm5.33-8.45c-.1,0-.15.05-.15.14v13.36a.1.1,0,0,0,.05.07.08.08,0,0,0,.08,0,11.3,11.3,0,0,0,3.36-3.1.22.22,0,0,0,0-.27,27.72,27.72,0,0,1-2.47-6.91,1.27,1.27,0,0,1,0-.28,1.14,1.14,0,0,1,.18-.61,1.11,1.11,0,0,1,.75-.52h0a1.18,1.18,0,0,1,.26,0,1,1,0,0,1,.63.2,1.08,1.08,0,0,1,.53.75,23.48,23.48,0,0,0,1.6,4.84.08.08,0,0,0,.14,0,23.94,23.94,0,0,0,1.68-5.9c0-.09,0-.14-.12-.14h-4.78a1.16,1.16,0,0,1-.84-.35,1.15,1.15,0,0,1-.36-.84v-.29a.12.12,0,0,0-.14-.14Z"/><path class="cls-2" d="M314.48,126.86a1.21,1.21,0,0,1-1.19-1.2v-13a1.2,1.2,0,0,1,1.19-1.19h.69a1.21,1.21,0,0,1,1.2,1.19v11.45a.12.12,0,0,0,.14.14h4.88a1.12,1.12,0,0,1,.84.36,1.15,1.15,0,0,1,.36.84v.18a1.23,1.23,0,0,1-1.2,1.2Z"/><path class="cls-2" d="M327.58,113.36a1.89,1.89,0,0,1-1.31-.46,1.56,1.56,0,0,1-.52-1.2,1.49,1.49,0,0,1,.51-1.18,1.88,1.88,0,0,1,1.32-.46,1.83,1.83,0,0,1,1.28.46,1.47,1.47,0,0,1,.52,1.18,1.53,1.53,0,0,1-.52,1.2A1.83,1.83,0,0,1,327.58,113.36Zm-.35,13.5a1.19,1.19,0,0,1-1.19-1.2v-9.22a1.16,1.16,0,0,1,1.19-1.19h.63a1.15,1.15,0,0,1,.85.34,1.17,1.17,0,0,1,.35.85v9.22a1.15,1.15,0,0,1-.35.84,1.13,1.13,0,0,1-.85.36Z"/><path class="cls-2" d="M334.57,126.86a1.13,1.13,0,0,1-.85-.36,1.14,1.14,0,0,1-.34-.84v-9.22a1.16,1.16,0,0,1,.34-.85,1.15,1.15,0,0,1,.85-.34h.1a1.31,1.31,0,0,1,.89.33,1.35,1.35,0,0,1,.47.84l0,.31a0,0,0,0,0,0,0l.08,0a5.41,5.41,0,0,1,3.73-1.81q3.61,0,3.61,4.68v6a1.23,1.23,0,0,1-1.2,1.2h-.67a1.21,1.21,0,0,1-1.19-1.2V120a3.42,3.42,0,0,0-.39-1.88,1.4,1.4,0,0,0-1.25-.55,2.25,2.25,0,0,0-1.15.28,6.16,6.16,0,0,0-1.16.93.32.32,0,0,0-.12.25v6.64a1.15,1.15,0,0,1-.35.84,1.13,1.13,0,0,1-.85.36Z"/><path class="cls-2" d="M352.75,127.14a5.6,5.6,0,0,1-4.14-1.64,6,6,0,0,1-1.63-4.44,7,7,0,0,1,.45-2.53,5.64,5.64,0,0,1,1.22-1.94,5.46,5.46,0,0,1,1.73-1.21,4.89,4.89,0,0,1,2-.44,4.4,4.4,0,0,1,3.59,1.54,6.13,6.13,0,0,1,1.27,4v.2a1.08,1.08,0,0,1-.42.84,1.39,1.39,0,0,1-.92.33H350.1c-.11,0-.15.06-.12.17a3.11,3.11,0,0,0,1,2,3.19,3.19,0,0,0,2.13.71,4.58,4.58,0,0,0,1.66-.32,1.18,1.18,0,0,1,.48-.1,1.29,1.29,0,0,1,.35,0,1,1,0,0,1,.65.5,1.21,1.21,0,0,1,.14.55,1.14,1.14,0,0,1-.14.54.87.87,0,0,1-.41.37A7.07,7.07,0,0,1,352.75,127.14Zm-2.84-7.37q0,.12.15.12h4.41c.11,0,.17,0,.17-.14a2.91,2.91,0,0,0-.59-1.8,2,2,0,0,0-1.62-.64,2.36,2.36,0,0,0-1.62.63A2.42,2.42,0,0,0,349.91,119.77Z"/><path class="cls-2" d="M369,128.78a10,10,0,0,1-3.35-.55,8.65,8.65,0,0,1-2.79-1.63,7.24,7.24,0,0,1-1.94-2.77,10.06,10.06,0,0,1-.71-3.86,11.56,11.56,0,0,1,.84-4.42,10.15,10.15,0,0,1,2.26-3.43,10.26,10.26,0,0,1,3.33-2.17,10.59,10.59,0,0,1,4-.78,8,8,0,0,1,6,2.28,8.13,8.13,0,0,1,2.24,6,8,8,0,0,1-.47,2.79,5.79,5.79,0,0,1-1.25,2,5.63,5.63,0,0,1-1.67,1.17,4.35,4.35,0,0,1-1.79.41,3.24,3.24,0,0,1-1.77-.46,1.91,1.91,0,0,1-.89-1.3s0,0,0,0a0,0,0,0,0,0,0,4.13,4.13,0,0,1-1.31,1.13,3.11,3.11,0,0,1-1.53.45,2.8,2.8,0,0,1-2.19-1,3.65,3.65,0,0,1-.85-2.56,6.4,6.4,0,0,1,.6-2.7,5.54,5.54,0,0,1,1.69-2.15,3.85,3.85,0,0,1,2.39-.84,1.9,1.9,0,0,1,1.83,1.15s0,0,0,0a0,0,0,0,0,0,0l0-.1a1.31,1.31,0,0,1,1.24-.87.72.72,0,0,1,.6.28.7.7,0,0,1,.19.47,1.41,1.41,0,0,1,0,.18l-.84,4.16a4.26,4.26,0,0,0-.14,1,1.1,1.1,0,0,0,1.26,1.23,2.58,2.58,0,0,0,2.06-1.22,5.26,5.26,0,0,0,.9-3.19,7.49,7.49,0,0,0-.4-2.5,6.35,6.35,0,0,0-1.15-2,5.1,5.1,0,0,0-2-1.41,7.8,7.8,0,0,0-2.92-.51,7.56,7.56,0,0,0-3,.64,8.64,8.64,0,0,0-2.59,1.77,8.42,8.42,0,0,0-1.82,2.83,9.55,9.55,0,0,0-.69,3.64,8,8,0,0,0,.55,3,5.74,5.74,0,0,0,1.5,2.2,6.8,6.8,0,0,0,2.21,1.29,7.87,7.87,0,0,0,2.69.45,7.62,7.62,0,0,0,2.81-.59,1.17,1.17,0,0,1,.35-.06.93.93,0,0,1,.34.06.87.87,0,0,1,.49.47,1.08,1.08,0,0,1,.08.38,1,1,0,0,1-.06.35.93.93,0,0,1-.49.52A9.46,9.46,0,0,1,369,128.78Zm-.24-7.09a2.34,2.34,0,0,0,1.64-1,.42.42,0,0,0,.12-.27l.55-3a.34.34,0,0,0,0-.28,1.32,1.32,0,0,0-1.15-.63,1.86,1.86,0,0,0-1.32.58,3.53,3.53,0,0,0-.87,1.38,4.69,4.69,0,0,0-.29,1.59,2,2,0,0,0,.36,1.3A1.23,1.23,0,0,0,368.74,121.69Z"/></svg>