<svg id="圖層_1" data-name="圖層 1" xmlns="http://www.w3.org/2000/svg" viewBox="0 0 397.48 103.05"><defs><style>.cls-1,.cls-3{fill:#fff;}.cls-1{stroke:#c8c8c9;stroke-miterlimit:10;stroke-width:1.23px;}.cls-2{fill:#eac17e;}</style></defs><rect class="cls-1" x="-94.63" y="-267.1" width="580" height="451.36" rx="38.13"/><rect class="cls-2" width="397.48" height="103.05" rx="51.53"/><path class="cls-3" d="M70.48,56a1.78,1.78,0,0,1,.68,1.43,2,2,0,0,1-.76,1.64l-.64.48a2.35,2.35,0,0,1-1.48.52h-.16a2.39,2.39,0,0,1-1.6-.68.6.6,0,0,0-.48-.18q-.27,0-9.39.34a.29.29,0,0,0-.28.32v6.8a2.24,2.24,0,0,1-.7,1.68,2.32,2.32,0,0,1-1.66.68H52.77a2.32,2.32,0,0,1-1.66-.68,2.28,2.28,0,0,1-.7-1.68V60.1a.25.25,0,0,0-.28-.28l-5.39.2a0,0,0,0,0,0,0,.09.09,0,0,0,0,.08l2.08.76a1.49,1.49,0,0,1,1,1.12,1.87,1.87,0,0,1,0,.32,1.36,1.36,0,0,1-.48,1,37,37,0,0,1-6.4,4.44,3,3,0,0,1-1.44.36,5.13,5.13,0,0,1-.52,0,3.25,3.25,0,0,1-1.8-.92l-1-1a1.36,1.36,0,0,1-.48-1,1.7,1.7,0,0,1,0-.28,1.26,1.26,0,0,1,.84-1,25.17,25.17,0,0,0,6.16-3.64s.06-.06,0-.12a.14.14,0,0,0-.12-.08l-4.48.12h-.08a2.29,2.29,0,0,1-1.64-.64,2.52,2.52,0,0,1-.8-1.68V57.3a2.06,2.06,0,0,1,.58-1.65,2.13,2.13,0,0,1,1.62-.7H44.3a1,1,0,0,0,.56-.16l.76-.4a.24.24,0,0,0,.1-.14.2.2,0,0,0-.06-.18,50.29,50.29,0,0,0-4.72-3,1.25,1.25,0,0,1-.2-2,.09.09,0,0,0,0-.1s0-.06-.06-.06H37.82a2.32,2.32,0,0,1-1.66-.68,2.26,2.26,0,0,1-.7-1.68V42.31A2.39,2.39,0,0,1,37.82,40H50.09a.25.25,0,0,0,.28-.28V38.56c0-.22-.09-.32-.28-.32H38.34A2.32,2.32,0,0,1,36,35.88v-.36a2.32,2.32,0,0,1,.68-1.66,2.24,2.24,0,0,1,1.68-.7H50.09a.24.24,0,0,0,.28-.28v-.32a2.39,2.39,0,0,1,2.36-2.36h1.2a2.3,2.3,0,0,1,1.66.7,2.26,2.26,0,0,1,.7,1.66v.32a.24.24,0,0,0,.28.28H68.64a2.23,2.23,0,0,1,1.68.7A2.32,2.32,0,0,1,71,35.52v.36a2.32,2.32,0,0,1-.68,1.68,2.28,2.28,0,0,1-1.68.68H56.57c-.19,0-.28.1-.28.32v1.12a.25.25,0,0,0,.28.28H69.28a2.26,2.26,0,0,1,1.66.7,2.22,2.22,0,0,1,.7,1.65v4.24a2.23,2.23,0,0,1-.7,1.68,2.32,2.32,0,0,1-1.66.68h-1.2a2.32,2.32,0,0,1-1.66-.68,2.26,2.26,0,0,1-.7-1.68V45.19c0-.21-.09-.32-.28-.32H53.81s0,0,0,0a.07.07,0,0,0,0,.06.7.7,0,0,1,.42.58.74.74,0,0,1-.26.7q-2.43,2-4.76,3.68a.14.14,0,0,0-.06.16.24.24,0,0,0,.1.16c.46.29.87.57,1.24.84a.42.42,0,0,0,.52,0q3.24-2.2,5.56-4.08a3.86,3.86,0,0,1,1.92-.76,2.47,2.47,0,0,1,.36,0,3.42,3.42,0,0,1,1.64.44l1.12.6a1.4,1.4,0,0,1,.76,1.32,1.37,1.37,0,0,1-.6,1.16q-3.84,2.64-7.92,5a.08.08,0,0,0-.06.1.09.09,0,0,0,.1.06l6.76-.08s0,0,.06-.06a.11.11,0,0,0,0-.1,1.59,1.59,0,0,1,0-2.52l.36-.28a3.22,3.22,0,0,1,1.88-.68H63a3.07,3.07,0,0,1,1.79.56A69.69,69.69,0,0,1,70.48,56ZM41.38,44.87c-.19,0-.28.11-.28.32v3.32a.14.14,0,0,0,.08.12s.09,0,.12,0l.84-.72a2.25,2.25,0,0,1,1.2-.52,1.12,1.12,0,0,1,.32,0,2.23,2.23,0,0,1,1,.24.19.19,0,0,0,.28,0c1-.82,1.84-1.65,2.64-2.48.05,0,.06-.06,0-.12a.14.14,0,0,0-.12-.08ZM59.81,63.54a1.41,1.41,0,0,1-.72-1.28,1.3,1.3,0,0,1,.68-1.2l.56-.4a4.19,4.19,0,0,1,2-.6h.12a3.9,3.9,0,0,1,1.91.48c2.32,1.31,4.3,2.49,5.92,3.56a1.63,1.63,0,0,1,0,2.68l-1,.68a3.21,3.21,0,0,1-1.76.52h-.16a3.32,3.32,0,0,1-1.88-.68C64,66.18,62.07,64.93,59.81,63.54Z"/><path class="cls-3" d="M123.59,35.24a17.42,17.42,0,0,1,3.92.32,2.28,2.28,0,0,1,1.36.92,2.13,2.13,0,0,1,.44,1.28,1.18,1.18,0,0,1,0,.28q-1.2,11.91-5.16,19.58a.51.51,0,0,0,0,.52,22.78,22.78,0,0,0,4.72,4.64,1.76,1.76,0,0,1,.8,1.36,1,1,0,0,1,0,.24,1.89,1.89,0,0,1-.52,1.32A11.89,11.89,0,0,0,128.11,67a2.67,2.67,0,0,1-1.56,1,3.77,3.77,0,0,1-.44,0,2.33,2.33,0,0,1-1.28-.4,28.07,28.07,0,0,1-4.32-4.08q-.15-.24-.36,0a28.88,28.88,0,0,1-4.51,4.16,2.15,2.15,0,0,1-1.24.4,3.88,3.88,0,0,1-.48,0,2.55,2.55,0,0,1-1.52-1,23.87,23.87,0,0,0-1.56-1.92.12.12,0,0,0-.12,0,.1.1,0,0,0-.08.1v1.56a2.24,2.24,0,0,1-.7,1.68,2.32,2.32,0,0,1-1.66.68h-1a2.32,2.32,0,0,1-2.36-2.36v-3.4c0-.18-.1-.26-.32-.24-1,.19-4.41.73-10.19,1.64a1.81,1.81,0,0,1-.4,0,2.45,2.45,0,0,1-2.36-2l-.24-1.32a2.58,2.58,0,0,1,0-.4,2.22,2.22,0,0,1,2-2.16,7.82,7.82,0,0,0,1-.12.28.28,0,0,0,.28-.32V38.16a.24.24,0,0,0-.28-.28A2.32,2.32,0,0,1,92,35.56v-.8a2.23,2.23,0,0,1,.7-1.68,2.32,2.32,0,0,1,1.66-.68h16.31A2.32,2.32,0,0,1,113,34.76V35c0,.19.1.28.32.28Zm-18.67,2.92c0-.19-.1-.28-.32-.28h-4a.24.24,0,0,0-.28.28V40.6c0,.21.09.32.28.32h4a.28.28,0,0,0,.32-.32Zm-4.35,8a.25.25,0,0,0-.28.28v2.64c0,.21.09.32.28.32h4a.28.28,0,0,0,.32-.32V46.47c0-.18-.1-.28-.32-.28Zm-.28,11.63c0,.22.09.31.28.28l4-.56c.22,0,.32-.13.32-.32V55c0-.19-.1-.28-.32-.28h-4a.24.24,0,0,0-.28.28Zm10.63-19.94a.24.24,0,0,0-.28.28V63.42a.14.14,0,0,0,.08.12.15.15,0,0,0,.16,0,21.52,21.52,0,0,0,5.76-5.4.43.43,0,0,0,0-.52A58.12,58.12,0,0,1,112,44.55a3.43,3.43,0,0,1,0-.56,2.21,2.21,0,0,1,.36-1.2,2.26,2.26,0,0,1,1.48-1l1.08-.2a3.88,3.88,0,0,1,.48,0,2.33,2.33,0,0,1,1.28.4,2.59,2.59,0,0,1,1,1.52,45.24,45.24,0,0,0,2.43,7.68c0,.05,0,.08.1.08s.1,0,.1-.08a49.47,49.47,0,0,0,2.6-9.8c0-.18,0-.28-.24-.28H114.2a2.25,2.25,0,0,1-1.68-.69,2.32,2.32,0,0,1-.68-1.66v-.56c0-.19-.11-.28-.32-.28Z"/><path class="cls-3" d="M171.47,34.92a1.92,1.92,0,0,1-.28-1,2.27,2.27,0,0,1,.12-.72,2,2,0,0,1,1.2-1.24l1.51-.6a3.22,3.22,0,0,1,1-.16,3.07,3.07,0,0,1,.92.16,2.57,2.57,0,0,1,1.44,1.2,50.16,50.16,0,0,0,9.2,10.91,2,2,0,0,1,.68,1.56,2.13,2.13,0,0,1-.64,1.56c-.67.64-1.31,1.31-1.92,2a2,2,0,0,1-1.48.76H183a1.86,1.86,0,0,1-1.36-.56s-.1-.07-.14,0a.14.14,0,0,0-.06.12q-.32,8.72-.76,12.55t-1.4,5.08a5.42,5.42,0,0,1-1.78,1.56,8.08,8.08,0,0,1-2.34.72,21.93,21.93,0,0,1-3.71.24,2.51,2.51,0,0,1-1.72-.68,3.24,3.24,0,0,1-1-1.68c-.16-.53-.35-1.07-.56-1.6a1.81,1.81,0,0,1-.08-.56,1.54,1.54,0,0,1,.24-.8,1.26,1.26,0,0,1,1.12-.6h0c1,.06,1.84.08,2.64.08a2.1,2.1,0,0,0,1.63-.64c.38-.4.66-1.48.86-3.24s.38-4.5.54-8.23a.24.24,0,0,0-.28-.28h-6.11c-.22,0-.34.09-.36.28a33.07,33.07,0,0,1-.76,4.14,23.16,23.16,0,0,1-1.4,3.85,16.26,16.26,0,0,1-2.22,3.6,19.61,19.61,0,0,1-3.3,3.14,23.72,23.72,0,0,1-4.59,2.74,2.66,2.66,0,0,1-1,.2,2.59,2.59,0,0,1-.84-.16,3.06,3.06,0,0,1-1.48-1.2c-.38-.61-.76-1.19-1.16-1.72a1.64,1.64,0,0,1-.36-1,2,2,0,0,1,0-.44,1.55,1.55,0,0,1,1-1.12,20.89,20.89,0,0,0,4.32-2.42,11.52,11.52,0,0,0,2.83-2.94,14.63,14.63,0,0,0,1.6-3.15,17.14,17.14,0,0,0,.84-3.52c0-.19,0-.28-.24-.28h-3.52a2.16,2.16,0,0,1-1.63-.7,2.28,2.28,0,0,1-.68-1.66s0,0-.08-.08-.1,0-.12,0c-.32.29-.62.57-.88.84a2.31,2.31,0,0,1-1.56.6H153a2.75,2.75,0,0,1-1.72-.76c-.53-.53-1.09-1.07-1.68-1.6A1.77,1.77,0,0,1,149,46a1.85,1.85,0,0,1,.76-1.52,33.52,33.52,0,0,0,5.16-5.27,34.14,34.14,0,0,0,4-6.48,2.9,2.9,0,0,1,1.32-1.36,2.41,2.41,0,0,1,1.88-.16l1.92.56a2.08,2.08,0,0,1,1.32,1.12,2.06,2.06,0,0,1,.2.84,1.63,1.63,0,0,1-.24.84,48.92,48.92,0,0,1-6.48,10.15.22.22,0,0,0,0,.16A.12.12,0,0,0,159,45h19.07c.08,0,.14,0,.16-.08s0-.1,0-.16A76.29,76.29,0,0,1,171.47,34.92Z"/><path class="cls-3" d="M221.46,51a3.12,3.12,0,0,1,.64,1.92,3.22,3.22,0,0,1-.6,1.92l-.56.8a1.28,1.28,0,0,1-1.08.56h-.12a1.31,1.31,0,0,1-1.12-.76c-.29-.59-.6-1.18-.92-1.76,0-.06-.06-.08-.1-.06s-.06,0-.06.1v13a2.32,2.32,0,0,1-2.36,2.36h-1a2.32,2.32,0,0,1-1.66-.68,2.28,2.28,0,0,1-.7-1.68V55.55a.06.06,0,0,0,0-.06s-.06,0-.09,0a31.25,31.25,0,0,1-2.19,4.87,1.08,1.08,0,0,1-1,.56h-.16a1.32,1.32,0,0,1-1.08-.76c-.19-.45-.42-.92-.68-1.4a3.64,3.64,0,0,1-.44-1.75v-.24a4.21,4.21,0,0,1,.64-2,38.21,38.21,0,0,0,4.28-10.44.2.2,0,0,0,0-.2.3.3,0,0,0-.2-.08H209a2.39,2.39,0,0,1-2.36-2.36v-.91A2.39,2.39,0,0,1,209,38.48h2.55a.25.25,0,0,0,.28-.28V32.56a2.39,2.39,0,0,1,2.36-2.36h1a2.26,2.26,0,0,1,1.68.7,2.32,2.32,0,0,1,.68,1.66V38.2c0,.18.11.28.32.28h2a2.23,2.23,0,0,1,1.68.7,2.3,2.3,0,0,1,.68,1.66v.91a2.3,2.3,0,0,1-.68,1.66,2.23,2.23,0,0,1-1.68.7h-2c-.21,0-.32.1-.32.28v1.24a.7.7,0,0,0,.2.52C218.7,47.32,219.94,48.94,221.46,51Zm21.19-7A2.32,2.32,0,0,1,245,46.31v.88a2.28,2.28,0,0,1-.68,1.66,2.22,2.22,0,0,1-1.67.7h-2.2a.24.24,0,0,0-.28.28V66.7a2.28,2.28,0,0,1-.7,1.68,2.32,2.32,0,0,1-1.66.68h-1.2a2.32,2.32,0,0,1-1.66-.68,2.24,2.24,0,0,1-.7-1.68V49.83a.24.24,0,0,0-.28-.28h-3.68a.29.29,0,0,0-.32.28q-.75,11-4.75,17.35a1.54,1.54,0,0,1-1.36.76h-.08a2.1,2.1,0,0,1-1.48-.56c-.35-.32-.7-.61-1-.88a2.42,2.42,0,0,1-.92-1.52,1.72,1.72,0,0,1-.08-.52,2.32,2.32,0,0,1,.36-1.2,22.43,22.43,0,0,0,2-4.42,28.51,28.51,0,0,0,1.14-4.91c.24-1.69.39-3.21.46-4.54s.1-2.81.1-4.44V35.16a1.74,1.74,0,0,1,.72-1.44,1.68,1.68,0,0,1,1-.36,1.77,1.77,0,0,1,.52.08l2,.56a1.06,1.06,0,0,0,.56,0,62.63,62.63,0,0,0,7.76-2.4,3.66,3.66,0,0,1,1.44-.28,4.41,4.41,0,0,1,.6,0,3.35,3.35,0,0,1,1.84.88l1.56,1.44a1.4,1.4,0,0,1,.48,1.08,2.51,2.51,0,0,1,0,.32,1.39,1.39,0,0,1-.92,1.08,74.18,74.18,0,0,1-11.44,3,.35.35,0,0,0-.28.36v4.15c0,.22.1.32.28.32Z"/><path class="cls-3" d="M276.09,38.4c-.19,0-.28.1-.28.32V40.2c0,.21.09.32.28.32h3.84a2.28,2.28,0,0,1,1.66.68,2.25,2.25,0,0,1,.69,1.67v.2a2.25,2.25,0,0,1-.69,1.68,2.28,2.28,0,0,1-1.66.68h-.36s0,0,0,0a1,1,0,0,1,.68.56,1,1,0,0,1,0,.88q-.21.44-.54,1.26l-.5,1.18a.23.23,0,0,0,0,.2.16.16,0,0,0,.16.08,2.25,2.25,0,0,1,2.24,2.24v.36a2.32,2.32,0,0,1-.68,1.66,2.3,2.3,0,0,1-1.68.7h-3.16a.24.24,0,0,0-.28.28v1.88a.25.25,0,0,0,.28.28h2.76a2.29,2.29,0,0,1,1.68.69,2.32,2.32,0,0,1,.68,1.66v.24A2.32,2.32,0,0,1,278.85,62h-2.76c-.19,0-.28.11-.28.32v4.32a2.26,2.26,0,0,1-.7,1.68,2.32,2.32,0,0,1-1.66.68h-.76A2.28,2.28,0,0,1,271,68.3a2.32,2.32,0,0,1-.68-1.68V62.3A.28.28,0,0,0,270,62h-3.08a2.36,2.36,0,0,1-2.35-2.36v-.24A2.37,2.37,0,0,1,266.93,57H270c.22,0,.32-.1.32-.28V54.87c0-.19-.1-.28-.32-.28h-3.4a2.39,2.39,0,0,1-2.35-2.36V52a2.32,2.32,0,0,1,2.31-2.32c.22,0,.3-.09.24-.28a19.79,19.79,0,0,0-.68-2.44,1.27,1.27,0,0,1,.1-.9,1,1,0,0,1,.66-.54v0h-1.23a2.32,2.32,0,0,1-2.36-2.36v-.2a2.32,2.32,0,0,1,2.36-2.35H270a.28.28,0,0,0,.32-.32V38.72a.28.28,0,0,0-.32-.32h-2.92a2.28,2.28,0,0,1-1.65-.68,2.26,2.26,0,0,1-.7-1.68v-.16a2.26,2.26,0,0,1,.7-1.66,2.22,2.22,0,0,1,1.65-.7H270c.22,0,.32-.09.32-.28v-.48a2.32,2.32,0,0,1,2.36-2.36h.76a2.32,2.32,0,0,1,1.66.68,2.23,2.23,0,0,1,.7,1.68v.48a.24.24,0,0,0,.28.28h2.36a2.26,2.26,0,0,1,1.66.7,2.3,2.3,0,0,1,.7,1.66V36a2.3,2.3,0,0,1-.7,1.68,2.32,2.32,0,0,1-1.66.68Zm-.52,11.23s0,0,0,0a1,1,0,0,1-.64-.52,1.07,1.07,0,0,1-.08-.8c.27-.83.52-1.66.76-2.52a.22.22,0,0,0,0-.22.28.28,0,0,0-.2-.1h-4.64a.19.19,0,0,0-.14.1.2.2,0,0,0,0,.18,24.44,24.44,0,0,1,.8,2.52,1,1,0,0,1-.12.84,1.11,1.11,0,0,1-.72.52v0ZM297.12,46a2.74,2.74,0,0,1,.64-.08,2.61,2.61,0,0,1,1,.2l1,.36a2.1,2.1,0,0,1,1.2,1,2.23,2.23,0,0,1,.28,1.08,2.39,2.39,0,0,1,0,.44,42.34,42.34,0,0,1-3.51,11.15.44.44,0,0,0,.08.52,18.05,18.05,0,0,0,3.07,2.64,2,2,0,0,1,.84,1.36v.28a1.91,1.91,0,0,1-.48,1.28,12.69,12.69,0,0,0-.84,1,2.4,2.4,0,0,1-1.56,1,2.87,2.87,0,0,1-.44,0,2,2,0,0,1-1.23-.44,22.73,22.73,0,0,1-2.44-2.28c-.14-.16-.27-.16-.4,0-.64.77-1.28,1.48-1.92,2.12a2,2,0,0,1-1.4.56,1,1,0,0,1-.24,0,2.43,2.43,0,0,1-1.6-.84l-.76-.76a.13.13,0,0,0-.16,0,.14.14,0,0,0-.08.12v0a2.32,2.32,0,0,1-2.36,2.36h-.64a2.32,2.32,0,0,1-1.66-.68,2.28,2.28,0,0,1-.7-1.68V34.2a2.3,2.3,0,0,1,.7-1.66,2.26,2.26,0,0,1,1.66-.7h13a2.22,2.22,0,0,1,1.67.7,2.28,2.28,0,0,1,.68,1.66v5.32a7.51,7.51,0,0,1-.48,3,3.22,3.22,0,0,1-1.8,1.64,13,13,0,0,1-4.63.76.12.12,0,0,1-.08,0,2.57,2.57,0,0,1-1.72-.64,3.13,3.13,0,0,1-1.08-1.64,6,6,0,0,1-.2-.6,1.38,1.38,0,0,1-.12-.56,1.55,1.55,0,0,1,.32-.91,1.41,1.41,0,0,1,1.24-.64h2.28a1.84,1.84,0,0,0,.64-.14.49.49,0,0,0,.16-.42V37.32c0-.22-.1-.32-.28-.32H288.4a.28.28,0,0,0-.32.32v8.43a.28.28,0,0,0,.32.32h8.52A.58.58,0,0,0,297.12,46Zm-8.92,8.24a.1.1,0,0,0-.08,0s0,0,0,0V63.7a.14.14,0,0,0,.08.12.13.13,0,0,0,.16,0,20.51,20.51,0,0,0,2.56-2.92.37.37,0,0,0,0-.48A43.26,43.26,0,0,1,288.2,54.27ZM295.32,51c0-.19-.06-.28-.24-.28h-2.92a.22.22,0,0,0-.18.08.2.2,0,0,0,0,.2,23.86,23.86,0,0,0,1.8,4.12c0,.05.07.07.14.06s.1-.05.1-.1A30.37,30.37,0,0,0,295.32,51Z"/><path class="cls-3" d="M344.39,44c0,.22.09.32.28.32H355.9a2.3,2.3,0,0,1,1.66.68,2.26,2.26,0,0,1,.7,1.68v.8a2.39,2.39,0,0,1-2.36,2.36H324.28a2.26,2.26,0,0,1-1.66-.7,2.3,2.3,0,0,1-.7-1.66v-.8a2.3,2.3,0,0,1,.7-1.68,2.32,2.32,0,0,1,1.66-.68h1.48a.09.09,0,0,0,.1-.08c0-.05,0-.08-.06-.08-.66-.45-1.5-1-2.52-1.52a1.71,1.71,0,0,1-.88-1.24v-.31a1.8,1.8,0,0,1,.44-1.2,27.1,27.1,0,0,0,4.4-7.52,2.92,2.92,0,0,1,1.24-1.4,2.63,2.63,0,0,1,1.24-.32,2.68,2.68,0,0,1,.6.08l1.4.32a2.2,2.2,0,0,1,1.4,1.08,2.13,2.13,0,0,1,.24,1,2.21,2.21,0,0,1-.16.76c-.16.35-.31.71-.44,1.08a.15.15,0,0,0,0,.16.16.16,0,0,0,.16.08h4.79c.22,0,.32-.09.32-.28V32.56a2.32,2.32,0,0,1,.68-1.66,2.3,2.3,0,0,1,1.68-.7H342a2.3,2.3,0,0,1,1.66.7,2.26,2.26,0,0,1,.7,1.66v2.36a.24.24,0,0,0,.28.28h8.95a2.23,2.23,0,0,1,1.68.7,2.28,2.28,0,0,1,.68,1.66v.72a2.36,2.36,0,0,1-2.36,2.36h-8.95a.24.24,0,0,0-.28.28ZM328.76,69.1a2.32,2.32,0,0,1-1.66-.68,2.24,2.24,0,0,1-.7-1.68V54.51a2.39,2.39,0,0,1,2.36-2.36h23.62a2.39,2.39,0,0,1,2.36,2.36V66.58a2.26,2.26,0,0,1-.7,1.68,2.3,2.3,0,0,1-1.66.68h-2.63a1.43,1.43,0,0,1-1.44-1.44.18.18,0,0,0-.2-.2H332.76a.18.18,0,0,0-.2.2,1.53,1.53,0,0,1-.48,1.14,1.61,1.61,0,0,1-1.12.46ZM338,40.92c0-.19-.1-.28-.32-.28H330a.5.5,0,0,0-.44.24c-.85,1.27-1.64,2.35-2.36,3.23a.15.15,0,0,0,0,.16.12.12,0,0,0,.12.08h10.39A.28.28,0,0,0,338,44Zm10.28,17c0-.18-.11-.28-.32-.28H332.84a.25.25,0,0,0-.28.28v3.64a.24.24,0,0,0,.28.28H348c.21,0,.32-.09.32-.28Z"/></svg>