<svg id="圖層_1" data-name="圖層 1" xmlns="http://www.w3.org/2000/svg" xmlns:xlink="http://www.w3.org/1999/xlink" viewBox="0 0 786.21 211.45"><defs><style>.cls-1{fill:#fff;}.cls-2{fill:url(#未命名漸層_270);}</style><linearGradient id="未命名漸層_270" y1="105.72" x2="786.21" y2="105.72" gradientUnits="userSpaceOnUse"><stop offset="0" stop-color="#f2d378"/><stop offset="1" stop-color="#d7836e"/></linearGradient></defs><rect class="cls-1" x="112.65" y="-0.63" width="672.11" height="99.99"/><rect class="cls-1" y="147.91" width="784.76" height="6242.89"/><rect class="cls-2" width="786.21" height="211.45"/><path class="cls-1" d="M198.91,100.58a7.5,7.5,0,0,1-4.62-.25,7.57,7.57,0,0,1-4.37-9.77c2.86-7.5.26-16.46-6.49-22.29-6.93-6-16.65-7.17-23.64-2.84a7.57,7.57,0,1,1-8-12.87,33.56,33.56,0,0,1,21-4.69,36.93,36.93,0,0,1,20.52,9c11.54,10,15.85,25.72,10.72,39.14A7.54,7.54,0,0,1,198.91,100.58Z"/><path class="cls-1" d="M175.51,123.16c-11.15,2.93-23.64-.06-33-8.33A37,37,0,0,1,131,95.67a33.62,33.62,0,0,1,1.88-21.44,7.57,7.57,0,1,1,13.81,6.21c-3.37,7.5-.93,17,5.93,23.06,6.68,5.92,15.9,7.32,23,3.5a7.57,7.57,0,1,1,7.22,13.3A31.75,31.75,0,0,1,175.51,123.16Z"/><circle class="cls-1" cx="167.99" cy="86.11" r="10.72"/><path class="cls-1" d="M267.9,105.67H245.45V94.22h21.76a3.34,3.34,0,0,0,3.34-3.35V90a3.34,3.34,0,0,0-3.34-3.34H245.45V75.24h22.31a3.35,3.35,0,0,0,3.35-3.34v-.84a3.35,3.35,0,0,0-3.35-3.34H241a3.35,3.35,0,0,0-3.34,3.34v38.79a3.35,3.35,0,0,0,3.34,3.34H267.9a3.35,3.35,0,0,0,3.35-3.34V109A3.35,3.35,0,0,0,267.9,105.67Z"/><path class="cls-1" d="M321.47,94.79h-1a3.36,3.36,0,0,0-3.07,2,14.71,14.71,0,0,1-3,4.39,14.37,14.37,0,0,1-20.85,0,15.3,15.3,0,0,1,0-21.41,14.47,14.47,0,0,1,20.82,0,14.82,14.82,0,0,1,3,4.44,3.34,3.34,0,0,0,3.07,2h1a3.35,3.35,0,0,0,3.09-4.63,22.58,22.58,0,0,0-4.69-7.09,22,22,0,0,0-31.66,0,23,23,0,0,0,0,32,22,22,0,0,0,31.67,0,22.72,22.72,0,0,0,4.68-7.09,3.35,3.35,0,0,0-3.09-4.63Z"/><path class="cls-1" d="M370,67.72h-1.11a3.35,3.35,0,0,0-3.35,3.34V86.42H341.81V71.06a3.35,3.35,0,0,0-3.35-3.34h-1a3.34,3.34,0,0,0-3.34,3.34v38.79a3.34,3.34,0,0,0,3.34,3.34h1a3.35,3.35,0,0,0,3.35-3.34V93.94h23.75v15.91a3.35,3.35,0,0,0,3.35,3.34H370a3.35,3.35,0,0,0,3.34-3.34V71.06A3.35,3.35,0,0,0,370,67.72Z"/><path class="cls-1" d="M408.49,67.11A22.93,22.93,0,0,0,392.11,74a23.3,23.3,0,0,0,0,32.85,23,23,0,0,0,32.81,0,23.3,23.3,0,0,0,0-32.88A22.87,22.87,0,0,0,408.49,67.11Zm0,39.06a15.36,15.36,0,0,1-11-4.66,15.67,15.67,0,0,1,0-22.16,15.35,15.35,0,0,1,22,0,15.82,15.82,0,0,1,0,22.16A15.42,15.42,0,0,1,408.49,106.17Z"/><path class="cls-1" d="M460.81,86.6c-8.34-.66-12.3-1.38-12.65-5.15a3.82,3.82,0,0,1,1.24-3.3c1.93-2,6-3.35,10.32-3.41,4.07,0,7.87,1,9.88,2.72a4.85,4.85,0,0,1,1.57,2.4l0,.26A3.35,3.35,0,0,0,475,82.91l1-.16a3.36,3.36,0,0,0,2.78-3.82l-.07-.45c0-.08,0-.16-.05-.25-1.13-4.81-5.11-8.39-11.22-10.07-7.33-2-18.19-1-23.86,4.87a11.15,11.15,0,0,0-3.2,9.09c.9,10.49,11.7,11.36,19.59,12,6.9.56,11.48,1.14,12.27,4a4,4,0,0,1-.71,3.71c-1.91,2.47-6.7,4.2-11.66,4.2-5.5,0-11.69-2.36-12.15-5.86a1,1,0,0,0,0-.16l-.07-.38a3.35,3.35,0,0,0-3.63-2.74L443,97a3.35,3.35,0,0,0-3,3.92l.06.32c1.14,8.08,10.81,12.31,19.81,12.31,7.59,0,14.69-2.87,18.08-7.3a11.16,11.16,0,0,0,1.94-10C477.66,87.94,468.32,87.2,460.81,86.6Z"/><path class="cls-1" d="M523,105.67H500.53V94.22h21.76a3.35,3.35,0,0,0,3.35-3.35V90a3.35,3.35,0,0,0-3.35-3.34H500.53V75.24h22.32a3.35,3.35,0,0,0,3.34-3.34v-.84a3.35,3.35,0,0,0-3.34-3.34H496.08a3.35,3.35,0,0,0-3.35,3.34v38.79a3.35,3.35,0,0,0,3.35,3.34H523a3.35,3.35,0,0,0,3.34-3.34V109A3.35,3.35,0,0,0,523,105.67Z"/><path class="cls-1" d="M568.82,105.67H546.37V94.22h21.76a3.34,3.34,0,0,0,3.34-3.35V90a3.34,3.34,0,0,0-3.34-3.34H546.37V75.24h22.31A3.35,3.35,0,0,0,572,71.9v-.84a3.35,3.35,0,0,0-3.35-3.34H541.91a3.35,3.35,0,0,0-3.34,3.34v38.79a3.35,3.35,0,0,0,3.34,3.34h26.91a3.35,3.35,0,0,0,3.35-3.34V109A3.35,3.35,0,0,0,568.82,105.67Z"/><path class="cls-1" d="M600.14,67.72H587a3.34,3.34,0,0,0-3.34,3.34v38.79a3.34,3.34,0,0,0,3.34,3.34h13.1c6.89,0,12.71-2.49,16.84-7.2a23.49,23.49,0,0,0,5.6-15.53C622.58,79.16,614.87,67.72,600.14,67.72Zm0,38h-8.92V75.24h8.92c7.42,0,14.92,4.71,14.92,15.22A15.93,15.93,0,0,1,611.32,101,14.32,14.32,0,0,1,600.14,105.67Z"/><circle class="cls-1" cx="408.43" cy="90.29" r="8.17"/><path class="cls-1" d="M250.35,165.49l.31,0a1,1,0,0,1,1,.89.83.83,0,0,1,0,.22,1.36,1.36,0,0,1-.23.76,1.25,1.25,0,0,1-.78.61l-1.59.5a.29.29,0,0,0-.19.28v7.76a4.19,4.19,0,0,1-.24,1.58,1.8,1.8,0,0,1-.8.88,5.53,5.53,0,0,1-2.43.47h-.05a1.44,1.44,0,0,1-.92-.33,1.73,1.73,0,0,1-.59-.89,1,1,0,0,1,.14-.83.74.74,0,0,1,.7-.35h.33c.45,0,.75,0,.9,0a.66.66,0,0,0,.41-.1.53.53,0,0,0,.12-.41v-7a.16.16,0,0,0-.07-.13.19.19,0,0,0-.14,0l-.7.21-1,.31a1.22,1.22,0,0,1-.37.05,1.26,1.26,0,0,1-.61-.16,1.24,1.24,0,0,1-.59-.78,1.78,1.78,0,0,1,0-.31,1.37,1.37,0,0,1,.19-.7,1.28,1.28,0,0,1,.81-.61l2.26-.65a.24.24,0,0,0,.2-.25v-5c0-.13-.08-.2-.23-.2H244.4a1.18,1.18,0,0,1-.86-.36,1.2,1.2,0,0,1-.37-.88,1.16,1.16,0,0,1,.37-.86,1.17,1.17,0,0,1,.86-.35h1.87a.21.21,0,0,0,.23-.23v-4.1a1.12,1.12,0,0,1,.35-.85,1.15,1.15,0,0,1,.85-.35,1.21,1.21,0,0,1,.86.35,1.13,1.13,0,0,1,.37.85v4.1c0,.15.06.23.19.23h1.42a1.15,1.15,0,0,1,.88.35,1.14,1.14,0,0,1,.35.86,1.18,1.18,0,0,1-.35.88,1.16,1.16,0,0,1-.88.36h-1.42c-.13,0-.19.07-.19.2v4.3a.13.13,0,0,0,0,.12.14.14,0,0,0,.14,0Zm18.27,2.7a1.17,1.17,0,0,1,0,1.67,1.13,1.13,0,0,1-.85.35H263.5a.1.1,0,0,0-.09.06.11.11,0,0,0,0,.11,17.5,17.5,0,0,0,5.17,5.08,1,1,0,0,1,.47.75.55.55,0,0,1,0,.17,1.12,1.12,0,0,1-.28.73,1.6,1.6,0,0,1-.95.53,1.27,1.27,0,0,1-.28,0,1.29,1.29,0,0,1-.75-.26,20.47,20.47,0,0,1-4.94-5.33s0-.05-.07,0,0,0,0,.07v6a1.26,1.26,0,0,1-.39.94,1.31,1.31,0,0,1-.93.37,1.28,1.28,0,0,1-.92-.37,1.26,1.26,0,0,1-.39-.94v-6s0-.06,0-.06a.09.09,0,0,0-.07,0,18.18,18.18,0,0,1-5.64,5.61,1.35,1.35,0,0,1-.7.2,1,1,0,0,1-.33-.06,1.6,1.6,0,0,1-.92-.56,1.07,1.07,0,0,1-.23-.64v-.2a1,1,0,0,1,.51-.72,16,16,0,0,0,5.75-5.33.17.17,0,0,0,0-.14.1.1,0,0,0-.09-.06h-4a1.1,1.1,0,0,1-.83-.35,1.19,1.19,0,0,1,.83-2H259c.13,0,.19-.07.19-.2v-1.48a1.2,1.2,0,0,1,.39-.9,1.29,1.29,0,0,1,.92-.38,1.32,1.32,0,0,1,.93.38,1.2,1.2,0,0,1,.39.9v1.48c0,.13.06.2.19.2h5.81A1.17,1.17,0,0,1,268.62,168.19ZM256.83,159a1.34,1.34,0,0,1,1.34-1.23,1.08,1.08,0,0,1,.83.36,1,1,0,0,1,.28.73,7.19,7.19,0,0,1-1.37,4.24,6.76,6.76,0,0,1-3.57,2.4,1.07,1.07,0,0,1-.92,0,1.88,1.88,0,0,1-.78-.64.79.79,0,0,1-.11-.71.69.69,0,0,1,.5-.49,5.66,5.66,0,0,0,2.75-1.71A5.91,5.91,0,0,0,256.83,159Zm-1.82-2.1c-.13,0-.19.07-.19.2v1.79a1.14,1.14,0,0,1-.34.81,1.12,1.12,0,0,1-1.59,0,1.14,1.14,0,0,1-.34-.81v-2.6a1.67,1.67,0,0,1,1.65-1.65h12.95a1.6,1.6,0,0,1,1.16.49,1.57,1.57,0,0,1,.49,1.16v2.43a1.17,1.17,0,0,1-.35.85,1.2,1.2,0,0,1-1.69,0,1.19,1.19,0,0,1-.33-.85v-1.62c0-.13-.08-.2-.23-.2Zm6.42,2a1.16,1.16,0,0,1,.36-.85,1.23,1.23,0,0,1,.87-.35,1.17,1.17,0,0,1,.85.35,1.19,1.19,0,0,1,.35.85v3.41c0,.32,0,.52.13.6a.93.93,0,0,0,.6.13h1.92a.49.49,0,0,0,.45-.23,2.36,2.36,0,0,0,.19-1,.7.7,0,0,1,.38-.58.81.81,0,0,1,.71-.06,1.57,1.57,0,0,1,.78.62,1.21,1.21,0,0,1,.23.69.81.81,0,0,1,0,.2,3.45,3.45,0,0,1-.8,1.91,2.3,2.3,0,0,1-1.66.52h-2.54a3.12,3.12,0,0,1-2.23-.59,3.29,3.29,0,0,1-.56-2.23Z"/><path class="cls-1" d="M308.19,172.42a.47.47,0,0,0-.36-.14l-7.29.25a.19.19,0,0,0-.22.22v5.39a1.33,1.33,0,0,1-1.33,1.34,1.33,1.33,0,0,1-1.32-1.34v-5.3a.21.21,0,0,0-.23-.23c-2.86.11-6,.21-9.35.28h0a1.24,1.24,0,0,1-.84-.33,1.28,1.28,0,0,1-.41-.95,1.12,1.12,0,0,1,.3-.78,1.09,1.09,0,0,1,.84-.37l5,0a1,1,0,0,0,.42-.09l.39-.25.49-.29a3.84,3.84,0,0,0,.4-.27.13.13,0,0,0,.07-.1s0-.08-.07-.12a35.86,35.86,0,0,0-3.91-2.57.73.73,0,0,1-.4-.6.76.76,0,0,1,.26-.68,1.53,1.53,0,0,1,.9-.39.78.78,0,0,1,.22,0,1.78,1.78,0,0,1,.75.16l.2.12a.29.29,0,0,0,.31,0,34.59,34.59,0,0,0,2.95-2.71s.05-.07,0-.1a.1.1,0,0,0-.08,0h-6.25a.18.18,0,0,0-.2.2v1.84a1.21,1.21,0,0,1-.36.89,1.25,1.25,0,0,1-.9.37,1.25,1.25,0,0,1-1.25-1.26v-2.65a1.61,1.61,0,0,1,1.64-1.65h8.88c.15,0,.23-.07.23-.22V158.1c0-.13-.08-.2-.23-.2h-9.21a1.08,1.08,0,0,1-.82-.35,1.11,1.11,0,0,1-.35-.84,1.07,1.07,0,0,1,.35-.82,1.14,1.14,0,0,1,.82-.33h9.21a.21.21,0,0,0,.23-.23v-.83a1.28,1.28,0,0,1,1.29-1.32,1.31,1.31,0,0,1,.94.38,1.24,1.24,0,0,1,.39.94v.83c0,.15.07.23.22.23h9.33a1.16,1.16,0,0,1,.82.33,1.1,1.1,0,0,1,.35.82,1.15,1.15,0,0,1-.35.84,1.1,1.1,0,0,1-.82.35h-9.33c-.15,0-.22.07-.22.2V160a.19.19,0,0,0,.22.22h9.16a1.62,1.62,0,0,1,1.17.47,1.6,1.6,0,0,1,.48,1.18v2.59a1.27,1.27,0,0,1-.38.94,1.26,1.26,0,0,1-.92.38,1.31,1.31,0,0,1-.94-.38,1.24,1.24,0,0,1-.39-.94v-1.78c0-.13-.06-.2-.19-.2H298.36s0,0,0,0a.6.6,0,0,1,.34.46.56.56,0,0,1-.2.54,44.52,44.52,0,0,1-3.54,2.91c-.06,0-.08.05-.07.11a.14.14,0,0,0,.07.11c.74.47,1.36.89,1.87,1.28a.26.26,0,0,0,.33,0c1.77-1.2,3.31-2.36,4.64-3.46a2.07,2.07,0,0,1,1.08-.47h.23a2.1,2.1,0,0,1,.95.22.9.9,0,0,1,.11,1.51c-2.18,1.64-4.45,3.17-6.81,4.61a.08.08,0,0,0,0,.07s0,0,.06,0l3.83,0,4-.07a.08.08,0,0,0,.07-.05s0-.05,0-.07q-.77-.59-1.62-1.14a.78.78,0,0,1-.37-.63.73.73,0,0,1,.31-.65,1.44,1.44,0,0,1,.89-.37h.12a1.58,1.58,0,0,1,.83.25,50.92,50.92,0,0,1,5.11,3.69,1,1,0,0,1,.36.78,1.06,1.06,0,0,1-.36.81,1.4,1.4,0,0,1-.86.31h-.06a1.48,1.48,0,0,1-.92-.37Zm-16.39,1.67a2.39,2.39,0,0,1,1.51-.58,2,2,0,0,1,.78.16.82.82,0,0,1,.28,1.4,29,29,0,0,1-5,3.46,1.78,1.78,0,0,1-.86.22l-.28,0a2.37,2.37,0,0,1-1.09-.53.83.83,0,0,1-.26-.77.81.81,0,0,1,.46-.66A21.92,21.92,0,0,0,291.8,174.09Zm11.84,1a.73.73,0,0,1-.39-.67.64.64,0,0,1,.33-.59,2,2,0,0,1,1.12-.39,2,2,0,0,1,1,.28,45.51,45.51,0,0,1,4.89,3,.89.89,0,0,1,.39.76.92.92,0,0,1-.42.81,1.67,1.67,0,0,1-.95.3h-.11a1.82,1.82,0,0,1-1.06-.39A41.87,41.87,0,0,0,303.64,175.1Z"/><path class="cls-1" d="M342.19,156.17a.17.17,0,0,0,0,.14.15.15,0,0,0,.13.06h8.15a1.6,1.6,0,0,1,1.16.48,1.63,1.63,0,0,1,.49,1.16V177.3a1.43,1.43,0,0,1-1.43,1.43h-.14a1.2,1.2,0,0,1-.87-.38,1.18,1.18,0,0,1-.38-.88.15.15,0,0,0-.17-.17H335a.15.15,0,0,0-.17.17v.06a1.33,1.33,0,0,1-2.65,0V158a1.64,1.64,0,0,1,1.64-1.64h5.36a.24.24,0,0,0,.25-.2c.23-.71.41-1.4.56-2.07a1.85,1.85,0,0,1,.7-1.06,1.74,1.74,0,0,1,1-.33l.22,0a1.09,1.09,0,0,1,.89.55,1.21,1.21,0,0,1,.2.65,1.15,1.15,0,0,1-.09.44C342.66,155.09,342.41,155.69,342.19,156.17Zm7.12,2.93c0-.13-.08-.19-.23-.19h-14c-.15,0-.22.06-.22.19v3.24a.19.19,0,0,0,.22.22h14c.15,0,.23-.07.23-.22Zm0,6.14c0-.15-.08-.22-.23-.22h-14a.19.19,0,0,0-.22.22v3.24c0,.13.07.2.22.2h14c.15,0,.23-.07.23-.2Zm-14.46,9.38c0,.15.07.23.22.23h14a.21.21,0,0,0,.23-.23v-3.29c0-.13-.08-.2-.23-.2h-14c-.15,0-.22.07-.22.2Z"/><path class="cls-1" d="M393.33,166.22a1.4,1.4,0,0,1,.81-.64,1.27,1.27,0,0,1,.47-.09,1.31,1.31,0,0,1,.53.12,1.1,1.1,0,0,1,.65.67,1.09,1.09,0,0,1,.08.39,1.07,1.07,0,0,1-.17.55,29.19,29.19,0,0,1-4,5.22.32.32,0,0,0-.09.34q1.49,4.08,3.16,4.08c.57,0,.94-1.2,1.11-3.61a.68.68,0,0,1,1.09-.47,2,2,0,0,1,1.06,1.7v.25a8.51,8.51,0,0,1-1.14,3.8,2.78,2.78,0,0,1-2.38,1q-3,0-5-4.74c-.06-.13-.14-.15-.25-.06a31.78,31.78,0,0,1-4.27,3,1.42,1.42,0,0,1-.76.22,1,1,0,0,1-.33-.06,1.8,1.8,0,0,1-1-.58,1.14,1.14,0,0,1-.28-.7.83.83,0,0,1,0-.22.94.94,0,0,1,.53-.73,30,30,0,0,0,5.17-3.63.28.28,0,0,0,.11-.33,48.61,48.61,0,0,1-1.43-7.6c0-.13-.1-.19-.25-.19h-5.89c-.15,0-.22.06-.22.19v3.61c0,.13.07.18.22.16l3.41-.67a.83.83,0,0,1,.22,0,1,1,0,0,1,.62.23,1,1,0,0,1,.41.86,1.36,1.36,0,0,1-.25.81,1.28,1.28,0,0,1-.81.53q-2.4.57-3.6.81a.23.23,0,0,0-.22.25v5.48a4.14,4.14,0,0,1-.31,1.82,1.94,1.94,0,0,1-1.06.94,9.85,9.85,0,0,1-3.43.5h-.06a1.72,1.72,0,0,1-1.06-.36,2.41,2.41,0,0,1-.75-1,1.23,1.23,0,0,1-.06-.36,1,1,0,0,1,.17-.53.81.81,0,0,1,.72-.39h2.49a.86.86,0,0,0,.53-.17.66.66,0,0,0,.14-.47V171.3c0-.13-.07-.19-.2-.17l-2.3.51c-1,.2-1.53.32-1.66.36a1.87,1.87,0,0,1-.34,0,1.26,1.26,0,0,1-.72-.23,1.44,1.44,0,0,1-.67-.86,2,2,0,0,1,0-.34,1.36,1.36,0,0,1,.2-.67,1.24,1.24,0,0,1,.83-.56c1.46-.26,3-.54,4.69-.86a.22.22,0,0,0,.2-.25v-4.11c0-.13-.07-.19-.2-.19h-4.32a1.2,1.2,0,0,1-.88-.38,1.23,1.23,0,0,1-.38-.89,1.17,1.17,0,0,1,.38-.88,1.22,1.22,0,0,1,.88-.36h4.32c.13,0,.2-.08.2-.23v-3.51c0-.15-.07-.21-.2-.17-1,.17-2.2.34-3.54.53H374a1.33,1.33,0,0,1-.72-.22,1.48,1.48,0,0,1-.59-.76.92.92,0,0,1,0-.81.78.78,0,0,1,.63-.44,75,75,0,0,0,8.74-1.88,2.15,2.15,0,0,1,.64-.11,1.87,1.87,0,0,1,.61.11,2.06,2.06,0,0,1,1.07.68,1,1,0,0,1,.22.61,1.33,1.33,0,0,1,0,.28.87.87,0,0,1-.64.64c-1,.26-2,.51-3.13.75a.23.23,0,0,0-.22.26v4c0,.15.07.23.22.23h5.64c.15,0,.21-.08.2-.23q-.35-3.83-.34-6.42a1.38,1.38,0,0,1,1.36-1.34,1.28,1.28,0,0,1,1,.41,1.34,1.34,0,0,1,.39,1q0,3.27.31,6.39c0,.15.09.23.22.23h6.67a1.22,1.22,0,0,1,.88.36,1.17,1.17,0,0,1,.38.88,1.23,1.23,0,0,1-.38.89,1.2,1.2,0,0,1-.88.38H389.9c-.15,0-.22.06-.2.19q.45,3.27.95,5.39a.14.14,0,0,0,.08.1.12.12,0,0,0,.12,0A27.28,27.28,0,0,0,393.33,166.22Zm2.88-8.63a1.2,1.2,0,0,1,.27.76,1.54,1.54,0,0,1,0,.19,1.34,1.34,0,0,1-.53.87,1.19,1.19,0,0,1-.73.25l-.25,0a1.48,1.48,0,0,1-.87-.53,25.46,25.46,0,0,0-2.59-2.93.9.9,0,0,1-.31-.78.89.89,0,0,1,.42-.73,1.5,1.5,0,0,1,.86-.28h.12a1.44,1.44,0,0,1,.92.39A33,33,0,0,1,396.21,157.59Z"/><path class="cls-1" d="M425.35,168.68a3.23,3.23,0,0,1-1-2.35,3.33,3.33,0,0,1,6.65,0,3.23,3.23,0,0,1-1,2.35,3.32,3.32,0,0,1-4.69,0Z"/><path class="cls-1" d="M465.66,167.64a.24.24,0,0,0-.25-.19l-1.4.08c-.15,0-.22.09-.22.23v10.52a1.07,1.07,0,0,1-.34.81,1.1,1.1,0,0,1-.81.33,1.13,1.13,0,0,1-.81-.33,1.1,1.1,0,0,1-.33-.81V168c0-.15-.07-.21-.2-.19l-1.45.08-1.23.08h-.08a1.15,1.15,0,0,1-.78-.28,1.2,1.2,0,0,1-.45-.95,1.08,1.08,0,0,1,1-1.08l.79,0a.46.46,0,0,0,.33-.2c.56-.76,1-1.34,1.23-1.73a.33.33,0,0,0,0-.36,27.17,27.17,0,0,0-2.6-3.16,1.19,1.19,0,0,1-.36-.79,1.25,1.25,0,0,1,.25-.85l.06,0a.89.89,0,0,1,1.34-.11c.07.05.13,0,.16,0a31.75,31.75,0,0,0,1.82-4,1.21,1.21,0,0,1,1.14-.81,1.11,1.11,0,0,1,.42.08,1,1,0,0,1,.62.61,1.1,1.1,0,0,1,.08.4,1.12,1.12,0,0,1-.11.47c-1,2-1.88,3.54-2.51,4.61a.25.25,0,0,0,0,.33c.4.45.72.85,1,1.2a.1.1,0,0,0,.1.06.15.15,0,0,0,.12-.09c.77-1.26,1.46-2.49,2.07-3.68A1.21,1.21,0,0,1,465,157a1.35,1.35,0,0,1,.42-.08,1.29,1.29,0,0,1,.5.11,1,1,0,0,1,.56.64,1,1,0,0,1-.11.84q-2.56,4.18-4.52,6.78a.11.11,0,0,0,0,.11.08.08,0,0,0,.08.06l2.74-.17a.21.21,0,0,0,.11-.05.14.14,0,0,0,0-.14c-.14-.37-.32-.77-.53-1.2a.93.93,0,0,1,.51-1.23,1.08,1.08,0,0,1,.75,0,1,1,0,0,1,.59.5,26,26,0,0,1,1.67,4.16,1.2,1.2,0,0,1-.1.87,1.17,1.17,0,0,1-.62.58.85.85,0,0,1-.76,0,.91.91,0,0,1-.47-.58C465.76,168,465.71,167.79,465.66,167.64Zm-7.15,3a1,1,0,0,1,.42-.7,1.09,1.09,0,0,1,.78-.19,1.05,1.05,0,0,1,.71.44,1,1,0,0,1,.19.81,27.73,27.73,0,0,1-1.26,5.2.85.85,0,0,1-.55.53,1,1,0,0,1-.79-.06,1.13,1.13,0,0,1-.55-.59,1.1,1.1,0,0,1,0-.78A21.5,21.5,0,0,0,458.51,170.63Zm6.14.28a1.18,1.18,0,0,1,0-.31,1.35,1.35,0,0,1,.08-.42.84.84,0,0,1,.56-.44.88.88,0,0,1,.74,0,1,1,0,0,1,.52.54,25.91,25.91,0,0,1,.92,3.27,1.08,1.08,0,0,1-.16.81,1.2,1.2,0,0,1-.65.5.8.8,0,0,1-.7-.1.83.83,0,0,1-.39-.6A26.74,26.74,0,0,0,464.65,170.91Zm12.4.36a.21.21,0,0,0-.23.23v4.83a.24.24,0,0,0,.23.25,14.28,14.28,0,0,0,2.2.14c1.42,0,2.54,0,3.38,0a.74.74,0,0,1,.67.36.94.94,0,0,1,.17.5,1.71,1.71,0,0,1,0,.31,1.79,1.79,0,0,1-.6.88,1.55,1.55,0,0,1-1,.35h-2.71a12.23,12.23,0,0,1-5.12-.94,7.49,7.49,0,0,1-3.42-3.5.12.12,0,0,0-.09,0s-.05,0-.05.06a14.69,14.69,0,0,1-1.93,3.82,1,1,0,0,1-.81.45.26.26,0,0,1-.14,0,1.37,1.37,0,0,1-.81-.28,1.05,1.05,0,0,1-.44-.76v-.16a1.14,1.14,0,0,1,.22-.7q2.26-3,2.88-9.24a1.1,1.1,0,0,1,.41-.84,1.21,1.21,0,0,1,.76-.28h.14a1.19,1.19,0,0,1,.81.45,1.16,1.16,0,0,1,.28.75v.14c-.13,1.1-.3,2.21-.51,3.32a1.26,1.26,0,0,0,0,.39,7.57,7.57,0,0,0,2.71,3.77.11.11,0,0,0,.11,0,.11.11,0,0,0,.06-.11V165a.18.18,0,0,0-.2-.2h-4.32a1.16,1.16,0,0,1-.86-.36,1.19,1.19,0,0,1-.35-.85,1.16,1.16,0,0,1,.35-.84,1.19,1.19,0,0,1,.86-.35h11.52a1.19,1.19,0,0,1,.86.35,1.15,1.15,0,0,1,.34.84,1.18,1.18,0,0,1-.34.85,1.16,1.16,0,0,1-.86.36h-4.18c-.15,0-.23.07-.23.2v3.71c0,.13.08.2.23.2h3.77a1.1,1.1,0,0,1,.82.35,1.14,1.14,0,0,1,0,1.64,1.1,1.1,0,0,1-.82.35Zm-6.84-12.22c-.13,0-.2.06-.2.19v1.15a1.23,1.23,0,0,1-2.45,0v-2.07a1.56,1.56,0,0,1,.48-1.17,1.62,1.62,0,0,1,1.16-.48h4.44c.15,0,.23-.07.23-.22v-1.87a1.38,1.38,0,0,1,1.36-1.37,1.38,1.38,0,0,1,1.37,1.37v1.87a.19.19,0,0,0,.22.22h4.72a1.6,1.6,0,0,1,1.16.48,1.53,1.53,0,0,1,.49,1.17v2a1.25,1.25,0,0,1-.38.91,1.29,1.29,0,0,1-1.81,0,1.25,1.25,0,0,1-.38-.91v-1.09c0-.13-.07-.19-.2-.19Z"/><path class="cls-1" d="M526.26,158.77a1.2,1.2,0,0,1,.37.88,1.16,1.16,0,0,1-.37.86,1.21,1.21,0,0,1-.86.35h-.65a.23.23,0,0,0-.25.22,32.71,32.71,0,0,1-3.37,10.61.3.3,0,0,0,0,.36,13.94,13.94,0,0,0,4.43,4.3,1.11,1.11,0,0,1,.53.81.91.91,0,0,1,0,.23,1,1,0,0,1-.28.72,1.66,1.66,0,0,1-1,.64,1.15,1.15,0,0,1-.37.06,1.48,1.48,0,0,1-.75-.22,15.85,15.85,0,0,1-4.24-4.14c-.08-.11-.16-.12-.26,0a18.44,18.44,0,0,1-5.24,4.41,1.3,1.3,0,0,1-.62.16A1.42,1.42,0,0,1,513,179a1.61,1.61,0,0,1-.86-.67,1.2,1.2,0,0,1-.2-.64.78.78,0,0,1,.06-.31,1.09,1.09,0,0,1,.59-.78,15.46,15.46,0,0,0,5.27-4.5.3.3,0,0,0,0-.36,35.78,35.78,0,0,1-2.32-6.48.09.09,0,0,0-.08-.05s-.07,0-.08,0c-.17.35-.34.69-.51,1a1.28,1.28,0,0,1-1,.64.91.91,0,0,1-.23,0,1.46,1.46,0,0,1-.94-.33l-.65-.48a.08.08,0,0,0-.11,0,.25.25,0,0,0-.08.1c-.1,4.28-.21,7.24-.35,8.9a7.78,7.78,0,0,1-.68,3.16,2.56,2.56,0,0,1-.77.72,3.5,3.5,0,0,1-1.05.34,12.52,12.52,0,0,1-1.59.08h-.2a1.36,1.36,0,0,1-.93-.36,1.88,1.88,0,0,1-.55-.92.91.91,0,0,1,.13-.77.7.7,0,0,1,.66-.32l1.2,0a.88.88,0,0,0,.83-.42,6.72,6.72,0,0,0,.52-2.71c.12-1.53.21-4.1.27-7.73,0-.13-.05-.2-.2-.2H506.3c-.13,0-.19.07-.19.2a30.42,30.42,0,0,1-.73,6.7,14.25,14.25,0,0,1-2.65,5.52,1.05,1.05,0,0,1-.87.42h0a1.28,1.28,0,0,1-.9-.33,1.39,1.39,0,0,1-.47-.87v-.17a1.32,1.32,0,0,1,.25-.78,12.89,12.89,0,0,0,2.32-4.95,26.94,26.94,0,0,0,.58-5.82v-5.5c0-.13-.07-.2-.22-.2h-1.65a1.24,1.24,0,1,1,0-2.48h3.44c.13,0,.19-.08.19-.23v-2.9a1.24,1.24,0,0,1,.39-.93,1.27,1.27,0,0,1,.94-.38,1.22,1.22,0,0,1,.92.38,1.26,1.26,0,0,1,.37.93v2.9a.21.21,0,0,0,.23.23h3.54a1.24,1.24,0,0,1,.9.36,1.26,1.26,0,0,1,0,1.76,1.24,1.24,0,0,1-.9.36H506.3c-.13,0-.19.07-.19.2v2.93c0,.15.06.22.19.22h4a1.56,1.56,0,0,1,1.15.48,1.5,1.5,0,0,1,.45,1.14v.2s0,0,0,0,.05,0,.07,0q2.7-3.71,4-10.83a1.39,1.39,0,0,1,.56-.89,1.36,1.36,0,0,1,.81-.25.83.83,0,0,1,.22,0,1.31,1.31,0,0,1,1.14,1.28,2.64,2.64,0,0,1,0,.28c-.23,1.1-.47,2.18-.73,3.24a.14.14,0,0,0,0,.14s.06.05.12.05h7.29A1.15,1.15,0,0,1,526.26,158.77Zm-8.9,2.09a.23.23,0,0,0-.25.18.71.71,0,0,0,0,.35,37.48,37.48,0,0,0,2.34,7.62.13.13,0,0,0,.09.07.06.06,0,0,0,.08,0,28.49,28.49,0,0,0,2.26-8c0-.15,0-.22-.17-.22Z"/><path class="cls-1" d="M548.17,162.81a1.14,1.14,0,0,1,.54.87,1.5,1.5,0,0,1,0,.2,1.26,1.26,0,0,1-.28.8,1.24,1.24,0,0,1-.83.51h-.2a1.45,1.45,0,0,1-.78-.23,26.72,26.72,0,0,0-2.4-1.45,1,1,0,0,1-.56-.67,1.13,1.13,0,0,1,0-.25,1,1,0,0,1,.23-.59,1.46,1.46,0,0,1,.83-.55,1.42,1.42,0,0,1,.42-.06,1.93,1.93,0,0,1,.62.11A23.17,23.17,0,0,1,548.17,162.81Zm-1.56,15a1.07,1.07,0,0,1-.72.7,1.64,1.64,0,0,1-.42.06,1.32,1.32,0,0,1-.62-.17,1.38,1.38,0,0,1-.67-.84,2.2,2.2,0,0,1,0-.44,1.46,1.46,0,0,1,.14-.65c1-2,1.9-4.23,2.79-6.61a1,1,0,0,1,.64-.62,1.27,1.27,0,0,1,.34,0,.9.9,0,0,1,.53.17,1.52,1.52,0,0,1,.67.83,2.13,2.13,0,0,1,.08.53,2.1,2.1,0,0,1-.08.56Q548,174.68,546.61,177.8Zm2.68-22.36a1.13,1.13,0,0,1,.5.87.51.51,0,0,1,0,.17,1.22,1.22,0,0,1-.31.83,1.14,1.14,0,0,1-.83.48h-.14a1.27,1.27,0,0,1-.81-.28,21.75,21.75,0,0,0-2.35-1.53,1,1,0,0,1-.51-.72.89.89,0,0,1,.21-.82,1.43,1.43,0,0,1,.83-.56l.34,0a1.33,1.33,0,0,1,.64.17A16.71,16.71,0,0,1,549.29,155.44Zm6.37,10.33c.07,0,.11-.05.11-.11v-2.23s0,0,0,0-.05,0-.05,0a10.37,10.37,0,0,1-4,4.69,1,1,0,0,1-.82.15,1.36,1.36,0,0,1-.74-.43.81.81,0,0,1-.22-.56.8.8,0,0,1,.39-.72,8.08,8.08,0,0,0,3.74-5,.16.16,0,0,0,0-.14.13.13,0,0,0-.12-.06h-1.65a.16.16,0,0,0-.17.12.32.32,0,0,1,0,.14,1.09,1.09,0,0,1-.41.58.92.92,0,0,1-.7.17.89.89,0,0,1-.56-.38.78.78,0,0,1-.11-.65c.18-.77.36-1.63.53-2.6a.9.9,0,0,1,.36-.61,1,1,0,0,1,.7-.2.82.82,0,0,1,.59.32.87.87,0,0,1,.16.66c0,.13,0,.25-.05.36s0,.17.14.17h1.48a.21.21,0,0,0,.22-.2v-1.76c0-.14-.07-.22-.2-.22h-2.37a.93.93,0,0,1-.68-.28.87.87,0,0,1-.3-.67.89.89,0,0,1,.3-.67,1,1,0,0,1,.68-.28h2.37c.13,0,.2-.07.2-.22v-.7a1.07,1.07,0,0,1,.32-.77,1.06,1.06,0,0,1,.77-.32,1.09,1.09,0,0,1,1.09,1.09v.7a.19.19,0,0,0,.22.22h1.59a1,1,0,0,1,.69.28.92.92,0,0,1,.29.67.9.9,0,0,1-.29.67,1,1,0,0,1-.69.28H556.8a.2.2,0,0,0-.22.22v1.76c0,.13,0,.2.19.2h1.62a1,1,0,0,1,.69.28.91.91,0,0,1,.29.68.94.94,0,0,1-.29.69,1,1,0,0,1-.69.27h-1.9a.25.25,0,0,0-.25.2,2.6,2.6,0,0,1-.08.45c0,.11,0,.16.11.16a1.32,1.32,0,0,1,1,.42,1.38,1.38,0,0,1,.41,1V165a.15.15,0,0,0,.07.14.1.1,0,0,0,.12,0l.53-.17.5-.16a.64.64,0,0,1,.6.07.68.68,0,0,1,.35.51,1,1,0,0,1-.12.69,1,1,0,0,1-.52.43l-2.68,1a1,1,0,0,1-1.26-.59l-.08-.2a.69.69,0,0,1,.06-.54A.78.78,0,0,1,555.66,165.77Zm-2.1,13.68a1.19,1.19,0,0,1-.88-.36,1.22,1.22,0,0,1-.35-.87V170a1.6,1.6,0,0,1,.48-1.18,1.62,1.62,0,0,1,1.17-.47h12.17a1.63,1.63,0,0,1,1.16.47,1.57,1.57,0,0,1,.49,1.18v8a1.3,1.3,0,0,1-1.29,1.28H566a.81.81,0,0,1-.6-.24.78.78,0,0,1-.24-.57c0-.07,0-.11-.08-.11H554.9a.1.1,0,0,0-.11.11.89.89,0,0,1-.92.92Zm11.64-8.79c0-.15-.06-.22-.19-.22H555c-.13,0-.2.07-.2.22v1.51c0,.14.07.22.2.22h10c.13,0,.19-.08.19-.22Zm-10.41,5.5c0,.13.07.19.2.19h10a.17.17,0,0,0,.19-.19v-1.71a.17.17,0,0,0-.19-.19H555c-.13,0-.2.06-.2.19Zm11.64-10.5h1.09a.38.38,0,0,0,.4-.25,4.67,4.67,0,0,0,.16-1.14.47.47,0,0,1,.26-.45.73.73,0,0,1,.58,0,1.16,1.16,0,0,1,.61.48,1,1,0,0,1,.19.61,3.14,3.14,0,0,1-.61,2.07,1.55,1.55,0,0,1-1.28.53h-1.65a2.17,2.17,0,0,1-1.65-.48,2.81,2.81,0,0,1-.42-1.81s0,0-.05,0-.07,0-.09,0a9.67,9.67,0,0,1-2.45,2.54.92.92,0,0,1-.59.22.54.54,0,0,1-.19,0,1.33,1.33,0,0,1-.76-.41.88.88,0,0,1-.23-.7.8.8,0,0,1,.37-.62,7.84,7.84,0,0,0,3.18-4.63.14.14,0,0,0,0-.14.2.2,0,0,0-.14-.06h-1.51a.16.16,0,0,0-.17.12v.14a.88.88,0,0,1-.39.57.8.8,0,0,1-.67.12.76.76,0,0,1-.56-.33.92.92,0,0,1-.14-.48v-.16c.15-.75.29-1.6.42-2.57a1.05,1.05,0,0,1,.35-.62.94.94,0,0,1,.69-.22.82.82,0,0,1,.59.32.85.85,0,0,1,.19.66q0,.17-.06.36c0,.11,0,.17.11.17h1.43a.21.21,0,0,0,.22-.2v-1.76c0-.14-.07-.22-.2-.22h-2.31a.94.94,0,0,1-.7-.28.89.89,0,0,1-.28-.67.91.91,0,0,1,.28-.67,1,1,0,0,1,.7-.28h2.31c.13,0,.2-.07.2-.22v-.7a1.07,1.07,0,0,1,.32-.77,1.06,1.06,0,0,1,.77-.32,1.09,1.09,0,0,1,1.09,1.09v.7c0,.15.06.22.19.22h2a1,1,0,0,1,.7.28.91.91,0,0,1,.28.67.89.89,0,0,1-.28.67.94.94,0,0,1-.7.28h-2c-.13,0-.19.08-.19.22v.81c0,.41,0,.73,0,1s.06.2.19.2h2.38a.91.91,0,0,1,.67.28.94.94,0,0,1,.28.68,1,1,0,0,1-.28.69.94.94,0,0,1-.67.27h-2.63a.25.25,0,0,0-.25.2,1.28,1.28,0,0,1,0,.25l-.07.31s0,0,.06,0a.52.52,0,0,1,.41.19.54.54,0,0,1,.17.4v2.4a1,1,0,0,0,.07.45A.54.54,0,0,0,566.43,165.66Z"/><path class="cls-1" d="M595,157a.94.94,0,0,1-.11-.83,1,1,0,0,1,.56-.6,1.55,1.55,0,0,1,.56-.11,1.72,1.72,0,0,1,.44.06,1.45,1.45,0,0,1,.78.58,26,26,0,0,1,2.43,4.28,1.08,1.08,0,0,1,.11.48,1.09,1.09,0,0,1-.11.49,1.27,1.27,0,0,1-.72.7.93.93,0,0,1-.45.11,1.13,1.13,0,0,1-.5-.11,1.4,1.4,0,0,1-.7-.7,2,2,0,0,0-.08-.22.25.25,0,0,0-.28-.17l-5.32.32-4,.24h-.08a1.35,1.35,0,0,1-.87-.31,1.25,1.25,0,0,1-.44-1,1.12,1.12,0,0,1,.3-.78,1.19,1.19,0,0,1,.87-.42c.22,0,.44,0,.67,0a.3.3,0,0,0,.3-.2,41.56,41.56,0,0,0,1.85-4.32,1.62,1.62,0,0,1,.72-.87,1.59,1.59,0,0,1,.76-.19l.33,0a1.12,1.12,0,0,1,.81.62,1.2,1.2,0,0,1,.14.53,1,1,0,0,1-.11.47c-.54,1.23-1.11,2.44-1.7,3.63,0,0,0,.08,0,.11a.15.15,0,0,0,.13.06l4.46-.2s.07,0,.1-.07a.13.13,0,0,0,0-.12C595.51,157.9,595.22,157.42,595,157Zm1.54,6.31a1.56,1.56,0,0,1,1.17.49,1.61,1.61,0,0,1,.47,1.15v11.59a4.08,4.08,0,0,1-.23,1.52,1.73,1.73,0,0,1-.86.85,6.6,6.6,0,0,1-2.59.42h-.06a1.63,1.63,0,0,1-.95-.31,2.1,2.1,0,0,1-.64-.89.8.8,0,0,1,.08-.78.79.79,0,0,1,.67-.36l.7,0,.81,0a.5.5,0,0,0,.35-.1.53.53,0,0,0,.1-.38V174a.2.2,0,0,0-.22-.23h-4.83a.21.21,0,0,0-.23.23v4.1a1.24,1.24,0,1,1-2.48,0V165a1.67,1.67,0,0,1,1.65-1.64Zm-1,2.45a.2.2,0,0,0-.22-.22h-4.83c-.15,0-.23.07-.23.22v1.59a.21.21,0,0,0,.23.23h4.83a.2.2,0,0,0,.22-.23Zm-5.28,5.81c0,.13.08.19.23.19h4.83c.14,0,.22-.06.22-.19v-1.76c0-.13-.08-.19-.22-.19h-4.83c-.15,0-.23.06-.23.19Zm18.54-5.83h-4.44a4.62,4.62,0,0,1-3-.7,3.81,3.81,0,0,1-.75-2.77v-7.67a1.28,1.28,0,0,1,.39-1,1.3,1.3,0,0,1,1-.39,1.24,1.24,0,0,1,.93.39,1.27,1.27,0,0,1,.38,1v2.9a.14.14,0,0,0,.07.13.2.2,0,0,0,.15,0q2.49-.9,4.58-1.87a1.83,1.83,0,0,1,.76-.17l.33,0a1.57,1.57,0,0,1,.92.53.9.9,0,0,1-.3,1.45,62.33,62.33,0,0,1-6.29,2.21.26.26,0,0,0-.22.28v2.15c0,.48.08.79.25.92a2.24,2.24,0,0,0,1.17.19h3.89a1,1,0,0,0,.89-.35,3.12,3.12,0,0,0,.33-1.46.82.82,0,0,1,.44-.64.85.85,0,0,1,.79-.06,1.9,1.9,0,0,1,.87.67,1.49,1.49,0,0,1,.25.78v.23a4.35,4.35,0,0,1-1,2.54A3.41,3.41,0,0,1,608.78,165.75Zm-4,11.13h4a1.07,1.07,0,0,0,1-.44,5.07,5.07,0,0,0,.38-1.87.76.76,0,0,1,.42-.66.86.86,0,0,1,.78,0,1.82,1.82,0,0,1,.86.67,1.47,1.47,0,0,1,.26.81.83.83,0,0,1,0,.22,5.23,5.23,0,0,1-1,2.86,3.25,3.25,0,0,1-2.42.77h-4.6a4.58,4.58,0,0,1-3-.71,3.7,3.7,0,0,1-.77-2.72v-8a1.33,1.33,0,0,1,1.33-1.31,1.23,1.23,0,0,1,.92.39,1.28,1.28,0,0,1,.37.92v2.71a.16.16,0,0,0,.07.13.22.22,0,0,0,.16,0,42.67,42.67,0,0,0,4.94-2.12,1.44,1.44,0,0,1,.78-.22,1.14,1.14,0,0,1,.25,0,1.49,1.49,0,0,1,.92.51.94.94,0,0,1,.28.67.74.74,0,0,1,0,.19.85.85,0,0,1-.53.7,45.25,45.25,0,0,1-6.61,2.46.26.26,0,0,0-.23.27v2.63a1.17,1.17,0,0,0,.28.93A2.34,2.34,0,0,0,604.73,176.88Z"/></svg>