<svg id="圖層_1" data-name="圖層 1" xmlns="http://www.w3.org/2000/svg" xmlns:xlink="http://www.w3.org/1999/xlink" viewBox="0 0 200 200"><defs><style>.cls-1{fill:url(#未命名漸層_270);}.cls-2{fill:#fff;}</style><linearGradient id="未命名漸層_270" y1="100" x2="200" y2="100" gradientUnits="userSpaceOnUse"><stop offset="0" stop-color="#f2d378"/><stop offset="1" stop-color="#d7836e"/></linearGradient></defs><rect class="cls-1" width="200" height="200"/><path class="cls-2" d="M157.48,127.26a14.13,14.13,0,0,1-16.77-18.71c5.34-14,.48-30.7-12.11-41.59-12.94-11.2-31.08-13.38-44.11-5.3a14.13,14.13,0,1,1-14.88-24,62.71,62.71,0,0,1,39.2-8.75A69,69,0,0,1,147.09,45.6c21.54,18.64,29.58,48,20,73A14.13,14.13,0,0,1,157.48,127.26Z"/><path class="cls-2" d="M113.82,169.4c-20.8,5.46-44.12-.11-61.54-15.55A68.9,68.9,0,0,1,30.67,118.1a62.64,62.64,0,0,1,3.51-40A14.13,14.13,0,0,1,60,89.68c-6.29,14-1.74,31.68,11.07,43,12.45,11,29.66,13.66,42.82,6.52a14.13,14.13,0,1,1,13.48,24.83A60.25,60.25,0,0,1,113.82,169.4Z"/><circle class="cls-2" cx="99.78" cy="100.26" r="20"/></svg>