<svg id="圖層_1" data-name="圖層 1" xmlns="http://www.w3.org/2000/svg" viewBox="0 0 474.05 317.63"><defs><style>.cls-1{fill:#fff;}.cls-2{fill:#eeefef;}.cls-3{fill:#eac17e;}.cls-4{fill:#d7836e;}</style></defs><rect class="cls-1" x="-151.22" y="-84.92" width="784.76" height="6242.89"/><rect class="cls-2" x="30.64" width="443.41" height="48.94" rx="24.47"/><rect class="cls-3" x="30.64" width="97.87" height="48.94" rx="24.47"/><path class="cls-4" d="M7.75,30.64a1.17,1.17,0,0,1-.39-.87q0-.29.66-4.32l-.87.71c-1.64,1.33-2.49,2-2.58,2a1.2,1.2,0,0,1-.54.13,1.45,1.45,0,0,1-1.16-.63A1.54,1.54,0,0,1,2.7,27a1.1,1.1,0,0,1,.63-1l4-1.58-4-1.58a1.19,1.19,0,0,1-.63-1.08A1.58,1.58,0,0,1,2.87,21,1.36,1.36,0,0,1,4,20.38a1.31,1.31,0,0,1,.58.16c.09,0,.94.71,2.58,2l.87.71c-.44-2.69-.66-4.13-.66-4.33a1.17,1.17,0,0,1,.39-.87,1.27,1.27,0,0,1,.9-.37,1.25,1.25,0,0,1,.89.37,1.17,1.17,0,0,1,.39.87c0,.2-.22,1.64-.66,4.33l.87-.71,2.54-2a1,1,0,0,1,.62-.16,1.28,1.28,0,0,1,1.12.62,1.48,1.48,0,0,1,.17.67A1.3,1.3,0,0,1,14,22.79l-4,1.58L14,26A1.2,1.2,0,0,1,14.59,27a1.47,1.47,0,0,1-.17.66,1.45,1.45,0,0,1-1.16.63,1.26,1.26,0,0,1-.54-.13c-.08,0-.94-.7-2.58-2l-.87-.71q.66,4,.66,4.32a1.17,1.17,0,0,1-.39.87,1.26,1.26,0,0,1-.89.38A1.28,1.28,0,0,1,7.75,30.64Z"/><path class="cls-2" d="M449.58,134.92H55.1a24.47,24.47,0,0,1-24.46-24.47h0A24.47,24.47,0,0,1,55.1,86H449.58a24.48,24.48,0,0,1,24.47,24.47h0A24.48,24.48,0,0,1,449.58,134.92Z"/><path class="cls-3" d="M104,134.92H55.1a24.47,24.47,0,0,1-24.46-24.47h0A24.47,24.47,0,0,1,55.1,86H104a24.48,24.48,0,0,1,24.47,24.47h0A24.48,24.48,0,0,1,104,134.92Z"/><path class="cls-3" d="M434.93,120.11l-9.17-12.72a2.68,2.68,0,0,1,2.17-4.25h18.34a2.68,2.68,0,0,1,2.17,4.25l-9.17,12.72A2.67,2.67,0,0,1,434.93,120.11Z"/><path class="cls-4" d="M7.75,115.13a1.17,1.17,0,0,1-.39-.87c0-.2.22-1.64.66-4.33l-.87.71c-1.64,1.33-2.49,2-2.58,2a1.19,1.19,0,0,1-.54.12,1.47,1.47,0,0,1-1.16-.62,1.58,1.58,0,0,1-.17-.71,1.1,1.1,0,0,1,.63-1l4-1.58-4-1.58a1.19,1.19,0,0,1-.63-1.08,1.54,1.54,0,0,1,.17-.7A1.35,1.35,0,0,1,4,104.86a1.34,1.34,0,0,1,.58.17c.09,0,.94.71,2.58,2l.87.7q-.66-4-.66-4.32a1.17,1.17,0,0,1,.39-.87,1.28,1.28,0,0,1,.9-.38,1.26,1.26,0,0,1,.89.38,1.17,1.17,0,0,1,.39.87q0,.28-.66,4.32l.87-.7,2.54-2a1,1,0,0,1,.62-.17,1.27,1.27,0,0,1,1.12.63,1.47,1.47,0,0,1,.17.66,1.28,1.28,0,0,1-.62,1.12l-4,1.58,4,1.58a1.2,1.2,0,0,1,.62,1.08,1.51,1.51,0,0,1-.17.67,1.47,1.47,0,0,1-1.16.62,1.25,1.25,0,0,1-.54-.12q-.12,0-2.58-2l-.87-.71c.44,2.69.66,4.13.66,4.33a1.17,1.17,0,0,1-.39.87,1.25,1.25,0,0,1-.89.37A1.27,1.27,0,0,1,7.75,115.13Z"/><path class="cls-2" d="M449.58,218.48H55.1A24.47,24.47,0,0,1,30.64,194h0A24.46,24.46,0,0,1,55.1,169.54H449.58A24.47,24.47,0,0,1,474.05,194h0A24.48,24.48,0,0,1,449.58,218.48Z"/><path class="cls-3" d="M104,218.48H55.1A24.47,24.47,0,0,1,30.64,194h0A24.46,24.46,0,0,1,55.1,169.54H104A24.47,24.47,0,0,1,128.51,194h0A24.48,24.48,0,0,1,104,218.48Z"/><path class="cls-4" d="M7.75,202a1.17,1.17,0,0,1-.39-.87c0-.2.22-1.64.66-4.33l-.87.71c-1.64,1.33-2.49,2-2.58,2a1.19,1.19,0,0,1-.54.12,1.47,1.47,0,0,1-1.16-.62,1.58,1.58,0,0,1-.17-.71,1.1,1.1,0,0,1,.63-1l4-1.58-4-1.58a1.19,1.19,0,0,1-.63-1.08,1.54,1.54,0,0,1,.17-.7A1.35,1.35,0,0,1,4,191.77a1.34,1.34,0,0,1,.58.17c.09,0,.94.7,2.58,2l.87.71q-.66-4-.66-4.32a1.17,1.17,0,0,1,.39-.87,1.28,1.28,0,0,1,.9-.38,1.26,1.26,0,0,1,.89.38,1.17,1.17,0,0,1,.39.87q0,.28-.66,4.32l.87-.71,2.54-2a1,1,0,0,1,.62-.17,1.27,1.27,0,0,1,1.12.63,1.47,1.47,0,0,1,.17.66,1.28,1.28,0,0,1-.62,1.12l-4,1.58,4,1.58a1.2,1.2,0,0,1,.62,1.08,1.51,1.51,0,0,1-.17.67,1.47,1.47,0,0,1-1.16.62,1.25,1.25,0,0,1-.54-.12q-.12,0-2.58-2l-.87-.71c.44,2.69.66,4.13.66,4.33a1.17,1.17,0,0,1-.39.87,1.25,1.25,0,0,1-.89.37A1.27,1.27,0,0,1,7.75,202Z"/><path class="cls-2" d="M449.58,303.71H55.1a24.47,24.47,0,0,1-24.46-24.47h0A24.47,24.47,0,0,1,55.1,254.77H449.58a24.48,24.48,0,0,1,24.47,24.47h0A24.48,24.48,0,0,1,449.58,303.71Z"/><path class="cls-3" d="M104,303.71H55.1a24.47,24.47,0,0,1-24.46-24.47h0A24.47,24.47,0,0,1,55.1,254.77H104a24.48,24.48,0,0,1,24.47,24.47h0A24.48,24.48,0,0,1,104,303.71Z"/><path class="cls-4" d="M7.75,287.27a1.17,1.17,0,0,1-.39-.87c0-.19.22-1.64.66-4.32l-.87.7c-1.64,1.33-2.49,2-2.58,2a1.19,1.19,0,0,1-.54.12,1.44,1.44,0,0,1-1.16-.62,1.58,1.58,0,0,1-.17-.71,1.09,1.09,0,0,1,.63-1l4-1.58-4-1.58a1.19,1.19,0,0,1-.63-1.08,1.58,1.58,0,0,1,.17-.71A1.33,1.33,0,0,1,4,277a1.31,1.31,0,0,1,.58.16c.09,0,.94.71,2.58,2l.87.7q-.66-4-.66-4.32a1.17,1.17,0,0,1,.39-.87,1.27,1.27,0,0,1,.9-.37,1.25,1.25,0,0,1,.89.37,1.17,1.17,0,0,1,.39.87q0,.3-.66,4.32l.87-.7,2.54-2a1,1,0,0,1,.62-.16,1.26,1.26,0,0,1,1.12.62,1.47,1.47,0,0,1,.17.66,1.3,1.3,0,0,1-.62,1.13l-4,1.58,4,1.58a1.18,1.18,0,0,1,.62,1.08,1.47,1.47,0,0,1-.17.66,1.44,1.44,0,0,1-1.16.62,1.25,1.25,0,0,1-.54-.12q-.12,0-2.58-2l-.87-.7c.44,2.68.66,4.13.66,4.32a1.17,1.17,0,0,1-.39.87,1.26,1.26,0,0,1-.89.38A1.28,1.28,0,0,1,7.75,287.27Z"/><path class="cls-1" d="M69.37,33.69a.16.16,0,0,0,.18.18H74a1.15,1.15,0,0,1,.84.35,1.11,1.11,0,0,1,.35.84,1.07,1.07,0,0,1-.35.83,1.14,1.14,0,0,1-.84.34H61.46a1.16,1.16,0,0,1-1.17-1.17,1.14,1.14,0,0,1,.34-.84,1.11,1.11,0,0,1,.83-.35H66.7a.16.16,0,0,0,.18-.18V28.06a.16.16,0,0,0-.18-.18H63.17A1.16,1.16,0,0,1,62,26.73a1.16,1.16,0,0,1,1.17-1.16H66.7c.12,0,.18-.07.18-.2V20.54c0-.13-.06-.2-.18-.2H63.87a.27.27,0,0,0-.26.18,25.08,25.08,0,0,1-1,2.38,1.26,1.26,0,0,1-.91.68,1.94,1.94,0,0,1-.33,0,1.51,1.51,0,0,1-.81-.23L60,23.06c-.12-.07-.19,0-.2.1a31.93,31.93,0,0,1-1.53,6.25.36.36,0,0,0,.07.34,18.52,18.52,0,0,1,1.72,1.71,1.4,1.4,0,0,1,.36,1,1.56,1.56,0,0,1-.36,1,.9.9,0,0,1-.76.39h0a1.12,1.12,0,0,1-.81-.39c-.36-.43-.77-.88-1.24-1.35-.09-.09-.16-.08-.23,0a13,13,0,0,1-3.5,4,1.17,1.17,0,0,1-.65.21,1.15,1.15,0,0,1-.26,0,1.21,1.21,0,0,1-.78-.52,1.13,1.13,0,0,1-.23-.67.9.9,0,0,1,0-.18,1.12,1.12,0,0,1,.47-.76,11.18,11.18,0,0,0,3.16-3.73.24.24,0,0,0,0-.31c-.52-.47-1.1-1-1.73-1.48-.07-.05-.12,0-.13.05a.71.71,0,0,1-.39.46.61.61,0,0,1-.6,0L52.13,29a1.41,1.41,0,0,1-.65-.73,1.37,1.37,0,0,1-.13-.59,1.64,1.64,0,0,1,0-.37c.48-2,1-4.35,1.5-7q.06-.18-.15-.18H52a1.09,1.09,0,0,1-.8-.33,1.15,1.15,0,0,1-.34-.82,1.07,1.07,0,0,1,.34-.8,1.09,1.09,0,0,1,.8-.33h1.17a.23.23,0,0,0,.23-.21c.28-1.48.5-2.8.68-4a1.22,1.22,0,0,1,1.22-1.07h.15a1.07,1.07,0,0,1,.75.45,1,1,0,0,1,.24.64.76.76,0,0,1,0,.21c-.19,1.12-.41,2.37-.67,3.73q-.06.21.15.21h2.23a14.16,14.16,0,0,1,1.45,0,.85.85,0,0,1,.52.27.7.7,0,0,1,.18.55q-.1,1.83-.36,3.81s0,0,0,0,0,0,0,0a20.29,20.29,0,0,0,2.62-7.38,1.21,1.21,0,0,1,.49-.78,1.12,1.12,0,0,1,.7-.24l.21,0a1.14,1.14,0,0,1,.77.49,1.07,1.07,0,0,1,.24.65,1.15,1.15,0,0,1,0,.26c-.15.8-.34,1.57-.54,2.33a.11.11,0,0,0,0,.12.18.18,0,0,0,.13.06H66.7c.12,0,.18-.06.18-.2V13.91a1.19,1.19,0,0,1,.36-.88,1.22,1.22,0,0,1,.88-.37,1.26,1.26,0,0,1,1.25,1.25V17.8c0,.14.06.2.18.2h3.81a1.14,1.14,0,0,1,1.16,1.17,1.13,1.13,0,0,1-.33.83,1.16,1.16,0,0,1-.83.34H69.55c-.12,0-.18.07-.18.2v4.83c0,.13.06.2.18.2H73.1a1.16,1.16,0,0,1,1.14,1.16,1.16,1.16,0,0,1-1.14,1.15H69.55a.16.16,0,0,0-.18.18ZM57.91,20.23a.16.16,0,0,0-.18-.18H55.45a.23.23,0,0,0-.24.18q-.47,2.41-1.22,5.71a.35.35,0,0,0,.13.31c.61.43,1.29,1,2.05,1.6.1.09.17.07.21-.05A32.59,32.59,0,0,0,57.91,20.23Z"/><path class="cls-1" d="M103.66,25.31a1.52,1.52,0,0,1,1.53,1.53v8.71a1.26,1.26,0,0,1-.37.9,1.19,1.19,0,0,1-.9.37h-.32a1,1,0,0,1-.95-1,.12.12,0,0,0-.13-.13h-9.8c-.07,0-.11,0-.11.1a.9.9,0,0,1-.27.66.86.86,0,0,1-.63.27h-.34a1.2,1.2,0,0,1-.86-.36,1.21,1.21,0,0,1-.36-.88V29a.12.12,0,0,0-.06-.1s-.09,0-.12,0a31.67,31.67,0,0,1-4.8,2.28,1.73,1.73,0,0,1-.49.08,1.4,1.4,0,0,1-.54-.1,1.67,1.67,0,0,1-.83-.7,1,1,0,0,1-.18-.55.87.87,0,0,1,.05-.31.91.91,0,0,1,.59-.59,29.44,29.44,0,0,0,8.12-4.36.17.17,0,0,0,0-.26,32.55,32.55,0,0,0-4.2-3.73.21.21,0,0,0-.31,0c-.69.52-1.36,1-2,1.42a1.32,1.32,0,0,1-.72.21l-.26,0a1.48,1.48,0,0,1-.91-.55.94.94,0,0,1-.28-.7.92.92,0,0,1,.44-.83,21.93,21.93,0,0,0,7-6.63,2,2,0,0,1,.93-.81,1.91,1.91,0,0,1,.81-.18l.39,0a1,1,0,0,1,.7.57.84.84,0,0,1,.1.39.93.93,0,0,1-.16.51l-.57.81a.17.17,0,0,0,0,.1S93,15,93,15h6.61a1,1,0,0,1,.78.08l.46.26a1,1,0,0,1,.5.56,1.11,1.11,0,0,1,0,.76,24.4,24.4,0,0,1-6.2,8.48.08.08,0,0,0,0,.1.07.07,0,0,0,.08,0Zm-5.4-7.9a.11.11,0,0,0,0-.12.1.1,0,0,0-.09-.06H91.24a.5.5,0,0,0-.34.15c-.53.61-1,1.07-1.32,1.4q-.15.13,0,.24a35.64,35.64,0,0,1,4.33,3.68.19.19,0,0,0,.28,0A21,21,0,0,0,98.26,17.41ZM92.61,33.3q0,.21.18.21h9.67c.12,0,.19-.07.19-.21V27.75a.17.17,0,0,0-.19-.18H92.79a.16.16,0,0,0-.18.18Z"/><path class="cls-1" d="M73.82,113.66a1.2,1.2,0,0,1,1.2,1.2,1.2,1.2,0,0,1-1.2,1.21H65.89q-.21,0-.21.18v4.41a1.25,1.25,0,0,1-.36.89,1.19,1.19,0,0,1-.89.38,1.3,1.3,0,0,1-1.29-1.27v-4.41a.16.16,0,0,0-.18-.18H52.26a1.2,1.2,0,0,1-1.2-1.21,1.2,1.2,0,0,1,1.2-1.2h2.9c.12,0,.18-.06.18-.19v-5.28a1.47,1.47,0,0,1,.45-1.08,1.51,1.51,0,0,1,1.08-.45H63a.16.16,0,0,0,.18-.18v-3.3A.16.16,0,0,0,63,103h-5.7a.33.33,0,0,0-.29.16,24.58,24.58,0,0,1-2.8,3.91,1.31,1.31,0,0,1-1,.44h-.11a1.47,1.47,0,0,1-.91-.31,1.06,1.06,0,0,1-.46-.91,1,1,0,0,1,.34-.77,21.38,21.38,0,0,0,4.35-6.87,1.52,1.52,0,0,1,.7-.76,1.41,1.41,0,0,1,.62-.15,1.89,1.89,0,0,1,.39.05,1.14,1.14,0,0,1,.73.57,1.25,1.25,0,0,1,.13.52,1.1,1.1,0,0,1-.11.44c-.14.33-.29.7-.46,1.12a.09.09,0,0,0,0,.11s.06.07.09.07h14a1.11,1.11,0,0,1,.84.35,1.18,1.18,0,0,1,0,1.68,1.11,1.11,0,0,1-.84.35H65.89q-.21,0-.21.18v3.3q0,.18.21.18H72a1.09,1.09,0,0,1,.8.33,1.16,1.16,0,0,1,0,1.64,1.09,1.09,0,0,1-.8.33H65.89a.19.19,0,0,0-.21.21v4.3c0,.13.07.19.21.19Zm-16-.19c0,.13.07.19.21.19h5c.12,0,.18-.06.18-.19v-4.3q0-.21-.18-.21H58a.19.19,0,0,0-.21.21Z"/><path class="cls-1" d="M99.17,98.59a1.58,1.58,0,0,1,.6-.75,1.55,1.55,0,0,1,.91-.28,1.72,1.72,0,0,1,.94.27,1.64,1.64,0,0,1,.64.74,23.15,23.15,0,0,0,4.2,6.14,1.74,1.74,0,0,1,.46,1.12,1.41,1.41,0,0,1-.23.8,1,1,0,0,1-.73.49h-.15a.9.9,0,0,1-.65-.28,25.39,25.39,0,0,1-4.33-6.61s0,0-.06,0-.08,0-.09,0a23.7,23.7,0,0,1-3.12,5.44.09.09,0,0,0,0,.11.11.11,0,0,0,.1,0h5.65a.92.92,0,0,1,.7.3,1,1,0,0,1,.29.71,1,1,0,0,1-.29.71.92.92,0,0,1-.7.3H98.78a1.5,1.5,0,0,1-1.07-.44,1.44,1.44,0,0,1-.46-1.09v0s0-.06,0-.07,0,0-.09,0c-.24.31-.49.6-.75.88a.8.8,0,0,1-.75.26,1,1,0,0,1-.7-.47l-.21-.31a1,1,0,0,1-.15-.62.91.91,0,0,1,.26-.6s0,0,0,0,0,0,0,0H83.67A.91.91,0,0,1,83,105a1,1,0,0,1,0-1.38.91.91,0,0,1,.67-.28h.57q.21,0,.21-.18V100a1,1,0,1,1,1.94,0v3.14q0,.18.21.18H88q.21,0,.21-.18V98.62a1,1,0,0,1,.31-.73,1.05,1.05,0,0,1,.74-.31,1,1,0,0,1,.74.31,1,1,0,0,1,.31.73v.93q0,.21.18.21h3a.94.94,0,0,1,.67.27.91.91,0,0,1,.27.66.92.92,0,0,1-.94.94h-3a.16.16,0,0,0-.18.18v1.35a.16.16,0,0,0,.18.18h3.32a1.34,1.34,0,0,1,1,.43,1.39,1.39,0,0,1,.42,1s0,0,.05,0a.11.11,0,0,0,.08,0A21.16,21.16,0,0,0,99.17,98.59Zm-6.79,11.07a.07.07,0,0,0,.08,0,.07.07,0,0,0,.05-.07V107a.86.86,0,0,1,.27-.65.92.92,0,0,1,.65-.26.89.89,0,0,1,.89.91v13.48a.87.87,0,0,1-.26.65.85.85,0,0,1-.63.25.91.91,0,0,1-.65-.25.88.88,0,0,1-.27-.65c0-.09,0-.13-.13-.13H85.51a.13.13,0,0,0-.15.15v.31a.89.89,0,0,1-.26.65.84.84,0,0,1-.63.26.82.82,0,0,1-.62-.26.89.89,0,0,1-.26-.65V106.94a.89.89,0,0,1,.88-.88.88.88,0,0,1,.63.26.85.85,0,0,1,.26.62v2.72c0,.06,0,.09,0,.09a.05.05,0,0,0,.07,0,5.8,5.8,0,0,0,1.25-3,.61.61,0,0,1,.25-.45.66.66,0,0,1,.49-.14.59.59,0,0,1,.44.24.56.56,0,0,1,.11.48,7.85,7.85,0,0,1-.2,1,.38.38,0,0,0,.1.33c.35.38.62.7.83,1,.09.11.17.11.23,0a6.08,6.08,0,0,0,.94-2.38.71.71,0,0,1,.27-.46.62.62,0,0,1,.49-.12.61.61,0,0,1,.53.73c-.07.32-.14.63-.23.94a.34.34,0,0,0,.08.33Q92,109.12,92.38,109.66Zm-3.91.47s-.07,0-.08,0a.34.34,0,0,1-.29.08.43.43,0,0,1-.26-.16c-.15-.22-.3-.42-.44-.59s-.12-.06-.15,0a4.14,4.14,0,0,1-.39.68.74.74,0,0,1-.64.35,1.09,1.09,0,0,1-.76-.28.08.08,0,0,0-.07,0,.09.09,0,0,0,0,.06v.7c0,.12.06.18.2.18H92.3q.21,0,.21-.18v-.89a.05.05,0,0,0,0-.06.06.06,0,0,0-.06,0,.91.91,0,0,1-.74.28A1,1,0,0,1,91,110a6.75,6.75,0,0,0-.41-.57c-.09-.11-.17-.1-.24,0a3.83,3.83,0,0,1-.44.73.81.81,0,0,1-.66.31,1,1,0,0,1-.71-.28Zm1.47,3.76a.74.74,0,0,1,.26-.43.64.64,0,0,1,.48-.14.61.61,0,0,1,.44.25.58.58,0,0,1,.12.47c-.07.35-.15.69-.23,1a.24.24,0,0,0,.07.31c.52.57,1,1.08,1.3,1.53a.1.1,0,0,0,.08,0,.07.07,0,0,0,.05-.07v-3.7q0-.18-.21-.18H85.56c-.14,0-.2.06-.2.18V117s0,0,0,.06.06,0,.07,0a6.07,6.07,0,0,0,1.22-3.11.73.73,0,0,1,.28-.43.66.66,0,0,1,.49-.14.62.62,0,0,1,.44.23A.56.56,0,0,1,88,114a9.22,9.22,0,0,1-.2,1,.33.33,0,0,0,.1.31,13.33,13.33,0,0,1,.88,1.06.17.17,0,0,0,.24,0A6.32,6.32,0,0,0,89.94,113.89Zm-4.58,4.43c0,.14.06.21.2.21H92.3a.19.19,0,0,0,.21-.21v-.83a.05.05,0,0,0,0-.06s0,0-.06,0a.79.79,0,0,1-.66.26.84.84,0,0,1-.64-.34c-.19-.26-.37-.49-.54-.7s-.16-.09-.21,0a6.49,6.49,0,0,1-.49.75.7.7,0,0,1-.61.32.89.89,0,0,1-.69-.27s0,0,0,0-.06,0-.08,0a.31.31,0,0,1-.26.09.36.36,0,0,1-.26-.14,7.69,7.69,0,0,0-.52-.68q-.11-.12-.18,0c-.12.24-.24.46-.36.65a.76.76,0,0,1-.66.37,1,1,0,0,1-.74-.27.08.08,0,0,0-.07,0,.06.06,0,0,0,0,.06Zm19-8.42a1.49,1.49,0,0,1,1.08.45,1.47,1.47,0,0,1,.45,1.08V117a3.68,3.68,0,0,1-.19,1.3,1.46,1.46,0,0,1-.72.73,2.6,2.6,0,0,1-.88.28,9.19,9.19,0,0,1-1.3.08h0a1.19,1.19,0,0,1-.8-.29,1.4,1.4,0,0,1-.52-.77.77.77,0,0,1,.09-.72.7.7,0,0,1,.61-.32q.54,0,1.14,0a.5.5,0,0,0,.28-.1.35.35,0,0,0,.08-.27v-4.66c0-.12-.07-.19-.21-.19h-2.69c-.14,0-.21.07-.21.19v8.52a1.11,1.11,0,0,1-.32.8,1.11,1.11,0,0,1-1.56,0,1.07,1.07,0,0,1-.32-.8v-8.52a.17.17,0,0,0-.19-.19H96.29a1.08,1.08,0,0,1-.76-1.85,1.07,1.07,0,0,1,.76-.32Z"/><path class="cls-1" d="M67.21,185.2a1,1,0,0,1,.68.27,1,1,0,0,1,0,1.35,1,1,0,0,1-.68.27H61a1,1,0,0,1-.71-.3,1,1,0,0,1-.3-.71c0-.09,0-.13-.13-.13H59q-.21,0-.21.18V206a1,1,0,0,1-1,1,1,1,0,0,1-.74-.3,1,1,0,0,1-.31-.73v-3.58c0-.12-.06-.17-.18-.16l-2.18.47-2.15.47-.26,0a1,1,0,0,1-.59-.21,1,1,0,0,1-.5-.72,1.49,1.49,0,0,1,0-.21,1.23,1.23,0,0,1,.2-.65,1.05,1.05,0,0,1,.73-.46l.34-.06a.22.22,0,0,0,.18-.23V186.08c0-.09,0-.13-.13-.13a.94.94,0,0,1-.71-.3,1,1,0,0,1-.3-.71v-.1a1.07,1.07,0,0,1,.32-.77,1.1,1.1,0,0,1,.79-.32h6.46A1.26,1.26,0,0,1,60,185c0,.11.06.16.18.16h2.55c.13,0,.2-.06.2-.18V183.8a1,1,0,0,1,.31-.75,1.07,1.07,0,0,1,1.51,0,1,1,0,0,1,.31.75V185a.16.16,0,0,0,.18.18Zm-10.65,4.12q.18,0,.18-.21v-3a.16.16,0,0,0-.18-.18h-2q-.21,0-.21.18v3a.19.19,0,0,0,.21.21Zm0,5.39c.12,0,.18-.07.18-.2v-3a.16.16,0,0,0-.18-.18h-2q-.21,0-.21.18v3a.18.18,0,0,0,.21.2Zm-2.18,5.6q0,.21.21.18l2-.39c.12,0,.18-.09.18-.23v-2.93a.16.16,0,0,0-.18-.18h-2q-.21,0-.21.18Zm18.07-5.21a1.11,1.11,0,0,1,.49-.63,1,1,0,0,1,.78-.12.86.86,0,0,1,.62.44,1,1,0,0,1,.11.75A25,25,0,0,1,72,201.09a.53.53,0,0,0-.08.36q.5,2.67,1.17,2.67c.31,0,.54-.86.7-2.59a.43.43,0,0,1,.31-.41.51.51,0,0,1,.52.07,1.71,1.71,0,0,1,.72,1.38,1.67,1.67,0,0,1,0,.31Q74.63,207,73,207h0c-1.15,0-2-1.12-2.65-3.27a.15.15,0,0,0-.09-.06.07.07,0,0,0-.09,0,21,21,0,0,1-2.8,2.69,1.07,1.07,0,0,1-.65.21h-.15a1.33,1.33,0,0,1-.76-.41.89.89,0,0,1-.23-.73,1,1,0,0,1,.39-.67,12.62,12.62,0,0,0,1.35-1.09s.05-.07,0-.09,0,0-.07,0H62.68q-.21,0-.21.18v.47a.94.94,0,0,1-.27.67.91.91,0,0,1-.68.29.94.94,0,0,1-.68-.29.92.92,0,0,1-.29-.67v-8.35A1.52,1.52,0,0,1,61,194.8a1.48,1.48,0,0,1,1.09-.45h4.07a1.46,1.46,0,0,1,1.09.45,1.52,1.52,0,0,1,.44,1.08v7.28a.09.09,0,0,0,0,.08.05.05,0,0,0,.08,0,17.61,17.61,0,0,0,1.82-2.13.5.5,0,0,0,.07-.34,68.8,68.8,0,0,1-.7-7.59c0-.14-.08-.21-.2-.21H60.32a1,1,0,0,1-.7-.29.92.92,0,0,1-.29-.68,1,1,0,0,1,.29-.7.92.92,0,0,1,.7-.3h.88q.21,0,.18-.18a15.07,15.07,0,0,0-.46-2.49.74.74,0,0,1,.09-.61.77.77,0,0,1,.5-.38.9.9,0,0,1,.66.1.8.8,0,0,1,.43.53A14.64,14.64,0,0,1,63,189.5a.9.9,0,0,1,0,.24,1.07,1.07,0,0,1-.23.67A1.27,1.27,0,0,1,62,191l0,0h3.94s0,0,0,0a1.14,1.14,0,0,1-.75-.57,1.19,1.19,0,0,1-.16-.62,1.49,1.49,0,0,1,0-.28c.12-.52.22-1,.31-1.43a1.06,1.06,0,0,1,.43-.62.82.82,0,0,1,.73-.13.83.83,0,0,1,.57.41.76.76,0,0,1,.08.7c-.43,1.35-.69,2.15-.78,2.39a.15.15,0,0,0,0,.13.11.11,0,0,0,.09,0h2.2a.16.16,0,0,0,.18-.18q-.15-5.4-.15-7a1.06,1.06,0,0,1,1.06-1.06,1.09,1.09,0,0,1,1.09,1.09c0,2.76.06,5.1.13,7q0,.18.21.18h3.06a.92.92,0,0,1,.69.3,1,1,0,0,1,.29.7.92.92,0,0,1-.29.68.94.94,0,0,1-.69.29h-3a.16.16,0,0,0-.18.21c.12,2,.24,3.44.34,4.48,0,0,0,.05,0,.05l.06,0C71.87,196.86,72.17,196,72.45,195.1Zm-6.71,1.25q0-.21-.18-.21H62.68a.19.19,0,0,0-.21.21v1.55a.19.19,0,0,0,.21.21h2.88q.18,0,.18-.21Zm-3.27,5.28c0,.13.07.19.21.19h2.88c.12,0,.18-.06.18-.19V200c0-.13-.06-.2-.18-.2H62.68a.18.18,0,0,0-.21.2Zm12.44-14.56a1,1,0,0,1,0,.76,1.11,1.11,0,0,1-.51.64.9.9,0,0,1-.72.05.93.93,0,0,1-.55-.5,21.76,21.76,0,0,0-1.64-2.69.8.8,0,0,1,.26-1.17,1.13,1.13,0,0,1,1.43.26A19,19,0,0,1,74.91,187.07Z"/><path class="cls-1" d="M106.22,199.12a1,1,0,0,1,.31.74.94.94,0,0,1-.31.72,1,1,0,0,1-.72.3H98.42a.06.06,0,0,0-.06.05s0,.06,0,.08a23.39,23.39,0,0,0,7.49,3.19.82.82,0,0,1,.6.54,1.1,1.1,0,0,1,.05.29.84.84,0,0,1-.18.52,2,2,0,0,1-1,.72,1.38,1.38,0,0,1-.6.13,1.41,1.41,0,0,1-.52-.1,22.17,22.17,0,0,1-8-4.46.14.14,0,0,0-.11,0s0,0,0,.09v3.91a1.18,1.18,0,0,1-.35.87,1.22,1.22,0,0,1-1.71,0,1.18,1.18,0,0,1-.35-.87V202.1a.1.1,0,0,0-.05-.08.21.21,0,0,0-.11,0,25,25,0,0,1-8,4.28,1.81,1.81,0,0,1-.51.08,1.65,1.65,0,0,1-.57-.11,1.89,1.89,0,0,1-.91-.7.79.79,0,0,1-.18-.51.91.91,0,0,1,.15-.5.84.84,0,0,1,.44-.28A24.36,24.36,0,0,0,91.4,201a.1.1,0,0,0,0-.08.07.07,0,0,0-.07-.05h-7a1,1,0,0,1-1-1,1,1,0,0,1,.3-.74.93.93,0,0,1,.71-.31h9.07q.21,0,.21-.18v-1.25q0-.18-.21-.18H86.75a.93.93,0,0,1-.66-.27.94.94,0,0,1,0-1.32.94.94,0,0,1,.66-.28h6.69q.21,0,.21-.18v-1.22q0-.18-.21-.18H85.51a.94.94,0,0,1-.7-.28,1,1,0,0,1-.28-.7,1,1,0,0,1,1-1h4.25a.13.13,0,0,0,.12-.05.14.14,0,0,0,0-.13,13.22,13.22,0,0,0-.78-1.73.47.47,0,0,1,0-.37.4.4,0,0,1,.29-.23H84.5a1,1,0,0,1-.74-.31,1,1,0,0,1-.3-.74,1,1,0,0,1,.3-.73,1,1,0,0,1,.74-.3h2.7a.12.12,0,0,0,.09-.06.13.13,0,0,0,0-.12,16.62,16.62,0,0,0-1.25-2.43.93.93,0,0,1-.09-.79.84.84,0,0,1,.56-.54,1.59,1.59,0,0,1,.48-.07,1.51,1.51,0,0,1,.48.07,1.33,1.33,0,0,1,.75.58,18.63,18.63,0,0,1,1,1.68,1.11,1.11,0,0,1,.13.52,1.07,1.07,0,0,1-.1.44,1.16,1.16,0,0,1-.7.67s0,0,0,.05h2.56c.14,0,.21-.06.21-.2V183.8a1.07,1.07,0,0,1,.34-.8,1.15,1.15,0,0,1,1.63,0,1.07,1.07,0,0,1,.34.8V187c0,.14.06.2.18.2H96c.12,0,.18-.06.18-.2v-3.16a1.07,1.07,0,0,1,.35-.83,1.13,1.13,0,0,1,.83-.34,1.07,1.07,0,0,1,.81.34,1.1,1.1,0,0,1,.34.83V187c0,.14.07.2.21.2h2.54s0,0,0,0a.79.79,0,0,1-.49-.47.71.71,0,0,1,0-.65c.33-.64.63-1.27.91-1.89a1.67,1.67,0,0,1,.73-.78,1.59,1.59,0,0,1,.67-.15l.36,0a1,1,0,0,1,.68.6,1,1,0,0,1,.07.39,1,1,0,0,1-.13.49c-.51.9-1,1.67-1.45,2.31a.17.17,0,0,0,0,.1.08.08,0,0,0,.08.05h2.62a1,1,0,0,1,.71.3,1,1,0,0,1,.3.73,1,1,0,0,1-.3.74,1,1,0,0,1-.71.31H101.5a.32.32,0,0,0-.28.15c-.31.57-.74,1.31-1.3,2.21a.17.17,0,0,0,0,.1s.06.05.11.05h4.46a1,1,0,0,1,.68.29.92.92,0,0,1,.3.7,1,1,0,0,1-1,1H96.27q-.21,0-.21.18v1.22q0,.18.21.18h7a.88.88,0,0,1,.64.28.94.94,0,0,1,0,1.32.87.87,0,0,1-.64.27h-7q-.21,0-.21.18v1.25q0,.18.21.18h9.23A1,1,0,0,1,106.22,199.12Zm-7.77-9.67a.15.15,0,0,0,0-.13.11.11,0,0,0-.09,0H91.58a.11.11,0,0,0-.09,0s0,.07,0,.1a16.56,16.56,0,0,1,.8,1.56.5.5,0,0,1,0,.49.59.59,0,0,1-.4.29s0,0,0,0h5.34a.31.31,0,0,0,.28-.18A21.82,21.82,0,0,0,98.45,189.45Z"/><path class="cls-1" d="M73.82,280.77A1.2,1.2,0,0,1,75,282a1.2,1.2,0,0,1-1.2,1.2H64.54q-.18,0-.18.21v5a3.51,3.51,0,0,1-.35,1.79,2.05,2.05,0,0,1-1.2.88,14.56,14.56,0,0,1-4.31.44,1.73,1.73,0,0,1-1-.33,2.23,2.23,0,0,1-.7-.91.82.82,0,0,1,0-.79.65.65,0,0,1,.66-.35l1.66,0H60a9.7,9.7,0,0,0,1,0,.9.9,0,0,0,.62-.17.74.74,0,0,0,.19-.58v-5a.19.19,0,0,0-.21-.21H52.31A1.2,1.2,0,0,1,51.12,282a1.18,1.18,0,0,1,.35-.87,1.15,1.15,0,0,1,.84-.35h9.28q.21,0,.21-.18v-3.37a.19.19,0,0,0-.21-.21H54.12a1.11,1.11,0,0,1-.84-.35,1.14,1.14,0,0,1-.35-.83,1.18,1.18,0,0,1,.35-.83,1.15,1.15,0,0,1,.84-.35h7.47q.21,0,.21-.18v-3.26c0-.12-.06-.18-.19-.16-2.76.23-5.14.38-7.12.47h-.06a1.16,1.16,0,0,1-.75-.29,1.45,1.45,0,0,1-.49-.77.79.79,0,0,1,.1-.73.8.8,0,0,1,.63-.36,89,89,0,0,0,15.45-1.79,2.59,2.59,0,0,1,.54-.05,2.22,2.22,0,0,1,.67.1,2,2,0,0,1,1,.62.78.78,0,0,1,.23.55,1.22,1.22,0,0,1,0,.26.73.73,0,0,1-.59.54,61.67,61.67,0,0,1-6.67,1.11.19.19,0,0,0-.18.21v3.53c0,.14.06.2.18.2h7.75a1.2,1.2,0,0,1,1.2,1.18,1.14,1.14,0,0,1-.35.83,1.11,1.11,0,0,1-.82.35H64.54q-.18,0-.18.21v3.37a.16.16,0,0,0,.18.18Z"/><path class="cls-1" d="M102.83,284.38a1.31,1.31,0,0,1,.67-.6,1.47,1.47,0,0,1,.44-.08,1.27,1.27,0,0,1,.44.08.91.91,0,0,1,.57.56.88.88,0,0,1,0,.79,14.82,14.82,0,0,1-2.41,3.08.23.23,0,0,0,0,.31,2.66,2.66,0,0,0,2.18,1.58.74.74,0,0,0,.68-.38,4.29,4.29,0,0,0,.36-1.43.48.48,0,0,1,.31-.43.6.6,0,0,1,.54,0,1.78,1.78,0,0,1,.6.65,1.31,1.31,0,0,1,.13.57v.23a4.41,4.41,0,0,1-.92,2.25,2.54,2.54,0,0,1-1.85.6,4.37,4.37,0,0,1-3.66-2.3c-.07-.11-.15-.12-.26,0a19.29,19.29,0,0,1-3.21,1.89,1.31,1.31,0,0,1-.86.05,1.34,1.34,0,0,1-.72-.47.71.71,0,0,1-.16-.64.64.64,0,0,1,.42-.5A15,15,0,0,0,99.69,288a.3.3,0,0,0,.08-.31,21.8,21.8,0,0,1-1.22-4.35.22.22,0,0,0-.23-.19H95.1a.2.2,0,0,0-.23.19c0,.24-.07.55-.1.93a.26.26,0,0,0,.12.28c1,.63,1.78,1.19,2.44,1.69a1.07,1.07,0,0,1,.39.85,1.15,1.15,0,0,1-.23.7A1,1,0,0,1,96,288c-.47-.39-1-.81-1.56-1.24-.1-.07-.17,0-.21.08a9.79,9.79,0,0,1-2.59,4.64.92.92,0,0,1-.76.22,1.26,1.26,0,0,1-.74-.4,1.1,1.1,0,0,1-.26-.74.92.92,0,0,1,.31-.72q2-2,2.44-6.42c0-.13,0-.19-.16-.19h-.42A1.2,1.2,0,0,1,90.9,282s0,0,0,0h-.06l0,0a.75.75,0,0,1-.7.33.7.7,0,0,1-.62-.46q-.47-1-1-2.07a.07.07,0,0,0-.06,0s0,0,0,0V291a1.07,1.07,0,0,1-.33.79,1.09,1.09,0,0,1-.79.32A1.09,1.09,0,0,1,86.16,291v-9.88s0,0,0,0,0,0,0,0a30.44,30.44,0,0,1-1.92,5.06.53.53,0,0,1-.53.29.61.61,0,0,1-.56-.32,2,2,0,0,1-.31-1,2.12,2.12,0,0,1,.28-1,31.06,31.06,0,0,0,2.83-8.29c0-.12,0-.18-.16-.18H84.16a1.1,1.1,0,0,1-.8-.34,1.08,1.08,0,0,1-.34-.8,1.05,1.05,0,0,1,.34-.8,1.13,1.13,0,0,1,.8-.32H86q.18,0,.18-.21v-4.27a1.09,1.09,0,0,1,.32-.79,1.07,1.07,0,0,1,.79-.33,1.13,1.13,0,0,1,1.12,1.12v4.27a.19.19,0,0,0,.21.21h1.29A1.11,1.11,0,0,1,91,274.53a1.11,1.11,0,0,1-.33.8,1.07,1.07,0,0,1-.79.34H88.6q-.21,0-.21.18v.75a.61.61,0,0,0,.1.36c.76,1.13,1.61,2.48,2.54,4.07a.33.33,0,0,0,.29.18H98q.21,0,.18-.18a89.36,89.36,0,0,1-.75-12.13,1.06,1.06,0,0,1,1.07-1.06,1,1,0,0,1,.77.31,1.06,1.06,0,0,1,.31.78v.2q0,1.14,0,3.06s0,0,0,0a0,0,0,0,0,.06,0l.42-.57a.51.51,0,0,1,.37-.22.5.5,0,0,1,.43.11.08.08,0,0,0,.1,0c.38-.76.75-1.61,1.12-2.54a.92.92,0,0,1,.52-.57.94.94,0,0,1,.77,0,.83.83,0,0,1,.51.51.85.85,0,0,1-.07.74c-.86,1.57-1.39,2.5-1.58,2.8a.23.23,0,0,0,0,.28c.33.35.56.58.68.7s.15.1.21,0c.38-.66.7-1.26,1-1.81a.94.94,0,0,1,.57-.5,1.07,1.07,0,0,1,.75,0,.91.91,0,0,1,.46.54.86.86,0,0,1-.09.7q-1.69,2.76-3,4.59a.09.09,0,0,0,0,.11.1.1,0,0,0,.1.05l1.89-.13c.11,0,.14-.08.11-.18s-.16-.32-.21-.44a.85.85,0,0,1,0-.59.62.62,0,0,1,.39-.4.79.79,0,0,1,.62,0,.88.88,0,0,1,.47.4,19.12,19.12,0,0,1,1,2.38.87.87,0,0,1-.07.67,1.11,1.11,0,0,1-.5.48.64.64,0,0,1-.57,0,.73.73,0,0,1-.39-.45.35.35,0,0,0,0-.13.14.14,0,0,0-.15-.1l-1.15.12-1.21.13a.07.07,0,0,0-.07.06.06.06,0,0,0,0,.07,14.38,14.38,0,0,1,1.79,1.25.57.57,0,0,1,.21.45.66.66,0,0,1-.21.48l0,0h1.06a1,1,0,0,1,.7.29.94.94,0,0,1,.28.7,1,1,0,0,1-1,1h-5.08c-.14,0-.19.06-.16.19a24.61,24.61,0,0,0,.73,2.77.06.06,0,0,0,.06.06.12.12,0,0,0,.12,0A13.3,13.3,0,0,0,102.83,284.38Zm-12.08-5.94a.58.58,0,0,1,.13-.56.74.74,0,0,1,.52-.27.18.18,0,0,0,.15-.08c.38-.5.89-1.24,1.53-2.23a.21.21,0,0,0,0-.31,19.17,19.17,0,0,0-2-1.92.92.92,0,0,1-.31-.58.83.83,0,0,1,.15-.63l.13-.19a.62.62,0,0,1,.41-.24.49.49,0,0,1,.42.11.07.07,0,0,0,.11,0c.34-.74.71-1.59,1.09-2.56a1,1,0,0,1,.53-.56,1.05,1.05,0,0,1,.76,0,.88.88,0,0,1,.52.53.91.91,0,0,1,0,.74c-.74,1.38-1.27,2.32-1.58,2.8a.23.23,0,0,0,0,.29c.19.19.41.42.65.7.08.08.16.07.23,0,.38-.66.71-1.26,1-1.81a.93.93,0,0,1,.55-.5,1,1,0,0,1,.74,0,.91.91,0,0,1,.48.54.79.79,0,0,1-.09.7q-1.78,2.94-3.27,5a.09.09,0,0,0,.08.12l1.69-.1c.12,0,.16-.08.13-.18l-.24-.6a.77.77,0,0,1,.44-1,.86.86,0,0,1,.61,0,.82.82,0,0,1,.43.41,13.88,13.88,0,0,1,.86,2.39.82.82,0,0,1-.08.66,1,1,0,0,1-.52.45l0,0a.54.54,0,0,1-.55,0,.7.7,0,0,1-.35-.44A.12.12,0,0,0,96,279c-1.59.19-2.95.34-4.07.44a1,1,0,0,1-.72-.19,1.09,1.09,0,0,1-.4-.66ZM100,278a.61.61,0,0,1,.11-.51.57.57,0,0,1,.48-.24.23.23,0,0,0,.13-.07c.37-.47.81-1.1,1.33-1.9a.23.23,0,0,0,0-.31,19.72,19.72,0,0,0-2.31-2.23h-.11a.1.1,0,0,0,0,.08,69.28,69.28,0,0,0,.68,8.17.19.19,0,0,0,.2.2h2.62s.06,0,.07,0a.08.08,0,0,0,0-.08l-.51-.41a1.06,1.06,0,0,1-.47-.91,1.07,1.07,0,0,1,.34-.78s0,0,0-.05,0,0-.07,0l-1.27.13a1,1,0,0,1-1.11-.81Z"/></svg>